0
SECTION
2
HEADER
9
$INSUNITS
70
4
9
$ACADVER
1
AC1014
9
$HANDSEED
5
FFFF
0
ENDSEC
0
SECTION
2
TABLES
0
TABLE
2
VPORT
5
8
100
AcDbSymbolTable
0
ENDTAB
0
TABLE
2
LTYPE
5
5
100
AcDbSymbolTable
0
LTYPE
5
14
100
AcDbSymbolTableRecord
100
AcDbLinetypeTableRecord
2
BYBLOCK
70
0
0
LTYPE
5
15
100
AcDbSymbolTableRecord
100
AcDbLinetypeTableRecord
2
BYLAYER
70
0
0
ENDTAB
0
TABLE
2
LAYER
5
2
100
AcDbSymbolTable
70
2
0
LAYER
5
50
100
AcDbSymbolTableRecord
100
AcDbLayerTableRecord
2
0
70
0
6
CONTINUOUS
0
ENDTAB
0
TABLE
2
STYLE
5
3
100
AcDbSymbolTable
70
1
0
STYLE
5
11
100
AcDbSymbolTableRecord
100
AcDbTextStyleTableRecord
2
STANDARD
70
0
0
ENDTAB
0
TABLE
2
VIEW
5
6
100
AcDbSymbolTable
70
0
0
ENDTAB
0
TABLE
2
UCS
5
7
100
AcDbSymbolTable
70
0
0
ENDTAB
0
TABLE
2
APPID
5
9
100
AcDbSymbolTable
70
2
0
APPID
5
12
100
AcDbSymbolTableRecord
100
AcDbRegAppTableRecord
2
ACAD
70
0
0
ENDTAB
0
TABLE
2
DIMSTYLE
5
A
100
AcDbSymbolTable
70
1
0
ENDTAB
0
TABLE
2
BLOCK_RECORD
5
1
100
AcDbSymbolTable
70
1
0
BLOCK_RECORD
5
1F
100
AcDbSymbolTableRecord
100
AcDbBlockTableRecord
2
*MODEL_SPACE
0
BLOCK_RECORD
5
1B
100
AcDbSymbolTableRecord
100
AcDbBlockTableRecord
2
*PAPER_SPACE
0
ENDTAB
0
ENDSEC
0
SECTION
2
BLOCKS
0
BLOCK
5
20
100
AcDbEntity
100
AcDbBlockBegin
2
*MODEL_SPACE
0
ENDBLK
5
21
100
AcDbEntity
100
AcDbBlockEnd
0
BLOCK
5
1C
100
AcDbEntity
100
AcDbBlockBegin
2
*PAPER_SPACE
0
ENDBLK
5
1D
100
AcDbEntity
100
AcDbBlockEnd
0
ENDSEC
0
SECTION
2
ENTITIES
0
SPLINE
5
100
100
AcDbEntity
8
0
100
AcDbSpline
70
0
71
3
72
16
73
12
74
0
42
0.000000001
43
0.0000000001
44
0.0000000001
40
0
40
0
40
0
40
0
40
0.037089601890741258
40
0.037089601890741258
40
0.094171574106345468
40
0.094171574106345468
40
0.17015146945820822
40
0.17015146945820822
40
0.19959236783297746
40
0.19959236783297746
40
0.22180788848139535
40
0.22180788848139535
40
0.22180788848139535
40
0.22180788848139535
10
-35.337500000000006
20
95.25
30
0
10
-35.213867993697534
20
95.25
30
0
10
-35.076415390012087
20
95.22357652825346
30
0
10
-34.707580394759951
20
95.092451782869304
30
0
10
-34.472565651412125
20
94.955657002344765
30
0
10
-33.956625906237292
20
94.537218613442832
30
0
10
-33.703312662371644
20
94.236559377475231
30
0
10
-33.473788108831208
20
93.810112788359476
30
0
10
-33.418841731967753
20
93.682467168103017
30
0
10
-33.355256508737646
20
93.45463961003874
30
0
10
-33.337500000000006
20
93.351439195142106
30
0
10
-33.337500000000006
20
93.250000000000014
30
0
0
LINE
5
101
100
AcDbEntity
8
0
100
AcDbLine
10
-35.337500000000006
20
95.25
30
0
11
-88.487499999999983
21
95.25
31
0
0
LINE
5
102
100
AcDbEntity
8
0
100
AcDbLine
10
-185.73749999999995
20
93.250000000000014
30
0
11
-185.73749999999995
21
78.199999999999989
31
0
0
SPLINE
5
103
100
AcDbEntity
8
0
100
AcDbSpline
70
0
71
3
72
16
73
12
74
0
42
0.000000001
43
0.0000000001
44
0.0000000001
40
0
40
0
40
0
40
0
40
0.037089601890967785
40
0.037089601890967785
40
0.09417157410749058
40
0.09417157410749058
40
0.17015146946071166
40
0.17015146946071166
40
0.19959236783598805
40
0.19959236783598805
40
0.22180788848480201
40
0.22180788848480201
40
0.22180788848480201
40
0.22180788848480201
10
-183.73749999999995
20
76.199999999999989
30
0
10
-183.86113200630317
20
76.199999999999989
30
0
10
-183.99858460998882
20
76.226423471746884
30
0
10
-184.36741960524097
20
76.357548217131054
30
0
10
-184.60243434858879
20
76.494342997656005
30
0
10
-185.11837409376216
20
76.912781386556816
30
0
10
-185.37168733762812
20
77.213440622524274
30
0
10
-185.60121189116896
20
77.639887211640868
30
0
10
-185.65615826803227
20
77.767532831897213
30
0
10
-185.71974349126234
20
77.995360389961348
30
0
10
-185.73749999999995
20
78.098560804857911
30
0
10
-185.73749999999995
20
78.199999999999989
30
0
0
LINE
5
104
100
AcDbEntity
8
0
100
AcDbLine
10
-183.73749999999995
20
76.199999999999989
30
0
11
-178.21249999999998
21
76.199999999999989
31
0
0
SPLINE
5
105
100
AcDbEntity
8
0
100
AcDbSpline
70
0
71
3
72
16
73
12
74
0
42
0.000000001
43
0.0000000001
44
0.0000000001
40
0
40
0
40
0
40
0
40
0.037089601890582434
40
0.037089601890582434
40
0.094171574105650066
40
0.094171574105650066
40
0.17015146945676698
40
0.17015146945676698
40
0.19959236783126155
40
0.19959236783126155
40
0.22180788847944494
40
0.22180788847944494
40
0.22180788847944494
40
0.22180788847944494
10
-176.21250000000001
20
74.199999999999989
30
0
10
-176.21250000000001
20
74.323632006301935
30
0
10
-176.23892347174632
20
74.461084609987239
30
0
10
-176.37004821713066
20
74.829919605239937
30
0
10
-176.50684299765516
20
75.064934348587769
30
0
10
-176.9252813865572
20
75.580874093762731
30
0
10
-177.22594062252483
20
75.834187337628379
30
0
10
-177.65238721164059
20
76.063711891168808
30
0
10
-177.78003283189702
20
76.118658268032235
30
0
10
-178.00786038996111
20
76.182243491262284
30
0
10
-178.11106080485786
20
76.199999999999989
30
0
10
-178.21249999999998
20
76.199999999999989
30
0
0
LINE
5
106
100
AcDbEntity
8
0
100
AcDbLine
10
-176.21250000000001
20
74.199999999999989
30
0
11
-176.21250000000001
21
59.149999999999999
31
0
0
SPLINE
5
107
100
AcDbEntity
8
0
100
AcDbSpline
70
0
71
3
72
16
73
12
74
0
42
0.000000001
43
0.0000000001
44
0.0000000001
40
0
40
0
40
0
40
0
40
0.037089601890558939
40
0.037089601890558939
40
0.094171574105664735
40
0.094171574105664735
40
0.1701514694569341
40
0.1701514694569341
40
0.19959236783146228
40
0.19959236783146228
40
0.22180788847963906
40
0.22180788847963906
40
0.22180788847963906
40
0.22180788847963906
10
-178.21249999999995
20
57.149999999999999
30
0
10
-178.0888679936981
20
57.149999999999999
30
0
10
-177.95141539001278
20
57.176423471746283
30
0
10
-177.5825803947595
20
57.307548217130851
30
0
10
-177.34756565141168
20
57.444342997655554
30
0
10
-176.83162590623732
20
57.862781386557181
30
0
10
-176.57831266237164
20
58.163440622524746
30
0
10
-176.3487881088312
20
58.58988721164063
30
0
10
-176.29384173196775
20
58.717532831897081
30
0
10
-176.23025650873774
20
58.945360389961053
30
0
10
-176.21250000000001
20
59.048560804857829
30
0
10
-176.21250000000001
20
59.149999999999999
30
0
0
LINE
5
108
100
AcDbEntity
8
0
100
AcDbLine
10
-178.21249999999995
20
57.149999999999999
30
0
11
-212.3125
21
57.149999999999999
31
0
0
SPLINE
5
109
100
AcDbEntity
8
0
100
AcDbSpline
70
0
71
3
72
16
73
12
74
0
42
0.000000001
43
0.0000000001
44
0.0000000001
40
0
40
0
40
0
40
0
40
0.0370896018912341
40
0.0370896018912341
40
0.094171574107957817
40
0.094171574107957817
40
0.17015146946085519
40
0.17015146946085519
40
0.19959236783605205
40
0.19959236783605205
40
0.22180788848480509
40
0.22180788848480509
40
0.22180788848480509
40
0.22180788848480509
10
-214.3125
20
55.149999999999999
30
0
10
-214.3125
20
55.273632006304112
30
0
10
-214.28607652825269
20
55.411084609989956
30
0
10
-214.15495178286983
20
55.779919605238433
30
0
10
-214.01815700234607
20
56.014934348586316
30
0
10
-213.59971861344229
20
56.530874093763394
30
0
10
-213.29905937747455
20
56.784187337628751
30
0
10
-212.87261278835945
20
57.013711891168782
30
0
10
-212.74496716810293
20
57.06865826803228
30
0
10
-212.51713961003858
20
57.132243491262393
30
0
10
-212.41393919514206
20
57.149999999999999
30
0
10
-212.3125
20
57.149999999999999
30
0
0
LINE
5
110
100
AcDbEntity
8
0
100
AcDbLine
10
-214.3125
20
55.149999999999999
30
0
11
-214.3125
21
40.100000000000009
31
0
0
SPLINE
5
111
100
AcDbEntity
8
0
100
AcDbSpline
70
0
71
3
72
16
73
12
74
0
42
0.000000001
43
0.0000000001
44
0.0000000001
40
0
40
0
40
0
40
0
40
0.037089601891086253
40
0.037089601891086253
40
0.094171574107571626
40
0.094171574107571626
40
0.17015146946031723
40
0.17015146946031723
40
0.19959236783534653
40
0.19959236783534653
40
0.22180788848401231
40
0.22180788848401231
40
0.22180788848401231
40
0.22180788848401231
10
-216.31249999999991
20
38.100000000000009
30
0
10
-216.18886799369631
20
38.100000000000009
30
0
10
-216.05141539001056
20
38.126423471747081
30
0
10
-215.68258039476061
20
38.257548217130484
30
0
10
-215.44756565141273
20
38.394342997654668
30
0
10
-214.93162590623712
20
38.812781386557297
30
0
10
-214.67831266237152
20
39.11344062252487
30
0
10
-214.44878810883131
20
39.53988721164032
30
0
10
-214.39384173196771
20
39.66753283189697
30
0
10
-214.33025650873748
20
39.895360389961631
30
0
10
-214.3125
20
39.998560804858016
30
0
10
-214.3125
20
40.100000000000009
30
0
0
LINE
5
112
100
AcDbEntity
8
0
100
AcDbLine
10
-216.31249999999991
20
38.100000000000009
30
0
11
-217.07499999999999
21
38.100000000000009
31
0
0
SPLINE
5
113
100
AcDbEntity
8
0
100
AcDbSpline
70
0
71
3
72
16
73
12
74
0
42
0.000000001
43
0.0000000001
44
0.0000000001
40
0
40
0
40
0
40
0
40
0.037089601889981075
40
0.037089601889981075
40
0.094171574103225228
40
0.094171574103225228
40
0.17015146945219822
40
0.17015146945219822
40
0.19959236782588335
40
0.19959236782588335
40
0.2218078884734726
40
0.2218078884734726
40
0.2218078884734726
40
0.2218078884734726
10
-219.07499999999999
20
36.100000000000001
30
0
10
-219.07499999999999
20
36.223632006299937
30
0
10
-219.04857652825456
20
36.361084609984779
30
0
10
-218.91745178286919
20
36.729919605240291
30
0
10
-218.78065700234455
20
36.964934348588145
30
0
10
-218.36221861344217
20
37.480874093763482
30
0
10
-218.0615593774744
20
37.734187337628768
30
0
10
-217.63511278835949
20
37.963711891168735
30
0
10
-217.50746716810298
20
38.018658268032254
30
0
10
-217.27963961003866
20
38.082243491262368
30
0
10
-217.17643919514211
20
38.100000000000009
30
0
10
-217.07499999999999
20
38.100000000000009
30
0
0
LINE
5
114
100
AcDbEntity
8
0
100
AcDbLine
10
-219.07499999999999
20
36.100000000000001
30
0
11
-219.07499999999999
21
21.050000000000004
31
0
0
SPLINE
5
115
100
AcDbEntity
8
0
100
AcDbSpline
70
0
71
3
72
16
73
12
74
0
42
0.000000001
43
0.0000000001
44
0.0000000001
40
0
40
0
40
0
40
0
40
0.037089601890786431
40
0.037089601890786431
40
0.094171574106521133
40
0.094171574106521133
40
0.17015146945837559
40
0.17015146945837559
40
0.19959236783309023
40
0.19959236783309023
40
0.22180788848143407
40
0.22180788848143407
40
0.22180788848143407
40
0.22180788848143407
10
-217.07499999999999
20
19.050000000000004
30
0
10
-217.1986320063026
20
19.050000000000004
30
0
10
-217.33608460998809
20
19.076423471746629
30
0
10
-217.70491960523995
20
19.207548217130704
30
0
10
-217.9399343485878
20
19.344342997655229
30
0
10
-218.45587409376211
20
19.762781386556775
30
0
10
-218.70918733762804
20
20.063440622524237
30
0
10
-218.93871189116879
20
20.489887211640596
30
0
10
-218.99365826803222
20
20.617532831897059
30
0
10
-219.05724349126228
20
20.845360389961161
30
0
10
-219.07499999999999
20
20.948560804857863
30
0
10
-219.07499999999999
20
21.050000000000004
30
0
0
LINE
5
116
100
AcDbEntity
8
0
100
AcDbLine
10
-217.07499999999999
20
19.050000000000004
30
0
11
-211.54999999999998
21
19.050000000000004
31
0
0
SPLINE
5
117
100
AcDbEntity
8
0
100
AcDbSpline
70
0
71
3
72
16
73
12
74
0
42
0.000000001
43
0.0000000001
44
0.0000000001
40
0
40
0
40
0
40
0
40
0.037089601891776576
40
0.037089601891776576
40
0.094171574110482131
40
0.094171574110482131
40
0.1701514694660291
40
0.1701514694660291
40
0.19959236784212095
40
0.19959236784212095
40
0.22180788849154667
40
0.22180788849154667
40
0.22180788849154667
40
0.22180788849154667
10
-209.54999999999998
20
17.050000000000001
30
0
10
-209.54999999999998
20
17.173632006305922
30
0
10
-209.57642347174811
20
17.311084609992196
30
0
10
-209.70754821713055
20
17.679919605239483
30
0
10
-209.84434299765482
20
17.914934348587369
30
0
10
-210.26278138655672
20
18.430874093762082
30
0
10
-210.56344062252418
20
18.684187337628099
30
0
10
-210.98988721164062
20
18.913711891168845
30
0
10
-211.11753283189711
20
18.968658268032307
30
0
10
-211.3453603899614
20
19.032243491262395
30
0
10
-211.44856080485792
20
19.050000000000004
30
0
10
-211.54999999999998
20
19.050000000000004
30
0
0
LINE
5
118
100
AcDbEntity
8
0
100
AcDbLine
10
-209.54999999999998
20
17.050000000000001
30
0
11
-209.54999999999998
21
1.9999999999999996
31
0
0
SPLINE
5
119
100
AcDbEntity
8
0
100
AcDbSpline
70
0
71
3
72
16
73
12
74
0
42
0.000000001
43
0.0000000001
44
0.0000000001
40
0
40
0
40
0
40
0
40
0.037089601890588235
40
0.037089601890588235
40
0.094171574105785971
40
0.094171574105785971
40
0.17015146945708381
40
0.17015146945708381
40
0.19959236783160972
40
0.19959236783160972
40
0.22180788847993399
40
0.22180788847993399
40
0.22180788847993399
40
0.22180788847993399
10
-207.55000000000001
20
0
30
0
10
-207.673632006302
20
1.7157387497129736e-17
30
0
10
-207.81108460998729
20
0.0264234717463252
30
0
10
-208.17991960524046
20
0.15754821713086076
30
0
10
-208.4149343485883
20
0.2943429976555797
30
0
10
-208.93087409376221
20
0.71278138655680434
30
0
10
-209.18418733762817
20
1.0134406225242834
30
0
10
-209.41371189116893
20
1.4398872116407622
30
0
10
-209.4686582680323
20
1.5675328318971402
30
0
10
-209.53224349126248
20
1.7953603899616752
30
0
10
-209.54999999999998
20
1.8985608048580274
30
0
10
-209.54999999999998
20
1.9999999999999996
30
0
0
LINE
5
120
100
AcDbEntity
8
0
100
AcDbLine
10
-207.55000000000001
20
0
30
0
11
-144.87499999999997
21
0
31
0
0
SPLINE
5
121
100
AcDbEntity
8
0
100
AcDbSpline
70
0
71
3
72
16
73
12
74
0
42
0.000000001
43
0.0000000001
44
0.0000000001
40
0
40
0
40
0
40
0
40
0.037089601888933725
40
0.037089601888933725
40
0.094171574099335353
40
0.094171574099335353
40
0.17015146944495319
40
0.17015146944495319
40
0.19959236781731146
40
0.19959236781731146
40
0.22180788846390839
40
0.22180788846390839
40
0.22180788846390839
40
0.22180788846390839
10
-142.87499999999997
20
2.0000000000000004
30
0
10
-142.87499999999997
20
1.8763679937035547
30
0
10
-142.90142347174384
20
1.7389153900195455
30
0
10
-143.03254821713142
20
1.3700803947578177
30
0
10
-143.169342997657
20
1.1350656514099675
30
0
10
-143.58778138655731
20
0.61912590623718478
30
0
10
-143.88844062252488
20
0.36581266237152676
30
0
10
-144.31488721164075
20
0.13628810883109005
30
0
10
-144.44253283189715
20
0.081341731967697561
30
0
10
-144.6703603899613
20
0.017756508737639565
30
0
10
-144.77356080485791
20
-1.4077516255771599e-17
30
0
10
-144.87499999999997
20
0
30
0
0
LINE
5
122
100
AcDbEntity
8
0
100
AcDbLine
10
-142.87499999999997
20
2.0000000000000004
30
0
11
-142.87499999999997
21
7.5250000000000021
31
0
0
SPLINE
5
123
100
AcDbEntity
8
0
100
AcDbSpline
70
0
71
3
72
16
73
12
74
0
42
0.000000001
43
0.0000000001
44
0.0000000001
40
0
40
0
40
0
40
0
40
0.037089601890862127
40
0.037089601890862127
40
0.094171574106825209
40
0.094171574106825209
40
0.17015146945916079
40
0.17015146945916079
40
0.19959236783410653
40
0.19959236783410653
40
0.22180788848263511
40
0.22180788848263511
40
0.22180788848263511
40
0.22180788848263511
10
-140.875
20
9.5250000000000021
30
0
10
-140.99863200630287
20
9.5250000000000021
30
0
10
-141.13608460998839
20
9.4985765282532668
30
0
10
-141.50491960523996
20
9.3674517828693009
30
0
10
-141.73993434858778
20
9.2306570023447883
30
0
10
-142.25587409376291
20
8.8122186134425888
30
0
10
-142.5091873376285
20
8.5115593774749438
30
0
10
-142.73871189116878
20
8.0851127883593854
30
0
10
-142.79365826803226
20
7.9574671681029221
30
0
10
-142.85724349126232
20
7.729639610038733
30
0
10
-142.87499999999997
20
7.6264391951420958
30
0
10
-142.87499999999997
20
7.5250000000000021
30
0
0
LINE
5
124
100
AcDbEntity
8
0
100
AcDbLine
10
-140.875
20
9.5250000000000021
30
0
11
-116.53750010481646
21
9.5250000000000021
31
0
0
SPLINE
5
125
100
AcDbEntity
8
0
100
AcDbSpline
70
0
71
3
72
16
73
12
74
0
42
0.000000001
43
0.0000000001
44
0.0000000001
40
0
40
0
40
0
40
0
40
0.037089601890594848
40
0.037089601890594848
40
0.094171574105636105
40
0.094171574105636105
40
0.17015146945661569
40
0.17015146945661569
40
0.19959236783098802
40
0.19959236783098802
40
0.22180788847911082
40
0.22180788847911082
40
0.22180788847911082
40
0.22180788847911082
10
-114.53750010481647
20
7.5250000000000021
30
0
10
-114.53750010481647
20
7.6486320063019839
30
0
10
-114.56392357656281
20
7.7860846099873111
30
0
10
-114.69504832194708
20
8.1549196052397317
30
0
10
-114.83184310247147
20
8.3899343485875839
30
0
10
-115.25028149137371
20
8.9058740937627618
30
0
10
-115.5509407273413
20
9.1591873376284134
30
0
10
-115.9773873164569
20
9.3887118911687164
30
0
10
-116.10503293671344
20
9.4436582680322587
30
0
10
-116.3328604947778
20
9.5072434912623809
30
0
10
-116.43606090967438
20
9.5250000000000021
30
0
10
-116.53750010481646
20
9.5250000000000021
30
0
0
LINE
5
126
100
AcDbEntity
8
0
100
AcDbLine
10
-114.53750010481647
20
7.5250000000000021
30
0
11
-114.53750010481647
21
6.5249999999999986
31
0
0
LINE
5
127
100
AcDbEntity
8
0
100
AcDbLine
10
-114.53750010481647
20
6.5249999999999986
30
0
11
-104.53750010481647
21
6.5249999999999986
31
0
0
LINE
5
128
100
AcDbEntity
8
0
100
AcDbLine
10
-104.53750010481647
20
6.5249999999999986
30
0
11
-104.53750010481647
21
7.5250000000000021
31
0
0
SPLINE
5
129
100
AcDbEntity
8
0
100
AcDbSpline
70
0
71
3
72
16
73
12
74
0
42
0.000000001
43
0.0000000001
44
0.0000000001
40
0
40
0
40
0
40
0
40
0.037089601890534354
40
0.037089601890534354
40
0.094171574105634093
40
0.094171574105634093
40
0.17015146945698245
40
0.17015146945698245
40
0.19959236783150064
40
0.19959236783150064
40
0.22180788847972674
40
0.22180788847972674
40
0.22180788847972674
40
0.22180788847972674
10
-102.53750010481647
20
9.5250000000000021
30
0
10
-102.66113211111826
20
9.5250000000000021
30
0
10
-102.79858471480354
20
9.4985765282537553
30
0
10
-103.1674197100572
20
9.3674517828690469
30
0
10
-103.40243445340502
20
9.2306570023442038
30
0
10
-103.91837419857906
20
8.8122186134428873
30
0
10
-104.17168744244479
20
8.5115593774753311
30
0
10
-104.40121199598524
20
8.0851127883594724
30
0
10
-104.45615837284875
20
7.9574671681029532
30
0
10
-104.51974359607885
20
7.7296396100386522
30
0
10
-104.53750010481647
20
7.6264391951420762
30
0
10
-104.53750010481647
20
7.5250000000000021
30
0
0
LINE
5
130
100
AcDbEntity
8
0
100
AcDbLine
10
-102.53750010481647
20
9.5250000000000021
30
0
11
-78.200000000000017
21
9.5250000000000021
31
0
0
SPLINE
5
131
100
AcDbEntity
8
0
100
AcDbSpline
70
0
71
3
72
16
73
12
74
0
42
0.000000001
43
0.0000000001
44
0.0000000001
40
0
40
0
40
0
40
0
40
0.037089601890172838
40
0.037089601890172838
40
0.094171574104266895
40
0.094171574104266895
40
0.17015146945437265
40
0.17015146945437265
40
0.19959236782839737
40
0.19959236782839737
40
0.22180788847625507
40
0.22180788847625507
40
0.22180788847625507
40
0.22180788847625507
10
-76.200000000000017
20
7.5250000000000021
30
0
10
-76.200000000000017
20
7.648632006300577
30
0
10
-76.226423471745704
20
7.786084609985565
30
0
10
-76.357548217131139
20
8.1549196052412327
30
0
10
-76.494342997656247
20
8.3899343485890672
30
0
10
-76.912781386556901
20
8.9058740937622858
30
0
10
-77.213440622524388
20
9.1591873376281683
30
0
10
-77.639887211640598
20
9.3887118911688034
30
0
10
-77.767532831897071
20
9.4436582680322729
30
0
10
-77.995360389961348
20
9.5072434912623685
30
0
10
-78.098560804857925
20
9.5250000000000021
30
0
10
-78.200000000000017
20
9.5250000000000021
30
0
0
LINE
5
132
100
AcDbEntity
8
0
100
AcDbLine
10
-76.200000000000017
20
7.5250000000000021
30
0
11
-76.200000000000017
21
1.9999999999999996
31
0
0
SPLINE
5
133
100
AcDbEntity
8
0
100
AcDbSpline
70
0
71
3
72
16
73
12
74
0
42
0.000000001
43
0.0000000001
44
0.0000000001
40
0
40
0
40
0
40
0
40
0.037089601890678961
40
0.037089601890678961
40
0.09417157410610924
40
0.09417157410610924
40
0.17015146945771664
40
0.17015146945771664
40
0.19959236783233877
40
0.19959236783233877
40
0.22180788848064079
40
0.22180788848064079
40
0.22180788848064079
40
0.22180788848064079
10
-74.200000000000003
20
0
30
0
10
-74.323632006302262
20
1.7157387497171622e-17
30
0
10
-74.461084609987665
20
0.026423471746460283
30
0
10
-74.829919605240235
20
0.15754821713078454
30
0
10
-75.064934348588082
20
0.29434299765540445
30
0
10
-75.580874093762588
20
0.71278138655712131
30
0
10
-75.834187337628336
20
1.0134406225246702
30
0
10
-76.063711891168793
20
1.4398872116405577
30
0
10
-76.118658268032277
20
1.5675328318970649
30
0
10
-76.182243491262383
20
1.795360389961336
30
0
10
-76.200000000000017
20
1.8985608048579217
30
0
10
-76.200000000000017
20
1.9999999999999996
30
0
0
LINE
5
134
100
AcDbEntity
8
0
100
AcDbLine
10
-74.200000000000003
20
0
30
0
11
-11.524999999999999
21
0
31
0
0
SPLINE
5
135
100
AcDbEntity
8
0
100
AcDbSpline
70
0
71
3
72
16
73
12
74
0
42
0.000000001
43
0.0000000001
44
0.0000000001
40
0
40
0
40
0
40
0
40
0.037089601890592086
40
0.037089601890592086
40
0.094171574105797753
40
0.094171574105797753
40
0.17015146945714282
40
0.17015146945714282
40
0.19959236783167439
40
0.19959236783167439
40
0.2218078884799129
40
0.2218078884799129
40
0.2218078884799129
40
0.2218078884799129
10
-9.5249999999999986
20
2.0000000000000004
30
0
10
-9.5249999999999986
20
1.8763679936980269
30
0
10
-9.5514234717463289
20
1.738915390012699
30
0
10
-9.6825482171308437
20
1.3700803947595959
30
0
10
-9.8193429976555517
20
1.1350656514117539
30
0
10
-10.237781386557007
20
0.61912590623755082
30
0
10
-10.538440622524529
20
0.36581266237174459
30
0
10
-10.964887211640642
20
0.13628810883116585
30
0
10
-11.092532831897095
20
0.08134173196772175
30
0
10
-11.320360389961326
20
0.017756508737636029
30
0
10
-11.423560804857917
20
-1.4077516255772782e-17
30
0
10
-11.524999999999999
20
0
30
0
0
LINE
5
136
100
AcDbEntity
8
0
100
AcDbLine
10
-9.5249999999999986
20
2.0000000000000004
30
0
11
-9.5250000000000004
21
17.050000000000004
31
0
0
SPLINE
5
137
100
AcDbEntity
8
0
100
AcDbSpline
70
0
71
3
72
16
73
12
74
0
42
0.000000001
43
0.0000000001
44
0.0000000001
40
0
40
0
40
0
40
0
40
0.037089601890662925
40
0.037089601890662925
40
0.094171574106067663
40
0.094171574106067663
40
0.17015146945765891
40
0.17015146945765891
40
0.19959236783229117
40
0.19959236783229117
40
0.22180788848060368
40
0.22180788848060368
40
0.22180788848060368
40
0.22180788848060368
10
-7.5249999999999995
20
19.050000000000004
30
0
10
-7.6486320063022095
20
19.050000000000004
30
0
10
-7.7860846099875918
20
19.023576528253564
30
0
10
-8.1549196052403126
20
18.892451782869184
30
0
10
-8.3899343485881612
20
18.75565700234452
30
0
10
-8.9058740937625274
20
18.337218613442928
30
0
10
-9.1591873376283015
20
18.036559377475392
30
0
10
-9.3887118911688425
20
17.610112788359341
30
0
10
-9.4436582680322818
20
17.482467168102897
30
0
10
-9.5072434912623613
20
17.25463961003868
30
0
10
-9.5250000000000004
20
17.151439195142085
30
0
10
-9.5250000000000004
20
17.050000000000004
30
0
0
LINE
5
138
100
AcDbEntity
8
0
100
AcDbLine
10
-7.5249999999999995
20
19.050000000000004
30
0
11
-2.0000000000000009
21
19.050000000000004
31
0
0
SPLINE
5
139
100
AcDbEntity
8
0
100
AcDbSpline
70
0
71
3
72
16
73
12
74
0
42
0.000000001
43
0.0000000001
44
0.0000000001
40
0
40
0
40
0
40
0
40
0.037089601890675367
40
0.037089601890675367
40
0.09417157410612359
40
0.09417157410612359
40
0.17015146945776988
40
0.17015146945776988
40
0.19959236783242587
40
0.19959236783242587
40
0.221807888480753
40
0.221807888480753
40
0.221807888480753
40
0.221807888480753
10
0
20
21.050000000000004
30
0
10
1.7157387497170245e-17
20
20.926367993697752
30
0
10
-0.026423471746455894
20
20.788915390012363
30
0
10
-0.15754821713081624
20
20.420080394759687
30
0
10
-0.29434299765548205
20
20.18506565141184
30
0
10
-0.7127813865570467
20
19.669125906237507
30
0
10
-1.0134406225245765
20
19.415812662371724
30
0
10
-1.4398872116406649
20
19.186288108831157
30
0
10
-1.567532831897106
20
19.131341731967723
30
0
10
-1.795360389961302
20
19.067756508737649
30
0
10
-1.8985608048579112
20
19.050000000000004
30
0
10
-2.0000000000000009
20
19.050000000000004
30
0
0
LINE
5
140
100
AcDbEntity
8
0
100
AcDbLine
10
0
20
21.050000000000004
30
0
11
0
21
36.100000000000001
31
0
0
SPLINE
5
141
100
AcDbEntity
8
0
100
AcDbSpline
70
0
71
3
72
16
73
12
74
0
42
0.000000001
43
0.0000000001
44
0.0000000001
40
0
40
0
40
0
40
0
40
0.037089601890670884
40
0.037089601890670884
40
0.094171574106023365
40
0.094171574106023365
40
0.17015146945742121
40
0.17015146945742121
40
0.1995923678319737
40
0.1995923678319737
40
0.22180788848022925
40
0.22180788848022925
40
0.22180788848022925
40
0.22180788848022925
10
-2.0000000000000004
20
38.100000000000009
30
0
10
-1.876367993697764
20
38.100000000000009
30
0
10
-1.7389153900123746
20
38.073576528253554
30
0
10
-1.370080394759986
20
37.942451782869291
30
0
10
-1.1350656514121347
20
37.805657002344766
30
0
10
-0.61912590623755814
20
37.387218613442997
30
0
10
-0.36581266237173921
20
37.086559377475481
30
0
10
-0.13628810883114648
20
36.660112788359328
30
0
10
-0.081341731967714381
20
36.532467168102883
30
0
10
-0.017756508737634381
20
36.304639610038663
30
0
10
1.4077516255772212e-17
20
36.201439195142079
30
0
10
0
20
36.100000000000001
30
0
0
LINE
5
142
100
AcDbEntity
8
0
100
AcDbLine
10
-2.0000000000000004
20
38.100000000000009
30
0
11
-2.7625000000000006
21
38.100000000000009
31
0
0
SPLINE
5
143
100
AcDbEntity
8
0
100
AcDbSpline
70
0
71
3
72
16
73
12
74
0
42
0.000000001
43
0.0000000001
44
0.0000000001
40
0
40
0
40
0
40
0
40
0.037089601890662474
40
0.037089601890662474
40
0.094171574106128475
40
0.094171574106128475
40
0.17015146945782275
40
0.17015146945782275
40
0.19959236783248407
40
0.19959236783248407
40
0.2218078884808225
40
0.2218078884808225
40
0.2218078884808225
40
0.2218078884808225
10
-4.7625000000000011
20
40.100000000000009
30
0
10
-4.7625000000000011
20
39.976367993697799
30
0
10
-4.7360765282535642
20
39.83891539001241
30
0
10
-4.6049517828690991
20
39.470080394759449
30
0
10
-4.4681570023443236
20
39.23506565141161
30
0
10
-4.0497186134431526
20
38.719125906237764
30
0
10
-3.7490593774756724
20
38.465812662371853
30
0
10
-3.3226127883593053
20
38.236288108831133
30
0
10
-3.1949671681028882
20
38.18134173196772
30
0
10
-2.96713961003868
20
38.117756508737642
30
0
10
-2.8639391951420823
20
38.100000000000009
30
0
10
-2.7625000000000006
20
38.100000000000009
30
0
0
LINE
5
144
100
AcDbEntity
8
0
100
AcDbLine
10
-4.7625000000000011
20
40.100000000000009
30
0
11
-4.7625000000000011
21
55.149999999999999
31
0
0
SPLINE
5
145
100
AcDbEntity
8
0
100
AcDbSpline
70
0
71
3
72
16
73
12
74
0
42
0.000000001
43
0.0000000001
44
0.0000000001
40
0
40
0
40
0
40
0
40
0.03708960189092262
40
0.03708960189092262
40
0.094171574106987677
40
0.094171574106987677
40
0.1701514694592246
40
0.1701514694592246
40
0.19959236783409809
40
0.19959236783409809
40
0.22180788848259944
40
0.22180788848259944
40
0.22180788848259944
40
0.22180788848259944
10
-6.7625000000000002
20
57.149999999999999
30
0
10
-6.638867993696925
20
57.149999999999999
30
0
10
-6.5014153900113349
20
57.123576528253174
30
0
10
-6.1325803947603186
20
56.992451782869402
30
0
10
-5.897565651412469
20
56.85565700234504
30
0
10
-5.3816259062375513
20
56.437218613442994
30
0
10
-5.1283126623717372
20
56.136559377475464
30
0
10
-4.8987881088311598
20
55.710112788359339
30
0
10
-4.8438417319677178
20
55.582467168102895
30
0
10
-4.7802565087376303
20
55.35463961003866
30
0
10
-4.7625000000000011
20
55.251439195142069
30
0
10
-4.7625000000000011
20
55.149999999999999
30
0
0
LINE
5
146
100
AcDbEntity
8
0
100
AcDbLine
10
-6.7625000000000002
20
57.149999999999999
30
0
11
-40.862499999999997
21
57.149999999999999
31
0
0
SPLINE
5
147
100
AcDbEntity
8
0
100
AcDbSpline
70
0
71
3
72
16
73
12
74
0
42
0.000000001
43
0.0000000001
44
0.0000000001
40
0
40
0
40
0
40
0
40
0.037089601890807615
40
0.037089601890807615
40
0.094171574106714284
40
0.094171574106714284
40
0.17015146945909704
40
0.17015146945909704
40
0.19959236783402945
40
0.19959236783402945
40
0.22180788848256375
40
0.22180788848256375
40
0.22180788848256375
40
0.22180788848256375
10
-42.862499999999997
20
59.149999999999999
30
0
10
-42.862499999999997
20
59.026367993697306
30
0
10
-42.836076528253344
20
58.888915390011796
30
0
10
-42.704951782869109
20
58.520080394759489
30
0
10
-42.568157002344364
20
58.285065651411649
30
0
10
-42.149718613442715
20
57.769125906237221
30
0
10
-41.849059377475143
20
57.515812662371573
30
0
10
-41.422612788359459
20
57.286288108831236
30
0
10
-41.294967168102943
20
57.231341731967724
30
0
10
-41.067139610038659
20
57.167756508737632
30
0
10
-40.963939195142068
20
57.149999999999999
30
0
10
-40.862499999999997
20
57.149999999999999
30
0
0
LINE
5
148
100
AcDbEntity
8
0
100
AcDbLine
10
-42.862499999999997
20
59.149999999999999
30
0
11
-42.862499999999997
21
74.199999999999989
31
0
0
SPLINE
5
149
100
AcDbEntity
8
0
100
AcDbSpline
70
0
71
3
72
16
73
12
74
0
42
0.000000001
43
0.0000000001
44
0.0000000001
40
0
40
0
40
0
40
0
40
0.037089601890316237
40
0.037089601890316237
40
0.094171574104514932
40
0.094171574104514932
40
0.17015146945436999
40
0.17015146945436999
40
0.19959236782834427
40
0.19959236782834427
40
0.22180788847617469
40
0.22180788847617469
40
0.22180788847617469
40
0.22180788847617469
10
-40.86249999999999
20
76.199999999999989
30
0
10
-40.986132006301041
20
76.199999999999989
30
0
10
-41.123584609986146
20
76.173576528254074
30
0
10
-41.492419605239832
20
76.042451782869364
30
0
10
-41.727434348587671
20
75.90565700234491
30
0
10
-42.243374093762483
20
75.487218613442977
30
0
10
-42.496687337628252
20
75.186559377475433
30
0
10
-42.726211891168816
20
74.760112788359407
30
0
10
-42.781158268032264
20
74.632467168102949
30
0
10
-42.844743491262378
20
74.404639610038629
30
0
10
-42.862499999999997
20
74.301439195142066
30
0
10
-42.862499999999997
20
74.199999999999989
30
0
0
LINE
5
150
100
AcDbEntity
8
0
100
AcDbLine
10
-40.86249999999999
20
76.199999999999989
30
0
11
-35.337500000000006
21
76.199999999999989
31
0
0
SPLINE
5
151
100
AcDbEntity
8
0
100
AcDbSpline
70
0
71
3
72
16
73
12
74
0
42
0.000000001
43
0.0000000001
44
0.0000000001
40
0
40
0
40
0
40
0
40
0.03708960189074275
40
0.03708960189074275
40
0.094171574106414163
40
0.094171574106414163
40
0.17015146945832821
40
0.17015146945832821
40
0.19959236783309967
40
0.19959236783309967
40
0.22180788848151531
40
0.22180788848151531
40
0.22180788848151531
40
0.22180788848151531
10
-33.337500000000006
20
78.199999999999989
30
0
10
-33.337500000000006
20
78.076367993697517
30
0
10
-33.36392347174656
20
77.938915390012056
30
0
10
-33.495048217130829
20
77.570080394759643
30
0
10
-33.631842997655504
20
77.33506565141181
30
0
10
-34.050281386556904
20
76.819125906237659
30
0
10
-34.350940622524398
20
76.565812662371812
30
0
10
-34.777387211640743
20
76.336288108831113
30
0
10
-34.905032831897131
20
76.281341731967714
30
0
10
-35.132860389961273
20
76.217756508737651
30
0
10
-35.236060804857907
20
76.199999999999989
30
0
10
-35.337500000000006
20
76.199999999999989
30
0
0
LINE
5
152
100
AcDbEntity
8
0
100
AcDbLine
10
-33.337500000000006
20
78.199999999999989
30
0
11
-33.337500000000006
21
93.250000000000014
31
0
0
CIRCLE
5
153
100
AcDbEntity
8
0
100
AcDbCircle
10
-47.625
20
9.5250000000000004
30
0
40
0.99999999999999645
210
0
220
-0
230
1
0
CIRCLE
5
154
100
AcDbEntity
8
0
100
AcDbCircle
10
-66.675000000000011
20
9.5250000000000021
30
0
40
0.99999999999999645
210
0
220
-0
230
1
0
CIRCLE
5
155
100
AcDbEntity
8
0
100
AcDbCircle
10
-202.40624999999997
20
28.575000000000003
30
0
40
1.0000000000000142
210
0
220
-0
230
1
0
CIRCLE
5
156
100
AcDbEntity
8
0
100
AcDbCircle
10
-176.21250000000001
20
28.574999999999999
30
0
40
0.99999999999997868
210
0
220
-0
230
1
0
CIRCLE
5
157
100
AcDbEntity
8
0
100
AcDbCircle
10
-202.40624999999997
20
47.625
30
0
40
1.0000000000000142
210
0
220
-0
230
1
0
CIRCLE
5
158
100
AcDbEntity
8
0
100
AcDbCircle
10
-157.16249999999999
20
28.574999999999999
30
0
40
0.99999999999999645
210
0
220
-0
230
1
0
CIRCLE
5
159
100
AcDbEntity
8
0
100
AcDbCircle
10
-161.92499999999998
20
47.625
30
0
40
1.0000000000000142
210
0
220
-0
230
1
0
CIRCLE
5
160
100
AcDbEntity
8
0
100
AcDbCircle
10
-97.631250000000009
20
47.625
30
0
40
0.99999999999999645
210
0
220
-0
230
1
0
CIRCLE
5
161
100
AcDbEntity
8
0
100
AcDbCircle
10
-100.0125
20
28.574999999999999
30
0
40
0.99999999999999645
210
0
220
-0
230
1
0
CIRCLE
5
162
100
AcDbEntity
8
0
100
AcDbCircle
10
-161.92499999999998
20
66.675000000000011
30
0
40
0.99999999999997868
210
0
220
-0
230
1
0
CIRCLE
5
163
100
AcDbEntity
8
0
100
AcDbCircle
10
-57.149999999999999
20
47.625
30
0
40
1.0000000000000053
210
0
220
-0
230
1
0
CIRCLE
5
164
100
AcDbEntity
8
0
100
AcDbCircle
10
-80.962500000000006
20
28.574999999999999
30
0
40
0.99999999999999645
210
0
220
-0
230
1
0
CIRCLE
5
165
100
AcDbEntity
8
0
100
AcDbCircle
10
-142.87499999999997
20
47.625
30
0
40
0.99999999999999645
210
0
220
-0
230
1
0
CIRCLE
5
166
100
AcDbEntity
8
0
100
AcDbCircle
10
-133.34999999999999
20
66.675000000000011
30
0
40
0.99999999999999645
210
0
220
-0
230
1
0
CIRCLE
5
167
100
AcDbEntity
8
0
100
AcDbCircle
10
-152.39999999999998
20
9.5250000000000021
30
0
40
0.99999999999999645
210
0
220
-0
230
1
0
CIRCLE
5
168
100
AcDbEntity
8
0
100
AcDbCircle
10
-45.243749999999999
20
85.724999999999994
30
0
40
0.99999999999999645
210
0
220
-0
230
1
0
CIRCLE
5
169
100
AcDbEntity
8
0
100
AcDbCircle
10
-145.25624999999999
20
85.724999999999994
30
0
40
0.99999999999999645
210
0
220
-0
230
1
0
CIRCLE
5
170
100
AcDbEntity
8
0
100
AcDbCircle
10
-180.97499999999997
20
47.625
30
0
40
1.0000000000000142
210
0
220
-0
230
1
0
CIRCLE
5
171
100
AcDbEntity
8
0
100
AcDbCircle
10
-171.44999999999999
20
9.5250000000000004
30
0
40
1.0000000000000142
210
0
220
-0
230
1
0
CIRCLE
5
172
100
AcDbEntity
8
0
100
AcDbCircle
10
-121.44374999999998
20
47.625
30
0
40
0.99999999999999645
210
0
220
-0
230
1
0
CIRCLE
5
173
100
AcDbEntity
8
0
100
AcDbCircle
10
-76.200000000000017
20
47.625
30
0
40
0.99999999999999645
210
0
220
-0
230
1
0
CIRCLE
5
174
100
AcDbEntity
8
0
100
AcDbCircle
10
-119.06249999999999
20
28.574999999999999
30
0
40
0.99999999999999645
210
0
220
-0
230
1
0
CIRCLE
5
175
100
AcDbEntity
8
0
100
AcDbCircle
10
-138.11249999999998
20
28.574999999999999
30
0
40
0.99999999999999645
210
0
220
-0
230
1
0
CIRCLE
5
176
100
AcDbEntity
8
0
100
AcDbCircle
10
-195.26249999999999
20
9.5249999999999986
30
0
40
1.0000000000000142
210
0
220
-0
230
1
0
CIRCLE
5
177
100
AcDbEntity
8
0
100
AcDbCircle
10
-73.818749999999994
20
85.724999999999994
30
0
40
0.99999999999999645
210
0
220
-0
230
1
0
CIRCLE
5
178
100
AcDbEntity
8
0
100
AcDbCircle
10
-85.724999999999994
20
66.675000000000011
30
0
40
0.99999999999999645
210
0
220
-0
230
1
0
CIRCLE
5
179
100
AcDbEntity
8
0
100
AcDbCircle
10
-57.149999999999999
20
66.675000000000011
30
0
40
0.99999999999999645
210
0
220
-0
230
1
0
CIRCLE
5
180
100
AcDbEntity
8
0
100
AcDbCircle
10
-173.83125000000001
20
85.724999999999994
30
0
40
1.0000000000000142
210
0
220
-0
230
1
0
CIRCLE
5
181
100
AcDbEntity
8
0
100
AcDbCircle
10
-16.668750000000003
20
28.575000000000003
30
0
40
0.99999999999999867
210
0
220
-0
230
1
0
CIRCLE
5
182
100
AcDbEntity
8
0
100
AcDbCircle
10
-23.8125
20
9.5249999999999986
30
0
40
1.0000000000000009
210
0
220
-0
230
1
0
CIRCLE
5
183
100
AcDbEntity
8
0
100
AcDbCircle
10
-42.862499999999997
20
28.574999999999999
30
0
40
0.99999999999999645
210
0
220
-0
230
1
0
CIRCLE
5
184
100
AcDbEntity
8
0
100
AcDbCircle
10
-38.100000000000001
20
47.625
30
0
40
1.0000000000000009
210
0
220
-0
230
1
0
CIRCLE
5
185
100
AcDbEntity
8
0
100
AcDbCircle
10
-16.668750000000003
20
47.625
30
0
40
1.0000000000000009
210
0
220
-0
230
1
0
CIRCLE
5
186
100
AcDbEntity
8
0
100
AcDbCircle
10
-61.912500000000001
20
28.574999999999999
30
0
40
0.99999999999999645
210
0
220
-0
230
1
0
SPLINE
5
187
100
AcDbEntity
8
0
100
AcDbSpline
70
0
71
3
72
16
73
12
74
0
42
0.000000001
43
0.0000000001
44
0.0000000001
40
0
40
0
40
0
40
0
40
0.037089601890464355
40
0.037089601890464355
40
0.094171574105313322
40
0.094171574105313322
40
0.17015146945629847
40
0.17015146945629847
40
0.19959236783073908
40
0.19959236783073908
40
0.22180788847887833
40
0.22180788847887833
40
0.22180788847887833
40
0.22180788847887833
10
-90.487499999999983
20
93.250000000000014
30
0
10
-90.487499999999983
20
93.373632006301563
30
0
10
-90.461076528253841
20
93.511084609986796
30
0
10
-90.329951782869074
20
93.879919605240616
30
0
10
-90.193157002344279
20
94.114934348588463
30
0
10
-89.774718613442829
20
94.630874093762642
30
0
10
-89.474059377475257
20
94.884187337628362
30
0
10
-89.047612788359217
20
95.113711891168919
30
0
10
-88.919967168102858
20
95.168658268032274
30
0
10
-88.692139610038822
20
95.232243491262309
30
0
10
-88.588939195142132
20
95.25
30
0
10
-88.487499999999983
20
95.25
30
0
0
LINE
5
188
100
AcDbEntity
8
0
100
AcDbLine
10
-90.487499999999983
20
93.250000000000014
30
0
11
-90.487499999999983
21
92.775000000000006
31
0
0
LINE
5
189
100
AcDbEntity
8
0
100
AcDbLine
10
-92.487499999999983
20
90.775000000000006
30
0
11
-126.58750000000001
21
90.775000000000006
31
0
0
LINE
5
190
100
AcDbEntity
8
0
100
AcDbLine
10
-128.58750000000001
20
92.775000000000006
30
0
11
-128.58750000000001
21
93.250000000000014
31
0
0
SPLINE
5
191
100
AcDbEntity
8
0
100
AcDbSpline
70
0
71
3
72
16
73
12
74
0
42
0.000000001
43
0.0000000001
44
0.0000000001
40
0
40
0
40
0
40
0
40
0.037089601891223054
40
0.037089601891223054
40
0.094171574108262351
40
0.094171574108262351
40
0.17015146946180248
40
0.17015146946180248
40
0.19959236783711412
40
0.19959236783711412
40
0.22180788848596156
40
0.22180788848596156
40
0.22180788848596156
40
0.22180788848596156
10
-130.58750000000001
20
95.25
30
0
10
-130.46386799369594
20
95.25
30
0
10
-130.32641539001011
20
95.223576528252721
30
0
10
-129.9575803947603
20
95.092451782869389
30
0
10
-129.72256565141245
20
94.955657002345006
30
0
10
-129.20662590623772
20
94.53721861344313
30
0
10
-128.95331266237187
20
94.236559377475658
30
0
10
-128.72378810883137
20
93.810112788359703
30
0
10
-128.66884173196777
20
93.682467168103059
30
0
10
-128.60525650873757
20
93.454639610038555
30
0
10
-128.58750000000001
20
93.351439195142063
30
0
10
-128.58750000000001
20
93.250000000000014
30
0
0
LINE
5
192
100
AcDbEntity
8
0
100
AcDbLine
10
-130.58750000000001
20
95.25
30
0
11
-183.73749999999998
21
95.25
31
0
0
SPLINE
5
193
100
AcDbEntity
8
0
100
AcDbSpline
70
0
71
3
72
16
73
12
74
0
42
0.000000001
43
0.0000000001
44
0.0000000001
40
0
40
0
40
0
40
0
40
0.037089601889778584
40
0.037089601889778584
40
0.094171574102468791
40
0.094171574102468791
40
0.17015146945063259
40
0.17015146945063259
40
0.19959236782398165
40
0.19959236782398165
40
0.2218078884713286
40
0.2218078884713286
40
0.2218078884713286
40
0.2218078884713286
10
-185.73749999999995
20
93.250000000000014
30
0
10
-185.73749999999995
20
93.37363200629926
30
0
10
-185.71107652825486
20
93.511084609983925
30
0
10
-185.57995178286905
20
93.879919605240644
30
0
10
-185.44315700234421
20
94.114934348588534
30
0
10
-185.02471861344253
20
94.630874093762941
30
0
10
-184.72405937747493
20
94.884187337628546
30
0
10
-184.29761278835923
20
95.11371189116889
30
0
10
-184.16996716810277
20
95.168658268032317
30
0
10
-183.94213961003859
20
95.232243491262381
30
0
10
-183.83893919514205
20
95.25
30
0
10
-183.73749999999998
20
95.25
30
0
0
SPLINE
5
194
100
AcDbEntity
8
0
100
AcDbSpline
70
0
71
3
72
16
73
12
74
0
42
0.000000001
43
0.0000000001
44
0.0000000001
40
0
40
0
40
0
40
0
40
0.037089601890067971
40
0.037089601890067971
40
0.094171574103731365
40
0.094171574103731365
40
0.17015146945326445
40
0.17015146945326445
40
0.19959236782715414
40
0.19959236782715414
40
0.22180788847492078
40
0.22180788847492078
40
0.22180788847492078
40
0.22180788847492078
10
-92.487499999999983
20
90.775000000000006
30
0
10
-92.363867993699742
20
90.775000000000006
30
0
10
-92.226415390014836
20
90.801423471745565
30
0
10
-91.85758039475914
20
90.932548217131
30
0
10
-91.622565651411293
20
91.069342997655909
30
0
10
-91.106625906237198
20
91.487781386557273
30
0
10
-90.85331266237155
20
91.788440622524874
30
0
10
-90.623788108831064
20
92.214887211640772
30
0
10
-90.568841731967694
20
92.342532831897159
30
0
10
-90.505256508737602
20
92.570360389961365
30
0
10
-90.487499999999983
20
92.673560804857942
30
0
10
-90.487499999999983
20
92.775000000000006
30
0
0
SPLINE
5
195
100
AcDbEntity
8
0
100
AcDbSpline
70
0
71
3
72
16
73
12
74
0
42
0.000000001
43
0.0000000001
44
0.0000000001
40
0
40
0
40
0
40
0
40
0.03708960188979471
40
0.03708960188979471
40
0.094171574102725975
40
0.094171574102725975
40
0.17015146945142456
40
0.17015146945142456
40
0.19959236782493656
40
0.19959236782493656
40
0.2218078884724049
40
0.2218078884724049
40
0.2218078884724049
40
0.2218078884724049
10
-128.58750000000001
20
92.775000000000006
30
0
10
-128.58750000000001
20
92.651367993700688
30
0
10
-128.56107652825489
20
92.513915390015995
30
0
10
-128.42995178286887
20
92.145080394758679
30
0
10
-128.29315700234372
20
91.910065651410832
30
0
10
-127.87471861344287
20
91.394125906237363
30
0
10
-127.57405937747529
20
91.140812662371658
30
0
10
-127.14761278835948
20
90.911288108831229
30
0
10
-127.01996716810297
20
90.856341731967731
30
0
10
-126.79213961003866
20
90.792756508737625
30
0
10
-126.68893919514207
20
90.775000000000006
30
0
10
-126.58750000000001
20
90.775000000000006
30
0
0
ENDSEC
0
SECTION
2
OBJECTS
0
DICTIONARY
5
C
100
AcDbDictionary
3
ACAD_GROUP
350
D
3
ACAD_MLINESTYLE
350
17
0
DICTIONARY
5
D
100
AcDbDictionary
0
DICTIONARY
5
1A
330
C
100
AcDbDictionary
0
DICTIONARY
5
17
100
AcDbDictionary
0
ENDSEC
0
EOF
