M48
; DRILL file {KiCad (6.0.11-0)} date 2023 July 13, Thursday 15:03:25
; FORMAT={-:-/ absolute / metric / decimal}
; #@! TF.CreationDate,2023-07-13T15:03:25+09:00
; #@! TF.GenerationSoftware,Kicad,Pcbnew,(6.0.11-0)
; #@! TF.FileFunction,Plated,1,2,PTH
FMAT,2
METRIC
; #@! TA.AperFunction,Plated,PTH,ViaDrill
T1C0.400
; #@! TA.AperFunction,Plated,PTH,ComponentDrill
T2C0.600
; #@! TA.AperFunction,Plated,PTH,ComponentDrill
T3C1.400
; #@! TA.AperFunction,Plated,PTH,ComponentDrill
T4C1.470
%
G90
G05
T1
X66.88Y-75.78
X68.99Y-75.84
X69.4Y-77.14
X75.55Y-77.14
X75.98Y-75.9
X76.4Y-107.75
X87.0Y-101.375
X115.503Y-88.461
X116.5Y-88.525
X117.5Y-88.525
X117.95Y-74.8
X118.075Y-78.9
X118.364Y-98.298
X119.054Y-97.1
X119.639Y-89.665
X120.025Y-80.7
X120.9Y-81.225
X121.475Y-100.25
X121.75Y-75.45
X121.954Y-81.93
X122.95Y-75.7
X123.1Y-82.15
X123.444Y-83.82
X123.6Y-77.175
X124.45Y-78.05
X124.725Y-58.8
X124.775Y-39.75
X124.95Y-83.3
X125.1Y-86.9
X125.41Y-33.359
X126.14Y-38.74
X126.31Y-35.909
X126.985Y-45.79
X127.04Y-39.77
X127.2Y-77.1
X127.68Y-47.08
X128.94Y-46.45
X129.286Y-94.996
X131.149Y-87.116
X131.175Y-78.05
X131.192Y-39.75
X132.425Y-85.5
X132.842Y-95.25
X133.096Y-91.694
X134.366Y-87.884
X134.675Y-84.675
X134.878Y-89.92
X135.05Y-104.875
X135.85Y-89.4
X136.925Y-97.1
X137.09Y-87.23
X138.175Y-98.1
X139.379Y-88.521
X140.121Y-87.779
X141.25Y-96.251
X141.925Y-78.05
X142.7Y-97.1
X143.89Y-98.49
X147.828Y-99.314
X151.384Y-80.518
X192.37Y-76.93
X193.04Y-101.91
T3
X32.419Y-46.985
X32.419Y-52.705
X32.419Y-66.035
X32.419Y-71.755
X39.019Y-46.985
X39.019Y-52.705
X39.019Y-66.035
X39.019Y-71.755
X39.562Y-27.935
X39.562Y-33.655
X46.163Y-27.935
X46.163Y-33.655
X53.85Y-66.035
X53.85Y-71.755
X58.612Y-46.985
X58.612Y-52.705
X60.45Y-66.035
X60.45Y-71.755
X60.994Y-104.135
X60.994Y-109.855
X63.375Y-27.935
X63.375Y-33.655
X65.212Y-46.985
X65.212Y-52.705
X67.594Y-104.135
X67.594Y-109.855
X69.975Y-27.935
X69.975Y-33.655
X72.9Y-66.035
X72.9Y-71.755
X72.9Y-85.085
X72.9Y-90.805
X77.662Y-46.985
X77.662Y-52.705
X79.5Y-66.035
X79.5Y-71.755
X79.5Y-85.085
X79.5Y-90.805
X82.425Y-27.935
X82.425Y-33.655
X84.263Y-46.985
X84.263Y-52.705
X89.025Y-27.935
X89.025Y-33.655
X89.569Y-104.135
X89.569Y-109.855
X91.95Y-66.035
X91.95Y-71.755
X96.169Y-104.135
X96.169Y-109.855
X96.712Y-46.985
X96.712Y-52.705
X98.55Y-66.035
X98.55Y-71.755
X101.475Y-85.085
X101.475Y-90.805
X103.312Y-46.985
X103.312Y-52.705
X108.075Y-85.085
X108.075Y-90.805
X113.381Y-66.035
X113.381Y-71.755
X115.762Y-46.985
X115.762Y-52.705
X119.981Y-66.035
X119.981Y-71.755
X122.362Y-46.985
X122.362Y-52.705
X134.812Y-46.985
X134.812Y-52.705
X137.194Y-66.035
X137.194Y-71.755
X141.412Y-46.985
X141.412Y-52.705
X143.794Y-66.035
X143.794Y-71.755
X149.1Y-85.085
X149.1Y-90.805
X153.862Y-46.985
X153.862Y-52.705
X155.7Y-85.085
X155.7Y-90.805
X158.625Y-66.035
X158.625Y-71.755
X160.463Y-46.985
X160.463Y-52.705
X161.006Y-104.135
X161.006Y-109.855
X165.225Y-66.035
X165.225Y-71.755
X167.606Y-104.135
X167.606Y-109.855
X168.15Y-27.935
X168.15Y-33.655
X172.912Y-46.985
X172.912Y-52.705
X174.75Y-27.935
X174.75Y-33.655
X177.675Y-66.035
X177.675Y-71.755
X177.675Y-85.085
X177.675Y-90.805
X179.512Y-46.985
X179.512Y-52.705
X184.275Y-66.035
X184.275Y-71.755
X184.275Y-85.085
X184.275Y-90.805
X187.2Y-27.935
X187.2Y-33.655
X189.581Y-104.135
X189.581Y-109.855
X191.962Y-46.985
X191.962Y-52.705
X193.8Y-27.935
X193.8Y-33.655
X196.181Y-104.135
X196.181Y-109.855
X196.725Y-66.035
X196.725Y-71.755
X198.562Y-46.985
X198.562Y-52.705
X203.325Y-66.035
X203.325Y-71.755
X211.012Y-27.935
X211.012Y-33.655
X217.612Y-27.935
X217.612Y-33.655
X218.156Y-46.985
X218.156Y-52.705
X218.156Y-66.035
X218.156Y-71.755
X224.756Y-46.985
X224.756Y-52.705
X224.756Y-66.035
X224.756Y-71.755
T4
X31.909Y-45.085
X31.909Y-64.135
X38.259Y-42.545
X38.259Y-61.595
X39.052Y-26.035
X45.402Y-23.495
X53.34Y-64.135
X58.102Y-45.085
X59.69Y-61.595
X60.484Y-102.235
X62.865Y-26.035
X64.453Y-42.545
X66.834Y-99.695
X69.215Y-23.495
X72.39Y-64.135
X72.39Y-83.185
X77.153Y-45.085
X78.74Y-61.595
X78.74Y-80.645
X81.915Y-26.035
X83.502Y-42.545
X88.265Y-23.495
X89.059Y-102.235
X91.44Y-64.135
X95.409Y-99.695
X96.203Y-45.085
X97.79Y-61.595
X100.965Y-83.185
X102.552Y-42.545
X107.315Y-80.645
X112.871Y-64.135
X115.252Y-45.085
X119.221Y-61.595
X121.602Y-42.545
X134.302Y-45.085
X136.684Y-64.135
X140.653Y-42.545
X143.034Y-61.595
X148.59Y-83.185
X153.352Y-45.085
X154.94Y-80.645
X158.115Y-64.135
X159.702Y-42.545
X160.496Y-102.235
X164.465Y-61.595
X166.846Y-99.695
X167.64Y-26.035
X172.403Y-45.085
X173.99Y-23.495
X177.165Y-64.135
X177.165Y-83.185
X178.752Y-42.545
X183.515Y-61.595
X183.515Y-80.645
X186.69Y-26.035
X189.071Y-102.235
X191.452Y-45.085
X193.04Y-23.495
X195.421Y-99.695
X196.215Y-64.135
X197.802Y-42.545
X202.565Y-61.595
X210.502Y-26.035
X216.852Y-23.495
X217.646Y-45.085
X217.646Y-64.135
X223.996Y-42.545
X223.996Y-61.595
T2
X124.267Y-26.317G85X124.267Y-26.918
G05
X124.267Y-30.247G85X124.267Y-31.348
G05
X132.907Y-26.317G85X132.907Y-26.918
G05
X132.907Y-30.247G85X132.907Y-31.348
G05
T0
M30
