%TF.GenerationSoftware,KiCad,Pcbnew,(6.0.11-0)*%
%TF.CreationDate,2023-07-13T15:03:24+09:00*%
%TF.ProjectId,qfwfq,71667766-712e-46b6-9963-61645f706362,rev?*%
%TF.SameCoordinates,Original*%
%TF.FileFunction,Drillmap*%
%TF.FilePolarity,Positive*%
%FSLAX45Y45*%
G04 Gerber Fmt 4.5, Leading zero omitted, Abs format (unit mm)*
G04 Created by KiCad (PCBNEW (6.0.11-0)) date 2023-07-13 15:03:24*
%MOMM*%
%LPD*%
G01*
G04 APERTURE LIST*
%ADD10C,0.200000*%
%ADD11C,0.040000*%
%ADD12C,0.060000*%
%ADD13C,0.140000*%
%ADD14C,0.147000*%
G04 APERTURE END LIST*
D10*
X19534057Y-9378335D02*
X19542091Y-9397414D01*
X19552650Y-9416702D01*
X19563998Y-9433749D01*
X19573635Y-9446327D01*
X2540615Y-7624893D02*
X2521536Y-7616859D01*
X2502248Y-7606300D01*
X2485201Y-7594952D01*
X2472623Y-7585315D01*
X20474240Y-9707438D02*
X20478154Y-9727205D01*
X20478750Y-9737700D01*
X1996373Y-5680315D02*
X1980268Y-5666260D01*
X1965218Y-5651121D01*
X1951407Y-5635115D01*
X1939021Y-5618461D01*
X1928242Y-5601374D01*
X1925039Y-5595621D01*
X23642762Y-5723190D02*
X23622995Y-5727104D01*
X23612500Y-5727700D01*
X6186740Y-9367962D02*
X6190654Y-9348195D01*
X6191250Y-9337700D01*
X2657500Y-3822700D02*
X2678284Y-3820481D01*
X2698135Y-3814893D01*
X9520490Y-2087438D02*
X9524404Y-2107205D01*
X9525000Y-2117700D01*
X14923115Y-11434893D02*
X14904035Y-11426859D01*
X14884748Y-11416300D01*
X14867701Y-11404952D01*
X14855123Y-11395315D01*
X1905000Y-4022700D02*
X1907219Y-4001916D01*
X1912807Y-3982065D01*
X5243260Y-11272962D02*
X5239346Y-11253195D01*
X5238750Y-11242700D01*
X14716365Y-11086573D02*
X14702310Y-11070468D01*
X14687171Y-11055418D01*
X14671165Y-11041607D01*
X14654511Y-11029221D01*
X14637424Y-11018442D01*
X14631671Y-11015239D01*
X5438750Y-11442700D02*
X10753750Y-11442700D01*
X16192500Y-2117700D02*
X16192500Y-2670200D01*
X5238750Y-9737700D02*
X5238750Y-11242700D01*
X14783789Y-11310621D02*
X14774980Y-11292194D01*
X14768260Y-11272962D01*
X23356289Y-5859779D02*
X23347480Y-5878205D01*
X23340760Y-5897438D01*
X6099877Y-9490315D02*
X6115982Y-9476260D01*
X6131032Y-9461121D01*
X6144843Y-9445116D01*
X6157229Y-9428461D01*
X6168008Y-9411374D01*
X6171211Y-9405621D01*
X6021512Y-7637210D02*
X6001745Y-7633296D01*
X5991250Y-7632700D01*
X20478750Y-11242700D02*
X20478750Y-9737700D01*
X11045123Y-11042585D02*
X11029018Y-11056640D01*
X11013968Y-11071779D01*
X11000157Y-11087784D01*
X10987771Y-11104439D01*
X10976992Y-11121526D01*
X10973789Y-11127279D01*
X23495615Y-5735507D02*
X23476535Y-5743540D01*
X23457248Y-5754099D01*
X23440201Y-5765448D01*
X23427623Y-5775085D01*
X23680421Y-5707661D02*
X23661994Y-5716470D01*
X23642762Y-5723190D01*
X22660000Y-1917700D02*
X16392500Y-1917700D01*
X19726250Y-7632700D02*
X19705466Y-7634919D01*
X19685615Y-7640507D01*
X20278750Y-9537700D02*
X19726250Y-9537700D01*
X16172461Y-2738121D02*
X16181270Y-2719695D01*
X16187990Y-2700462D01*
X6171211Y-9405621D02*
X6180020Y-9387195D01*
X6186740Y-9367962D01*
X1905000Y-4022700D02*
X1905000Y-5527700D01*
X2373443Y-5887065D02*
X2365409Y-5867985D01*
X2354850Y-5848698D01*
X2343502Y-5831651D01*
X2333865Y-5819073D01*
X3027238Y-1922210D02*
X3047005Y-1918296D01*
X3057500Y-1917700D01*
X14594012Y-10999710D02*
X14574245Y-10995796D01*
X14563750Y-10995200D01*
X19526250Y-9337700D02*
X19526250Y-7832700D01*
X2766127Y-3775315D02*
X2782232Y-3761260D01*
X2797282Y-3746121D01*
X2811093Y-3730115D01*
X2823479Y-3713461D01*
X2834258Y-3696374D01*
X2837461Y-3690621D01*
X1912807Y-3982065D02*
X1920840Y-3962985D01*
X1931399Y-3943698D01*
X1942748Y-3926651D01*
X1952385Y-3914073D01*
X23336250Y-7432700D02*
X23334031Y-7453484D01*
X23328443Y-7473335D01*
X23029738Y-3818190D02*
X23049505Y-3822104D01*
X23060000Y-3822700D01*
X23427623Y-5775085D02*
X23411518Y-5789139D01*
X23396468Y-5804279D01*
X23382657Y-5820284D01*
X23370271Y-5836939D01*
X23359492Y-5854026D01*
X23356289Y-5859779D01*
X10945943Y-11283335D02*
X10937909Y-11302414D01*
X10927350Y-11321701D01*
X10916002Y-11338749D01*
X10906365Y-11351327D01*
X19726250Y-7632700D02*
X23136250Y-7632700D01*
X9365635Y-1925507D02*
X9384714Y-1933540D01*
X9404002Y-1944099D01*
X9421049Y-1955448D01*
X9433627Y-1965085D01*
X12358750Y-2570200D02*
X12358750Y-2670200D01*
X5991250Y-9537700D02*
X6012034Y-9535481D01*
X6031885Y-9529893D01*
X23807990Y-3992438D02*
X23811904Y-4012205D01*
X23812500Y-4022700D01*
X16192500Y-2117700D02*
X16194719Y-2096916D01*
X16200307Y-2077065D01*
X2037079Y-3842739D02*
X2055505Y-3833930D01*
X2074738Y-3827210D01*
X14963750Y-11442700D02*
X14942966Y-11440481D01*
X14923115Y-11434893D01*
X13358750Y-2670200D02*
X13358750Y-2570200D01*
X22855490Y-2087438D02*
X22859404Y-2107205D01*
X22860000Y-2117700D01*
X22992079Y-3802661D02*
X23010505Y-3811470D01*
X23029738Y-3818190D01*
X23328443Y-7473335D02*
X23320409Y-7492414D01*
X23309850Y-7511701D01*
X23298502Y-7528749D01*
X23288865Y-7541327D01*
X16362238Y-1922210D02*
X16382005Y-1918296D01*
X16392500Y-1917700D01*
X5238750Y-9737700D02*
X5240969Y-9716916D01*
X5246557Y-9697065D01*
X2211512Y-5732210D02*
X2191745Y-5728296D01*
X2181250Y-5727700D01*
X22867807Y-3663335D02*
X22875840Y-3682414D01*
X22886399Y-3701701D01*
X22897748Y-3718749D01*
X22907385Y-3731327D01*
X23204171Y-7612661D02*
X23185744Y-7621470D01*
X23166512Y-7628190D01*
X11153750Y-10995200D02*
X14563750Y-10995200D01*
X22907385Y-3731327D02*
X22921439Y-3747432D01*
X22936579Y-3762482D01*
X22952584Y-3776293D01*
X22969239Y-3788679D01*
X22986326Y-3799458D01*
X22992079Y-3802661D01*
X9525000Y-2670200D02*
X9525000Y-2117700D01*
X10821671Y-11422661D02*
X10803245Y-11431470D01*
X10784012Y-11438190D01*
X2904885Y-2009073D02*
X2918939Y-1992968D01*
X2934079Y-1977918D01*
X2950084Y-1964107D01*
X2966739Y-1951721D01*
X2983826Y-1940942D01*
X2989579Y-1937739D01*
X23536250Y-5727700D02*
X23515466Y-5729919D01*
X23495615Y-5735507D01*
X5246557Y-9697065D02*
X5254591Y-9677986D01*
X5265150Y-9658698D01*
X5276498Y-9641651D01*
X5286135Y-9629073D01*
X2989579Y-1937739D02*
X3008005Y-1928930D01*
X3027238Y-1922210D01*
X20346671Y-11422661D02*
X20328245Y-11431470D01*
X20309012Y-11438190D01*
X20309012Y-11438190D02*
X20289245Y-11442104D01*
X20278750Y-11442700D01*
X23765115Y-5636327D02*
X23751060Y-5652432D01*
X23735921Y-5667482D01*
X23719915Y-5681293D01*
X23703261Y-5693679D01*
X23686174Y-5704458D01*
X23680421Y-5707661D01*
X19617623Y-7680085D02*
X19601518Y-7694139D01*
X19586468Y-7709279D01*
X19572657Y-7725284D01*
X19560271Y-7741939D01*
X19549492Y-7759026D01*
X19546289Y-7764779D01*
X23792461Y-3954779D02*
X23801270Y-3973205D01*
X23807990Y-3992438D01*
X2064365Y-5719893D02*
X2045285Y-5711859D01*
X2025998Y-5701300D01*
X2008951Y-5689952D01*
X1996373Y-5680315D01*
X5286135Y-9629073D02*
X5300190Y-9612968D01*
X5315329Y-9597918D01*
X5331334Y-9584107D01*
X5347989Y-9571721D01*
X5365076Y-9560942D01*
X5370829Y-9557739D01*
X2385760Y-7462962D02*
X2381846Y-7443195D01*
X2381250Y-7432700D01*
X9325000Y-1917700D02*
X3057500Y-1917700D01*
X16200307Y-2077065D02*
X16208340Y-2057985D01*
X16218899Y-2038698D01*
X16230248Y-2021651D01*
X16239885Y-2009073D01*
X14768260Y-11272962D02*
X14764346Y-11253195D01*
X14763750Y-11242700D01*
X20470943Y-11283335D02*
X20462909Y-11302414D01*
X20452350Y-11321701D01*
X20441002Y-11338749D01*
X20431365Y-11351327D01*
X14855123Y-11395315D02*
X14839018Y-11381260D01*
X14823968Y-11366121D01*
X14810157Y-11350115D01*
X14797771Y-11333461D01*
X14786992Y-11316374D01*
X14783789Y-11310621D01*
X16033135Y-2862393D02*
X16052214Y-2854359D01*
X16071501Y-2843800D01*
X16088549Y-2832452D01*
X16101127Y-2822815D01*
X12158750Y-2870200D02*
X12179534Y-2867981D01*
X12199385Y-2862393D01*
X10784012Y-11438190D02*
X10764245Y-11442104D01*
X10753750Y-11442700D01*
X20458711Y-9669779D02*
X20467520Y-9688205D01*
X20474240Y-9707438D01*
X10906365Y-11351327D02*
X10892310Y-11367432D01*
X10877171Y-11382482D01*
X10861166Y-11396293D01*
X10844511Y-11408679D01*
X10827424Y-11419458D01*
X10821671Y-11422661D01*
X14755943Y-11154565D02*
X14747909Y-11135486D01*
X14737350Y-11116198D01*
X14726002Y-11099151D01*
X14716365Y-11086573D01*
X23721127Y-3870085D02*
X23737232Y-3884139D01*
X23752282Y-3899279D01*
X23766093Y-3915284D01*
X23778479Y-3931939D01*
X23789258Y-3949026D01*
X23792461Y-3954779D01*
X19573635Y-9446327D02*
X19587690Y-9462432D01*
X19602829Y-9477482D01*
X19618834Y-9491293D01*
X19635489Y-9503679D01*
X19652576Y-9514458D01*
X19658329Y-9517661D01*
X9433627Y-1965085D02*
X9449732Y-1979139D01*
X9464782Y-1994279D01*
X9478593Y-2010284D01*
X9490979Y-2026939D01*
X9501758Y-2044026D01*
X9504961Y-2049779D01*
X23653135Y-3830507D02*
X23672214Y-3838540D01*
X23691501Y-3849099D01*
X23708549Y-3860448D01*
X23721127Y-3870085D01*
X5398115Y-11434893D02*
X5379036Y-11426859D01*
X5359748Y-11416300D01*
X5342701Y-11404952D01*
X5330123Y-11395315D01*
X2472623Y-7585315D02*
X2456518Y-7571260D01*
X2441468Y-7556121D01*
X2427657Y-7540115D01*
X2415271Y-7523461D01*
X2404492Y-7506374D01*
X2401289Y-7500621D01*
X9532807Y-2710835D02*
X9540841Y-2729914D01*
X9551400Y-2749202D01*
X9562748Y-2766249D01*
X9572385Y-2778827D01*
X23536250Y-5727700D02*
X23612500Y-5727700D01*
X6191250Y-7832700D02*
X6189031Y-7811916D01*
X6183443Y-7792065D01*
X5330123Y-11395315D02*
X5314018Y-11381260D01*
X5298968Y-11366121D01*
X5285157Y-11350115D01*
X5272771Y-11333461D01*
X5261992Y-11316374D01*
X5258789Y-11310621D01*
X10953750Y-11242700D02*
X10951531Y-11263484D01*
X10945943Y-11283335D01*
X23612500Y-3822700D02*
X23060000Y-3822700D01*
X2857500Y-2117700D02*
X2857500Y-3622700D01*
X23340760Y-5897438D02*
X23336846Y-5917205D01*
X23336250Y-5927700D01*
X15992500Y-2870200D02*
X16013284Y-2867981D01*
X16033135Y-2862393D01*
X16324579Y-1937739D02*
X16343005Y-1928930D01*
X16362238Y-1922210D01*
X6183443Y-7792065D02*
X6175409Y-7772985D01*
X6164850Y-7753698D01*
X6153502Y-7736651D01*
X6143865Y-7724073D01*
X10953750Y-11242700D02*
X10953750Y-11195200D01*
X6191250Y-7832700D02*
X6191250Y-9337700D01*
X10973789Y-11127279D02*
X10964980Y-11145705D01*
X10958260Y-11164938D01*
X1952385Y-3914073D02*
X1966439Y-3897968D01*
X1981579Y-3882918D01*
X1997584Y-3869107D01*
X2014239Y-3856721D01*
X2031326Y-3845942D01*
X2037079Y-3842739D01*
X13406135Y-2778827D02*
X13420189Y-2794932D01*
X13435329Y-2809982D01*
X13451334Y-2823793D01*
X13467989Y-2836179D01*
X13485076Y-2846958D01*
X13490829Y-2850161D01*
X2381250Y-5927700D02*
X2381250Y-7432700D01*
X23804693Y-5568335D02*
X23796659Y-5587414D01*
X23786100Y-5606701D01*
X23774752Y-5623749D01*
X23765115Y-5636327D01*
X20278750Y-9537700D02*
X20299534Y-9539919D01*
X20319385Y-9545507D01*
X11113115Y-11003007D02*
X11094036Y-11011041D01*
X11074748Y-11021600D01*
X11057701Y-11032948D01*
X11045123Y-11042585D01*
X23336250Y-7432700D02*
X23336250Y-5927700D01*
X2333865Y-5819073D02*
X2319810Y-5802968D01*
X2304671Y-5787918D01*
X2288666Y-5774107D01*
X2272011Y-5761721D01*
X2254924Y-5750942D01*
X2249171Y-5747739D01*
X5370829Y-9557739D02*
X5389255Y-9548930D01*
X5408488Y-9542210D01*
X19530760Y-7802438D02*
X19526846Y-7822205D01*
X19526250Y-7832700D01*
X19526250Y-9337700D02*
X19528469Y-9358484D01*
X19534057Y-9378335D01*
X19658329Y-9517661D02*
X19676755Y-9526470D01*
X19695988Y-9533190D01*
X5408488Y-9542210D02*
X5428255Y-9538296D01*
X5438750Y-9537700D01*
X2657500Y-3822700D02*
X2105000Y-3822700D01*
X1925039Y-5595621D02*
X1916230Y-5577195D01*
X1909510Y-5557962D01*
X11153750Y-10995200D02*
X11132966Y-10997419D01*
X11113115Y-11003007D01*
X5438750Y-11442700D02*
X5417966Y-11440481D01*
X5398115Y-11434893D01*
X2381250Y-5927700D02*
X2379031Y-5906916D01*
X2373443Y-5887065D01*
X23166512Y-7628190D02*
X23146745Y-7632104D01*
X23136250Y-7632700D01*
X6143865Y-7724073D02*
X6129810Y-7707968D01*
X6114671Y-7692918D01*
X6098665Y-7679107D01*
X6082011Y-7666721D01*
X6064924Y-7655942D01*
X6059171Y-7652739D01*
X13358750Y-2570200D02*
X12358750Y-2570200D01*
X2105000Y-5727700D02*
X2084216Y-5725481D01*
X2064365Y-5719893D01*
X22768627Y-1965085D02*
X22784732Y-1979139D01*
X22799782Y-1994279D01*
X22813593Y-2010284D01*
X22825979Y-2026939D01*
X22836758Y-2044026D01*
X22839961Y-2049779D01*
X19685615Y-7640507D02*
X19666536Y-7648540D01*
X19647248Y-7659099D01*
X19630201Y-7670448D01*
X19617623Y-7680085D01*
X2074738Y-3827210D02*
X2094505Y-3823296D01*
X2105000Y-3822700D01*
X19695988Y-9533190D02*
X19715755Y-9537104D01*
X19726250Y-9537700D01*
X20319385Y-9545507D02*
X20338464Y-9553541D01*
X20357752Y-9564100D01*
X20374799Y-9575448D01*
X20387377Y-9585085D01*
X13528488Y-2865690D02*
X13548255Y-2869604D01*
X13558750Y-2870200D01*
X9657079Y-2850161D02*
X9675505Y-2858970D01*
X9694738Y-2865690D01*
X2698135Y-3814893D02*
X2717214Y-3806859D01*
X2736502Y-3796300D01*
X2753549Y-3784952D01*
X2766127Y-3775315D01*
X12199385Y-2862393D02*
X12218464Y-2854359D01*
X12237751Y-2843800D01*
X12254799Y-2832452D01*
X12267377Y-2822815D01*
X9694738Y-2865690D02*
X9714505Y-2869604D01*
X9725000Y-2870200D01*
X23812500Y-5527700D02*
X23810281Y-5548484D01*
X23804693Y-5568335D01*
X22700635Y-1925507D02*
X22719714Y-1933540D01*
X22739001Y-1944099D01*
X22756049Y-1955448D01*
X22768627Y-1965085D01*
X13490829Y-2850161D02*
X13509255Y-2858970D01*
X13528488Y-2865690D01*
X2857500Y-2117700D02*
X2859719Y-2096916D01*
X2865307Y-2077065D01*
X23288865Y-7541327D02*
X23274810Y-7557432D01*
X23259671Y-7572482D01*
X23243665Y-7586293D01*
X23227011Y-7598679D01*
X23209924Y-7609458D01*
X23204171Y-7612661D01*
X2865307Y-2077065D02*
X2873340Y-2057985D01*
X2883899Y-2038698D01*
X2895248Y-2021651D01*
X2904885Y-2009073D01*
X1909510Y-5557962D02*
X1905596Y-5538195D01*
X1905000Y-5527700D01*
X15992500Y-2870200D02*
X13558750Y-2870200D01*
X9525000Y-2670200D02*
X9527219Y-2690984D01*
X9532807Y-2710835D01*
X2249171Y-5747739D02*
X2230745Y-5738930D01*
X2211512Y-5732210D01*
X2852990Y-3652962D02*
X2856904Y-3633195D01*
X2857500Y-3622700D01*
X22860000Y-3622700D02*
X22860000Y-2117700D01*
X14763750Y-11195200D02*
X14761531Y-11174416D01*
X14755943Y-11154565D01*
X23812500Y-5527700D02*
X23812500Y-4022700D01*
X14631671Y-11015239D02*
X14613244Y-11006430D01*
X14594012Y-10999710D01*
X14963750Y-11442700D02*
X20278750Y-11442700D01*
X5258789Y-11310621D02*
X5249980Y-11292194D01*
X5243260Y-11272962D01*
X2837461Y-3690621D02*
X2846270Y-3672194D01*
X2852990Y-3652962D01*
X16101127Y-2822815D02*
X16117232Y-2808760D01*
X16132282Y-2793621D01*
X16146093Y-2777616D01*
X16158479Y-2760961D01*
X16169258Y-2743874D01*
X16172461Y-2738121D01*
X6031885Y-9529893D02*
X6050964Y-9521859D01*
X6070251Y-9511300D01*
X6087299Y-9499952D01*
X6099877Y-9490315D01*
X2105000Y-5727700D02*
X2181250Y-5727700D01*
X13366557Y-2710835D02*
X13374590Y-2729914D01*
X13385149Y-2749202D01*
X13396498Y-2766249D01*
X13406135Y-2778827D01*
X20387377Y-9585085D02*
X20403482Y-9599140D01*
X20418532Y-9614279D01*
X20432343Y-9630284D01*
X20444729Y-9646939D01*
X20455508Y-9664026D01*
X20458711Y-9669779D01*
X2581250Y-7632700D02*
X2560466Y-7630481D01*
X2540615Y-7624893D01*
X12158750Y-2870200D02*
X9725000Y-2870200D01*
X9325000Y-1917700D02*
X9345784Y-1919919D01*
X9365635Y-1925507D01*
X10958260Y-11164938D02*
X10954346Y-11184705D01*
X10953750Y-11195200D01*
X5991250Y-9537700D02*
X5438750Y-9537700D01*
X9504961Y-2049779D02*
X9513770Y-2068205D01*
X9520490Y-2087438D01*
X14763750Y-11195200D02*
X14763750Y-11242700D01*
X16239885Y-2009073D02*
X16253939Y-1992968D01*
X16269079Y-1977918D01*
X16285084Y-1964107D01*
X16301739Y-1951721D01*
X16318826Y-1940942D01*
X16324579Y-1937739D01*
X12338711Y-2738121D02*
X12347520Y-2719695D01*
X12354240Y-2700462D01*
X9572385Y-2778827D02*
X9586440Y-2794932D01*
X9601579Y-2809982D01*
X9617584Y-2823793D01*
X9634239Y-2836179D01*
X9651326Y-2846958D01*
X9657079Y-2850161D01*
X19546289Y-7764779D02*
X19537480Y-7783205D01*
X19530760Y-7802438D01*
X13358750Y-2670200D02*
X13360969Y-2690984D01*
X13366557Y-2710835D01*
X2401289Y-7500621D02*
X2392480Y-7482194D01*
X2385760Y-7462962D01*
X22860000Y-3622700D02*
X22862219Y-3643484D01*
X22867807Y-3663335D01*
X20478750Y-11242700D02*
X20476531Y-11263484D01*
X20470943Y-11283335D01*
X16187990Y-2700462D02*
X16191904Y-2680695D01*
X16192500Y-2670200D01*
X20431365Y-11351327D02*
X20417310Y-11367432D01*
X20402171Y-11382482D01*
X20386166Y-11396293D01*
X20369511Y-11408679D01*
X20352424Y-11419458D01*
X20346671Y-11422661D01*
X22839961Y-2049779D02*
X22848770Y-2068205D01*
X22855490Y-2087438D01*
X12267377Y-2822815D02*
X12283482Y-2808760D01*
X12298532Y-2793621D01*
X12312343Y-2777616D01*
X12324729Y-2760961D01*
X12335508Y-2743874D01*
X12338711Y-2738121D01*
X22660000Y-1917700D02*
X22680784Y-1919919D01*
X22700635Y-1925507D01*
X2581250Y-7632700D02*
X5991250Y-7632700D01*
X12354240Y-2700462D02*
X12358154Y-2680695D01*
X12358750Y-2670200D01*
X23612500Y-3822700D02*
X23633284Y-3824919D01*
X23653135Y-3830507D01*
X6059171Y-7652739D02*
X6040744Y-7643930D01*
X6021512Y-7637210D01*
D11*
X6668000Y-7558000D02*
X6708000Y-7598000D01*
X6708000Y-7558000D02*
X6668000Y-7598000D01*
X6879000Y-7564000D02*
X6919000Y-7604000D01*
X6919000Y-7564000D02*
X6879000Y-7604000D01*
X6920000Y-7694000D02*
X6960000Y-7734000D01*
X6960000Y-7694000D02*
X6920000Y-7734000D01*
X7535000Y-7694000D02*
X7575000Y-7734000D01*
X7575000Y-7694000D02*
X7535000Y-7734000D01*
X7578000Y-7570000D02*
X7618000Y-7610000D01*
X7618000Y-7570000D02*
X7578000Y-7610000D01*
X7620000Y-10755000D02*
X7660000Y-10795000D01*
X7660000Y-10755000D02*
X7620000Y-10795000D01*
X8680000Y-10117500D02*
X8720000Y-10157500D01*
X8720000Y-10117500D02*
X8680000Y-10157500D01*
X11530307Y-8826069D02*
X11570307Y-8866069D01*
X11570307Y-8826069D02*
X11530307Y-8866069D01*
X11630050Y-8832500D02*
X11670050Y-8872500D01*
X11670050Y-8832500D02*
X11630050Y-8872500D01*
X11730000Y-8832500D02*
X11770000Y-8872500D01*
X11770000Y-8832500D02*
X11730000Y-8872500D01*
X11775000Y-7460001D02*
X11815000Y-7500001D01*
X11815000Y-7460001D02*
X11775000Y-7500001D01*
X11787500Y-7869950D02*
X11827500Y-7909950D01*
X11827500Y-7869950D02*
X11787500Y-7909950D01*
X11816400Y-9809800D02*
X11856400Y-9849800D01*
X11856400Y-9809800D02*
X11816400Y-9849800D01*
X11885400Y-9690000D02*
X11925400Y-9730000D01*
X11925400Y-9690000D02*
X11885400Y-9730000D01*
X11943930Y-8946541D02*
X11983930Y-8986541D01*
X11983930Y-8946541D02*
X11943930Y-8986541D01*
X11982500Y-8050000D02*
X12022500Y-8090000D01*
X12022500Y-8050000D02*
X11982500Y-8090000D01*
X12070050Y-8102500D02*
X12110050Y-8142500D01*
X12110050Y-8102500D02*
X12070050Y-8142500D01*
X12127500Y-10005000D02*
X12167500Y-10045000D01*
X12167500Y-10005000D02*
X12127500Y-10045000D01*
X12155000Y-7525000D02*
X12195000Y-7565000D01*
X12195000Y-7525000D02*
X12155000Y-7565000D01*
X12175424Y-8172959D02*
X12215424Y-8212959D01*
X12215424Y-8172959D02*
X12175424Y-8212959D01*
X12275000Y-7550000D02*
X12315000Y-7590000D01*
X12315000Y-7550000D02*
X12275000Y-7590000D01*
X12290000Y-8195000D02*
X12330000Y-8235000D01*
X12330000Y-8195000D02*
X12290000Y-8235000D01*
X12324400Y-8362000D02*
X12364400Y-8402000D01*
X12364400Y-8362000D02*
X12324400Y-8402000D01*
X12340000Y-7697500D02*
X12380000Y-7737500D01*
X12380000Y-7697500D02*
X12340000Y-7737500D01*
X12425000Y-7785000D02*
X12465000Y-7825000D01*
X12465000Y-7785000D02*
X12425000Y-7825000D01*
X12452500Y-5860000D02*
X12492500Y-5900000D01*
X12492500Y-5860000D02*
X12452500Y-5900000D01*
X12457500Y-3955000D02*
X12497500Y-3995000D01*
X12497500Y-3955000D02*
X12457500Y-3995000D01*
X12475000Y-8310000D02*
X12515000Y-8350000D01*
X12515000Y-8310000D02*
X12475000Y-8350000D01*
X12490000Y-8670000D02*
X12530000Y-8710000D01*
X12530000Y-8670000D02*
X12490000Y-8710000D01*
X12521000Y-3315923D02*
X12561000Y-3355923D01*
X12561000Y-3315923D02*
X12521000Y-3355923D01*
X12594000Y-3854000D02*
X12634000Y-3894000D01*
X12634000Y-3854000D02*
X12594000Y-3894000D01*
X12611000Y-3570923D02*
X12651000Y-3610923D01*
X12651000Y-3570923D02*
X12611000Y-3610923D01*
X12678550Y-4559000D02*
X12718550Y-4599000D01*
X12718550Y-4559000D02*
X12678550Y-4599000D01*
X12684000Y-3957000D02*
X12724000Y-3997000D01*
X12724000Y-3957000D02*
X12684000Y-3997000D01*
X12700000Y-7690000D02*
X12740000Y-7730000D01*
X12740000Y-7690000D02*
X12700000Y-7730000D01*
X12748000Y-4688000D02*
X12788000Y-4728000D01*
X12788000Y-4688000D02*
X12748000Y-4728000D01*
X12874000Y-4625000D02*
X12914000Y-4665000D01*
X12914000Y-4625000D02*
X12874000Y-4665000D01*
X12908600Y-9479600D02*
X12948600Y-9519600D01*
X12948600Y-9479600D02*
X12908600Y-9519600D01*
X13094950Y-8691631D02*
X13134950Y-8731631D01*
X13134950Y-8691631D02*
X13094950Y-8731631D01*
X13097500Y-7785000D02*
X13137500Y-7825000D01*
X13137500Y-7785000D02*
X13097500Y-7825000D01*
X13099200Y-3955000D02*
X13139200Y-3995000D01*
X13139200Y-3955000D02*
X13099200Y-3995000D01*
X13222500Y-8530000D02*
X13262500Y-8570000D01*
X13262500Y-8530000D02*
X13222500Y-8570000D01*
X13264200Y-9505000D02*
X13304200Y-9545000D01*
X13304200Y-9505000D02*
X13264200Y-9545000D01*
X13289600Y-9149400D02*
X13329600Y-9189400D01*
X13329600Y-9149400D02*
X13289600Y-9189400D01*
X13416600Y-8768400D02*
X13456600Y-8808400D01*
X13456600Y-8768400D02*
X13416600Y-8808400D01*
X13447500Y-8447500D02*
X13487500Y-8487500D01*
X13487500Y-8447500D02*
X13447500Y-8487500D01*
X13467830Y-8972030D02*
X13507830Y-9012030D01*
X13507830Y-8972030D02*
X13467830Y-9012030D01*
X13485000Y-10467500D02*
X13525000Y-10507500D01*
X13525000Y-10467500D02*
X13485000Y-10507500D01*
X13565000Y-8920000D02*
X13605000Y-8960000D01*
X13605000Y-8920000D02*
X13565000Y-8960000D01*
X13672500Y-9690000D02*
X13712500Y-9730000D01*
X13712500Y-9690000D02*
X13672500Y-9730000D01*
X13689000Y-8703000D02*
X13729000Y-8743000D01*
X13729000Y-8703000D02*
X13689000Y-8743000D01*
X13797500Y-9790000D02*
X13837500Y-9830000D01*
X13837500Y-9790000D02*
X13797500Y-9830000D01*
X13917877Y-8832123D02*
X13957877Y-8872123D01*
X13957877Y-8832123D02*
X13917877Y-8872123D01*
X13992123Y-8757877D02*
X14032123Y-8797877D01*
X14032123Y-8757877D02*
X13992123Y-8797877D01*
X14105000Y-9605050D02*
X14145000Y-9645050D01*
X14145000Y-9605050D02*
X14105000Y-9645050D01*
X14172500Y-7785000D02*
X14212500Y-7825000D01*
X14212500Y-7785000D02*
X14172500Y-7825000D01*
X14250000Y-9690000D02*
X14290000Y-9730000D01*
X14290000Y-9690000D02*
X14250000Y-9730000D01*
X14369000Y-9829000D02*
X14409000Y-9869000D01*
X14409000Y-9829000D02*
X14369000Y-9869000D01*
X14762800Y-9911400D02*
X14802800Y-9951400D01*
X14802800Y-9911400D02*
X14762800Y-9951400D01*
X15118400Y-8031800D02*
X15158400Y-8071800D01*
X15158400Y-8031800D02*
X15118400Y-8071800D01*
X19217000Y-7673000D02*
X19257000Y-7713000D01*
X19257000Y-7673000D02*
X19217000Y-7713000D01*
X19284000Y-10171000D02*
X19324000Y-10211000D01*
X19324000Y-10171000D02*
X19284000Y-10211000D01*
D12*
X12456750Y-2661750D02*
G75*
G03*
X12456750Y-2661750I-30000J0D01*
G01*
D10*
X12396750Y-2631750D02*
X12396750Y-2691750D01*
X12456750Y-2631750D02*
X12456750Y-2691750D01*
X12396750Y-2691750D02*
G75*
G03*
X12456750Y-2691750I30000J0D01*
G01*
X12456750Y-2631750D02*
G75*
G03*
X12396750Y-2631750I-30000J0D01*
G01*
D12*
X12456750Y-3079750D02*
G75*
G03*
X12456750Y-3079750I-30000J0D01*
G01*
D10*
X12396750Y-3024750D02*
X12396750Y-3134750D01*
X12456750Y-3024750D02*
X12456750Y-3134750D01*
X12396750Y-3134750D02*
G75*
G03*
X12456750Y-3134750I30000J0D01*
G01*
X12456750Y-3024750D02*
G75*
G03*
X12396750Y-3024750I-30000J0D01*
G01*
D12*
X13320750Y-2661750D02*
G75*
G03*
X13320750Y-2661750I-30000J0D01*
G01*
D10*
X13260750Y-2631750D02*
X13260750Y-2691750D01*
X13320750Y-2631750D02*
X13320750Y-2691750D01*
X13260750Y-2691750D02*
G75*
G03*
X13320750Y-2691750I30000J0D01*
G01*
X13320750Y-2631750D02*
G75*
G03*
X13260750Y-2631750I-30000J0D01*
G01*
D12*
X13320750Y-3079750D02*
G75*
G03*
X13320750Y-3079750I-30000J0D01*
G01*
D10*
X13260750Y-3024750D02*
X13260750Y-3134750D01*
X13320750Y-3024750D02*
X13320750Y-3134750D01*
X13260750Y-3134750D02*
G75*
G03*
X13320750Y-3134750I30000J0D01*
G01*
X13320750Y-3024750D02*
G75*
G03*
X13260750Y-3024750I-30000J0D01*
G01*
D13*
X3241875Y-4628500D02*
X3241875Y-4768500D01*
X3171875Y-4698500D02*
X3311875Y-4698500D01*
X3241875Y-5200500D02*
X3241875Y-5340500D01*
X3171875Y-5270500D02*
X3311875Y-5270500D01*
X3241875Y-6533500D02*
X3241875Y-6673500D01*
X3171875Y-6603500D02*
X3311875Y-6603500D01*
X3241875Y-7105500D02*
X3241875Y-7245500D01*
X3171875Y-7175500D02*
X3311875Y-7175500D01*
X3901875Y-4628500D02*
X3901875Y-4768500D01*
X3831875Y-4698500D02*
X3971875Y-4698500D01*
X3901875Y-5200500D02*
X3901875Y-5340500D01*
X3831875Y-5270500D02*
X3971875Y-5270500D01*
X3901875Y-6533500D02*
X3901875Y-6673500D01*
X3831875Y-6603500D02*
X3971875Y-6603500D01*
X3901875Y-7105500D02*
X3901875Y-7245500D01*
X3831875Y-7175500D02*
X3971875Y-7175500D01*
X3956250Y-2723500D02*
X3956250Y-2863500D01*
X3886250Y-2793500D02*
X4026250Y-2793500D01*
X3956250Y-3295500D02*
X3956250Y-3435500D01*
X3886250Y-3365500D02*
X4026250Y-3365500D01*
X4616250Y-2723500D02*
X4616250Y-2863500D01*
X4546250Y-2793500D02*
X4686250Y-2793500D01*
X4616250Y-3295500D02*
X4616250Y-3435500D01*
X4546250Y-3365500D02*
X4686250Y-3365500D01*
X5385000Y-6533500D02*
X5385000Y-6673500D01*
X5315000Y-6603500D02*
X5455000Y-6603500D01*
X5385000Y-7105500D02*
X5385000Y-7245500D01*
X5315000Y-7175500D02*
X5455000Y-7175500D01*
X5861250Y-4628500D02*
X5861250Y-4768500D01*
X5791250Y-4698500D02*
X5931250Y-4698500D01*
X5861250Y-5200500D02*
X5861250Y-5340500D01*
X5791250Y-5270500D02*
X5931250Y-5270500D01*
X6045000Y-6533500D02*
X6045000Y-6673500D01*
X5975000Y-6603500D02*
X6115000Y-6603500D01*
X6045000Y-7105500D02*
X6045000Y-7245500D01*
X5975000Y-7175500D02*
X6115000Y-7175500D01*
X6099400Y-10343500D02*
X6099400Y-10483500D01*
X6029400Y-10413500D02*
X6169400Y-10413500D01*
X6099400Y-10915500D02*
X6099400Y-11055500D01*
X6029400Y-10985500D02*
X6169400Y-10985500D01*
X6337500Y-2723500D02*
X6337500Y-2863500D01*
X6267500Y-2793500D02*
X6407500Y-2793500D01*
X6337500Y-3295500D02*
X6337500Y-3435500D01*
X6267500Y-3365500D02*
X6407500Y-3365500D01*
X6521250Y-4628500D02*
X6521250Y-4768500D01*
X6451250Y-4698500D02*
X6591250Y-4698500D01*
X6521250Y-5200500D02*
X6521250Y-5340500D01*
X6451250Y-5270500D02*
X6591250Y-5270500D01*
X6759400Y-10343500D02*
X6759400Y-10483500D01*
X6689400Y-10413500D02*
X6829400Y-10413500D01*
X6759400Y-10915500D02*
X6759400Y-11055500D01*
X6689400Y-10985500D02*
X6829400Y-10985500D01*
X6997500Y-2723500D02*
X6997500Y-2863500D01*
X6927500Y-2793500D02*
X7067500Y-2793500D01*
X6997500Y-3295500D02*
X6997500Y-3435500D01*
X6927500Y-3365500D02*
X7067500Y-3365500D01*
X7290000Y-6533500D02*
X7290000Y-6673500D01*
X7220000Y-6603500D02*
X7360000Y-6603500D01*
X7290000Y-7105500D02*
X7290000Y-7245500D01*
X7220000Y-7175500D02*
X7360000Y-7175500D01*
X7290000Y-8438500D02*
X7290000Y-8578500D01*
X7220000Y-8508500D02*
X7360000Y-8508500D01*
X7290000Y-9010500D02*
X7290000Y-9150500D01*
X7220000Y-9080500D02*
X7360000Y-9080500D01*
X7766250Y-4628500D02*
X7766250Y-4768500D01*
X7696250Y-4698500D02*
X7836250Y-4698500D01*
X7766250Y-5200500D02*
X7766250Y-5340500D01*
X7696250Y-5270500D02*
X7836250Y-5270500D01*
X7950000Y-6533500D02*
X7950000Y-6673500D01*
X7880000Y-6603500D02*
X8020000Y-6603500D01*
X7950000Y-7105500D02*
X7950000Y-7245500D01*
X7880000Y-7175500D02*
X8020000Y-7175500D01*
X7950000Y-8438500D02*
X7950000Y-8578500D01*
X7880000Y-8508500D02*
X8020000Y-8508500D01*
X7950000Y-9010500D02*
X7950000Y-9150500D01*
X7880000Y-9080500D02*
X8020000Y-9080500D01*
X8242500Y-2723500D02*
X8242500Y-2863500D01*
X8172500Y-2793500D02*
X8312500Y-2793500D01*
X8242500Y-3295500D02*
X8242500Y-3435500D01*
X8172500Y-3365500D02*
X8312500Y-3365500D01*
X8426250Y-4628500D02*
X8426250Y-4768500D01*
X8356250Y-4698500D02*
X8496250Y-4698500D01*
X8426250Y-5200500D02*
X8426250Y-5340500D01*
X8356250Y-5270500D02*
X8496250Y-5270500D01*
X8902500Y-2723500D02*
X8902500Y-2863500D01*
X8832500Y-2793500D02*
X8972500Y-2793500D01*
X8902500Y-3295500D02*
X8902500Y-3435500D01*
X8832500Y-3365500D02*
X8972500Y-3365500D01*
X8956900Y-10343500D02*
X8956900Y-10483500D01*
X8886900Y-10413500D02*
X9026900Y-10413500D01*
X8956900Y-10915500D02*
X8956900Y-11055500D01*
X8886900Y-10985500D02*
X9026900Y-10985500D01*
X9195000Y-6533500D02*
X9195000Y-6673500D01*
X9125000Y-6603500D02*
X9265000Y-6603500D01*
X9195000Y-7105500D02*
X9195000Y-7245500D01*
X9125000Y-7175500D02*
X9265000Y-7175500D01*
X9616900Y-10343500D02*
X9616900Y-10483500D01*
X9546900Y-10413500D02*
X9686900Y-10413500D01*
X9616900Y-10915500D02*
X9616900Y-11055500D01*
X9546900Y-10985500D02*
X9686900Y-10985500D01*
X9671250Y-4628500D02*
X9671250Y-4768500D01*
X9601250Y-4698500D02*
X9741250Y-4698500D01*
X9671250Y-5200500D02*
X9671250Y-5340500D01*
X9601250Y-5270500D02*
X9741250Y-5270500D01*
X9855000Y-6533500D02*
X9855000Y-6673500D01*
X9785000Y-6603500D02*
X9925000Y-6603500D01*
X9855000Y-7105500D02*
X9855000Y-7245500D01*
X9785000Y-7175500D02*
X9925000Y-7175500D01*
X10147500Y-8438500D02*
X10147500Y-8578500D01*
X10077500Y-8508500D02*
X10217500Y-8508500D01*
X10147500Y-9010500D02*
X10147500Y-9150500D01*
X10077500Y-9080500D02*
X10217500Y-9080500D01*
X10331250Y-4628500D02*
X10331250Y-4768500D01*
X10261250Y-4698500D02*
X10401250Y-4698500D01*
X10331250Y-5200500D02*
X10331250Y-5340500D01*
X10261250Y-5270500D02*
X10401250Y-5270500D01*
X10807500Y-8438500D02*
X10807500Y-8578500D01*
X10737500Y-8508500D02*
X10877500Y-8508500D01*
X10807500Y-9010500D02*
X10807500Y-9150500D01*
X10737500Y-9080500D02*
X10877500Y-9080500D01*
X11338125Y-6533500D02*
X11338125Y-6673500D01*
X11268125Y-6603500D02*
X11408125Y-6603500D01*
X11338125Y-7105500D02*
X11338125Y-7245500D01*
X11268125Y-7175500D02*
X11408125Y-7175500D01*
X11576250Y-4628500D02*
X11576250Y-4768500D01*
X11506250Y-4698500D02*
X11646250Y-4698500D01*
X11576250Y-5200500D02*
X11576250Y-5340500D01*
X11506250Y-5270500D02*
X11646250Y-5270500D01*
X11998125Y-6533500D02*
X11998125Y-6673500D01*
X11928125Y-6603500D02*
X12068125Y-6603500D01*
X11998125Y-7105500D02*
X11998125Y-7245500D01*
X11928125Y-7175500D02*
X12068125Y-7175500D01*
X12236250Y-4628500D02*
X12236250Y-4768500D01*
X12166250Y-4698500D02*
X12306250Y-4698500D01*
X12236250Y-5200500D02*
X12236250Y-5340500D01*
X12166250Y-5270500D02*
X12306250Y-5270500D01*
X13481250Y-4628500D02*
X13481250Y-4768500D01*
X13411250Y-4698500D02*
X13551250Y-4698500D01*
X13481250Y-5200500D02*
X13481250Y-5340500D01*
X13411250Y-5270500D02*
X13551250Y-5270500D01*
X13719375Y-6533500D02*
X13719375Y-6673500D01*
X13649375Y-6603500D02*
X13789375Y-6603500D01*
X13719375Y-7105500D02*
X13719375Y-7245500D01*
X13649375Y-7175500D02*
X13789375Y-7175500D01*
X14141250Y-4628500D02*
X14141250Y-4768500D01*
X14071250Y-4698500D02*
X14211250Y-4698500D01*
X14141250Y-5200500D02*
X14141250Y-5340500D01*
X14071250Y-5270500D02*
X14211250Y-5270500D01*
X14379375Y-6533500D02*
X14379375Y-6673500D01*
X14309375Y-6603500D02*
X14449375Y-6603500D01*
X14379375Y-7105500D02*
X14379375Y-7245500D01*
X14309375Y-7175500D02*
X14449375Y-7175500D01*
X14910000Y-8438500D02*
X14910000Y-8578500D01*
X14840000Y-8508500D02*
X14980000Y-8508500D01*
X14910000Y-9010500D02*
X14910000Y-9150500D01*
X14840000Y-9080500D02*
X14980000Y-9080500D01*
X15386250Y-4628500D02*
X15386250Y-4768500D01*
X15316250Y-4698500D02*
X15456250Y-4698500D01*
X15386250Y-5200500D02*
X15386250Y-5340500D01*
X15316250Y-5270500D02*
X15456250Y-5270500D01*
X15570000Y-8438500D02*
X15570000Y-8578500D01*
X15500000Y-8508500D02*
X15640000Y-8508500D01*
X15570000Y-9010500D02*
X15570000Y-9150500D01*
X15500000Y-9080500D02*
X15640000Y-9080500D01*
X15862500Y-6533500D02*
X15862500Y-6673500D01*
X15792500Y-6603500D02*
X15932500Y-6603500D01*
X15862500Y-7105500D02*
X15862500Y-7245500D01*
X15792500Y-7175500D02*
X15932500Y-7175500D01*
X16046250Y-4628500D02*
X16046250Y-4768500D01*
X15976250Y-4698500D02*
X16116250Y-4698500D01*
X16046250Y-5200500D02*
X16046250Y-5340500D01*
X15976250Y-5270500D02*
X16116250Y-5270500D01*
X16100600Y-10343500D02*
X16100600Y-10483500D01*
X16030600Y-10413500D02*
X16170600Y-10413500D01*
X16100600Y-10915500D02*
X16100600Y-11055500D01*
X16030600Y-10985500D02*
X16170600Y-10985500D01*
X16522500Y-6533500D02*
X16522500Y-6673500D01*
X16452500Y-6603500D02*
X16592500Y-6603500D01*
X16522500Y-7105500D02*
X16522500Y-7245500D01*
X16452500Y-7175500D02*
X16592500Y-7175500D01*
X16760600Y-10343500D02*
X16760600Y-10483500D01*
X16690600Y-10413500D02*
X16830600Y-10413500D01*
X16760600Y-10915500D02*
X16760600Y-11055500D01*
X16690600Y-10985500D02*
X16830600Y-10985500D01*
X16815000Y-2723500D02*
X16815000Y-2863500D01*
X16745000Y-2793500D02*
X16885000Y-2793500D01*
X16815000Y-3295500D02*
X16815000Y-3435500D01*
X16745000Y-3365500D02*
X16885000Y-3365500D01*
X17291250Y-4628500D02*
X17291250Y-4768500D01*
X17221250Y-4698500D02*
X17361250Y-4698500D01*
X17291250Y-5200500D02*
X17291250Y-5340500D01*
X17221250Y-5270500D02*
X17361250Y-5270500D01*
X17475000Y-2723500D02*
X17475000Y-2863500D01*
X17405000Y-2793500D02*
X17545000Y-2793500D01*
X17475000Y-3295500D02*
X17475000Y-3435500D01*
X17405000Y-3365500D02*
X17545000Y-3365500D01*
X17767500Y-6533500D02*
X17767500Y-6673500D01*
X17697500Y-6603500D02*
X17837500Y-6603500D01*
X17767500Y-7105500D02*
X17767500Y-7245500D01*
X17697500Y-7175500D02*
X17837500Y-7175500D01*
X17767500Y-8438500D02*
X17767500Y-8578500D01*
X17697500Y-8508500D02*
X17837500Y-8508500D01*
X17767500Y-9010500D02*
X17767500Y-9150500D01*
X17697500Y-9080500D02*
X17837500Y-9080500D01*
X17951250Y-4628500D02*
X17951250Y-4768500D01*
X17881250Y-4698500D02*
X18021250Y-4698500D01*
X17951250Y-5200500D02*
X17951250Y-5340500D01*
X17881250Y-5270500D02*
X18021250Y-5270500D01*
X18427500Y-6533500D02*
X18427500Y-6673500D01*
X18357500Y-6603500D02*
X18497500Y-6603500D01*
X18427500Y-7105500D02*
X18427500Y-7245500D01*
X18357500Y-7175500D02*
X18497500Y-7175500D01*
X18427500Y-8438500D02*
X18427500Y-8578500D01*
X18357500Y-8508500D02*
X18497500Y-8508500D01*
X18427500Y-9010500D02*
X18427500Y-9150500D01*
X18357500Y-9080500D02*
X18497500Y-9080500D01*
X18720000Y-2723500D02*
X18720000Y-2863500D01*
X18650000Y-2793500D02*
X18790000Y-2793500D01*
X18720000Y-3295500D02*
X18720000Y-3435500D01*
X18650000Y-3365500D02*
X18790000Y-3365500D01*
X18958100Y-10343500D02*
X18958100Y-10483500D01*
X18888100Y-10413500D02*
X19028100Y-10413500D01*
X18958100Y-10915500D02*
X18958100Y-11055500D01*
X18888100Y-10985500D02*
X19028100Y-10985500D01*
X19196250Y-4628500D02*
X19196250Y-4768500D01*
X19126250Y-4698500D02*
X19266250Y-4698500D01*
X19196250Y-5200500D02*
X19196250Y-5340500D01*
X19126250Y-5270500D02*
X19266250Y-5270500D01*
X19380000Y-2723500D02*
X19380000Y-2863500D01*
X19310000Y-2793500D02*
X19450000Y-2793500D01*
X19380000Y-3295500D02*
X19380000Y-3435500D01*
X19310000Y-3365500D02*
X19450000Y-3365500D01*
X19618100Y-10343500D02*
X19618100Y-10483500D01*
X19548100Y-10413500D02*
X19688100Y-10413500D01*
X19618100Y-10915500D02*
X19618100Y-11055500D01*
X19548100Y-10985500D02*
X19688100Y-10985500D01*
X19672500Y-6533500D02*
X19672500Y-6673500D01*
X19602500Y-6603500D02*
X19742500Y-6603500D01*
X19672500Y-7105500D02*
X19672500Y-7245500D01*
X19602500Y-7175500D02*
X19742500Y-7175500D01*
X19856250Y-4628500D02*
X19856250Y-4768500D01*
X19786250Y-4698500D02*
X19926250Y-4698500D01*
X19856250Y-5200500D02*
X19856250Y-5340500D01*
X19786250Y-5270500D02*
X19926250Y-5270500D01*
X20332500Y-6533500D02*
X20332500Y-6673500D01*
X20262500Y-6603500D02*
X20402500Y-6603500D01*
X20332500Y-7105500D02*
X20332500Y-7245500D01*
X20262500Y-7175500D02*
X20402500Y-7175500D01*
X21101250Y-2723500D02*
X21101250Y-2863500D01*
X21031250Y-2793500D02*
X21171250Y-2793500D01*
X21101250Y-3295500D02*
X21101250Y-3435500D01*
X21031250Y-3365500D02*
X21171250Y-3365500D01*
X21761250Y-2723500D02*
X21761250Y-2863500D01*
X21691250Y-2793500D02*
X21831250Y-2793500D01*
X21761250Y-3295500D02*
X21761250Y-3435500D01*
X21691250Y-3365500D02*
X21831250Y-3365500D01*
X21815625Y-4628500D02*
X21815625Y-4768500D01*
X21745625Y-4698500D02*
X21885625Y-4698500D01*
X21815625Y-5200500D02*
X21815625Y-5340500D01*
X21745625Y-5270500D02*
X21885625Y-5270500D01*
X21815625Y-6533500D02*
X21815625Y-6673500D01*
X21745625Y-6603500D02*
X21885625Y-6603500D01*
X21815625Y-7105500D02*
X21815625Y-7245500D01*
X21745625Y-7175500D02*
X21885625Y-7175500D01*
X22475625Y-4628500D02*
X22475625Y-4768500D01*
X22405625Y-4698500D02*
X22545625Y-4698500D01*
X22475625Y-5200500D02*
X22475625Y-5340500D01*
X22405625Y-5270500D02*
X22545625Y-5270500D01*
X22475625Y-6533500D02*
X22475625Y-6673500D01*
X22405625Y-6603500D02*
X22545625Y-6603500D01*
X22475625Y-7105500D02*
X22475625Y-7245500D01*
X22405625Y-7175500D02*
X22545625Y-7175500D01*
D14*
X3242848Y-4560473D02*
X3242848Y-4456527D01*
X3138902Y-4456527D01*
X3138902Y-4560473D01*
X3242848Y-4560473D01*
X3242848Y-6465473D02*
X3242848Y-6361527D01*
X3138902Y-6361527D01*
X3138902Y-6465473D01*
X3242848Y-6465473D01*
X3877848Y-4306473D02*
X3877848Y-4202527D01*
X3773902Y-4202527D01*
X3773902Y-4306473D01*
X3877848Y-4306473D01*
X3877848Y-6211473D02*
X3877848Y-6107527D01*
X3773902Y-6107527D01*
X3773902Y-6211473D01*
X3877848Y-6211473D01*
X3957223Y-2655473D02*
X3957223Y-2551527D01*
X3853277Y-2551527D01*
X3853277Y-2655473D01*
X3957223Y-2655473D01*
X4592223Y-2401473D02*
X4592223Y-2297527D01*
X4488277Y-2297527D01*
X4488277Y-2401473D01*
X4592223Y-2401473D01*
X5385973Y-6465473D02*
X5385973Y-6361527D01*
X5282027Y-6361527D01*
X5282027Y-6465473D01*
X5385973Y-6465473D01*
X5862223Y-4560473D02*
X5862223Y-4456527D01*
X5758277Y-4456527D01*
X5758277Y-4560473D01*
X5862223Y-4560473D01*
X6020973Y-6211473D02*
X6020973Y-6107527D01*
X5917027Y-6107527D01*
X5917027Y-6211473D01*
X6020973Y-6211473D01*
X6100373Y-10275473D02*
X6100373Y-10171527D01*
X5996427Y-10171527D01*
X5996427Y-10275473D01*
X6100373Y-10275473D01*
X6338473Y-2655473D02*
X6338473Y-2551527D01*
X6234527Y-2551527D01*
X6234527Y-2655473D01*
X6338473Y-2655473D01*
X6497223Y-4306473D02*
X6497223Y-4202527D01*
X6393277Y-4202527D01*
X6393277Y-4306473D01*
X6497223Y-4306473D01*
X6735373Y-10021473D02*
X6735373Y-9917527D01*
X6631427Y-9917527D01*
X6631427Y-10021473D01*
X6735373Y-10021473D01*
X6973473Y-2401473D02*
X6973473Y-2297527D01*
X6869527Y-2297527D01*
X6869527Y-2401473D01*
X6973473Y-2401473D01*
X7290973Y-6465473D02*
X7290973Y-6361527D01*
X7187027Y-6361527D01*
X7187027Y-6465473D01*
X7290973Y-6465473D01*
X7290973Y-8370473D02*
X7290973Y-8266527D01*
X7187027Y-8266527D01*
X7187027Y-8370473D01*
X7290973Y-8370473D01*
X7767223Y-4560473D02*
X7767223Y-4456527D01*
X7663277Y-4456527D01*
X7663277Y-4560473D01*
X7767223Y-4560473D01*
X7925973Y-6211473D02*
X7925973Y-6107527D01*
X7822027Y-6107527D01*
X7822027Y-6211473D01*
X7925973Y-6211473D01*
X7925973Y-8116473D02*
X7925973Y-8012527D01*
X7822027Y-8012527D01*
X7822027Y-8116473D01*
X7925973Y-8116473D01*
X8243473Y-2655473D02*
X8243473Y-2551527D01*
X8139527Y-2551527D01*
X8139527Y-2655473D01*
X8243473Y-2655473D01*
X8402223Y-4306473D02*
X8402223Y-4202527D01*
X8298277Y-4202527D01*
X8298277Y-4306473D01*
X8402223Y-4306473D01*
X8878473Y-2401473D02*
X8878473Y-2297527D01*
X8774527Y-2297527D01*
X8774527Y-2401473D01*
X8878473Y-2401473D01*
X8957873Y-10275473D02*
X8957873Y-10171527D01*
X8853927Y-10171527D01*
X8853927Y-10275473D01*
X8957873Y-10275473D01*
X9195973Y-6465473D02*
X9195973Y-6361527D01*
X9092027Y-6361527D01*
X9092027Y-6465473D01*
X9195973Y-6465473D01*
X9592873Y-10021473D02*
X9592873Y-9917527D01*
X9488927Y-9917527D01*
X9488927Y-10021473D01*
X9592873Y-10021473D01*
X9672223Y-4560473D02*
X9672223Y-4456527D01*
X9568277Y-4456527D01*
X9568277Y-4560473D01*
X9672223Y-4560473D01*
X9830973Y-6211473D02*
X9830973Y-6107527D01*
X9727027Y-6107527D01*
X9727027Y-6211473D01*
X9830973Y-6211473D01*
X10148473Y-8370473D02*
X10148473Y-8266527D01*
X10044527Y-8266527D01*
X10044527Y-8370473D01*
X10148473Y-8370473D01*
X10307223Y-4306473D02*
X10307223Y-4202527D01*
X10203277Y-4202527D01*
X10203277Y-4306473D01*
X10307223Y-4306473D01*
X10783473Y-8116473D02*
X10783473Y-8012527D01*
X10679527Y-8012527D01*
X10679527Y-8116473D01*
X10783473Y-8116473D01*
X11339098Y-6465473D02*
X11339098Y-6361527D01*
X11235152Y-6361527D01*
X11235152Y-6465473D01*
X11339098Y-6465473D01*
X11577223Y-4560473D02*
X11577223Y-4456527D01*
X11473277Y-4456527D01*
X11473277Y-4560473D01*
X11577223Y-4560473D01*
X11974098Y-6211473D02*
X11974098Y-6107527D01*
X11870152Y-6107527D01*
X11870152Y-6211473D01*
X11974098Y-6211473D01*
X12212223Y-4306473D02*
X12212223Y-4202527D01*
X12108277Y-4202527D01*
X12108277Y-4306473D01*
X12212223Y-4306473D01*
X13482223Y-4560473D02*
X13482223Y-4456527D01*
X13378277Y-4456527D01*
X13378277Y-4560473D01*
X13482223Y-4560473D01*
X13720348Y-6465473D02*
X13720348Y-6361527D01*
X13616402Y-6361527D01*
X13616402Y-6465473D01*
X13720348Y-6465473D01*
X14117223Y-4306473D02*
X14117223Y-4202527D01*
X14013277Y-4202527D01*
X14013277Y-4306473D01*
X14117223Y-4306473D01*
X14355348Y-6211473D02*
X14355348Y-6107527D01*
X14251402Y-6107527D01*
X14251402Y-6211473D01*
X14355348Y-6211473D01*
X14910973Y-8370473D02*
X14910973Y-8266527D01*
X14807027Y-8266527D01*
X14807027Y-8370473D01*
X14910973Y-8370473D01*
X15387223Y-4560473D02*
X15387223Y-4456527D01*
X15283277Y-4456527D01*
X15283277Y-4560473D01*
X15387223Y-4560473D01*
X15545973Y-8116473D02*
X15545973Y-8012527D01*
X15442027Y-8012527D01*
X15442027Y-8116473D01*
X15545973Y-8116473D01*
X15863473Y-6465473D02*
X15863473Y-6361527D01*
X15759527Y-6361527D01*
X15759527Y-6465473D01*
X15863473Y-6465473D01*
X16022223Y-4306473D02*
X16022223Y-4202527D01*
X15918277Y-4202527D01*
X15918277Y-4306473D01*
X16022223Y-4306473D01*
X16101573Y-10275473D02*
X16101573Y-10171527D01*
X15997627Y-10171527D01*
X15997627Y-10275473D01*
X16101573Y-10275473D01*
X16498473Y-6211473D02*
X16498473Y-6107527D01*
X16394527Y-6107527D01*
X16394527Y-6211473D01*
X16498473Y-6211473D01*
X16736573Y-10021473D02*
X16736573Y-9917527D01*
X16632627Y-9917527D01*
X16632627Y-10021473D01*
X16736573Y-10021473D01*
X16815973Y-2655473D02*
X16815973Y-2551527D01*
X16712027Y-2551527D01*
X16712027Y-2655473D01*
X16815973Y-2655473D01*
X17292223Y-4560473D02*
X17292223Y-4456527D01*
X17188277Y-4456527D01*
X17188277Y-4560473D01*
X17292223Y-4560473D01*
X17450973Y-2401473D02*
X17450973Y-2297527D01*
X17347027Y-2297527D01*
X17347027Y-2401473D01*
X17450973Y-2401473D01*
X17768473Y-6465473D02*
X17768473Y-6361527D01*
X17664527Y-6361527D01*
X17664527Y-6465473D01*
X17768473Y-6465473D01*
X17768473Y-8370473D02*
X17768473Y-8266527D01*
X17664527Y-8266527D01*
X17664527Y-8370473D01*
X17768473Y-8370473D01*
X17927223Y-4306473D02*
X17927223Y-4202527D01*
X17823277Y-4202527D01*
X17823277Y-4306473D01*
X17927223Y-4306473D01*
X18403473Y-6211473D02*
X18403473Y-6107527D01*
X18299527Y-6107527D01*
X18299527Y-6211473D01*
X18403473Y-6211473D01*
X18403473Y-8116473D02*
X18403473Y-8012527D01*
X18299527Y-8012527D01*
X18299527Y-8116473D01*
X18403473Y-8116473D01*
X18720973Y-2655473D02*
X18720973Y-2551527D01*
X18617027Y-2551527D01*
X18617027Y-2655473D01*
X18720973Y-2655473D01*
X18959073Y-10275473D02*
X18959073Y-10171527D01*
X18855127Y-10171527D01*
X18855127Y-10275473D01*
X18959073Y-10275473D01*
X19197223Y-4560473D02*
X19197223Y-4456527D01*
X19093277Y-4456527D01*
X19093277Y-4560473D01*
X19197223Y-4560473D01*
X19355973Y-2401473D02*
X19355973Y-2297527D01*
X19252027Y-2297527D01*
X19252027Y-2401473D01*
X19355973Y-2401473D01*
X19594073Y-10021473D02*
X19594073Y-9917527D01*
X19490127Y-9917527D01*
X19490127Y-10021473D01*
X19594073Y-10021473D01*
X19673473Y-6465473D02*
X19673473Y-6361527D01*
X19569527Y-6361527D01*
X19569527Y-6465473D01*
X19673473Y-6465473D01*
X19832223Y-4306473D02*
X19832223Y-4202527D01*
X19728277Y-4202527D01*
X19728277Y-4306473D01*
X19832223Y-4306473D01*
X20308473Y-6211473D02*
X20308473Y-6107527D01*
X20204527Y-6107527D01*
X20204527Y-6211473D01*
X20308473Y-6211473D01*
X21102223Y-2655473D02*
X21102223Y-2551527D01*
X20998277Y-2551527D01*
X20998277Y-2655473D01*
X21102223Y-2655473D01*
X21737223Y-2401473D02*
X21737223Y-2297527D01*
X21633277Y-2297527D01*
X21633277Y-2401473D01*
X21737223Y-2401473D01*
X21816598Y-4560473D02*
X21816598Y-4456527D01*
X21712652Y-4456527D01*
X21712652Y-4560473D01*
X21816598Y-4560473D01*
X21816598Y-6465473D02*
X21816598Y-6361527D01*
X21712652Y-6361527D01*
X21712652Y-6465473D01*
X21816598Y-6465473D01*
X22451598Y-4306473D02*
X22451598Y-4202527D01*
X22347652Y-4202527D01*
X22347652Y-4306473D01*
X22451598Y-4306473D01*
X22451598Y-6211473D02*
X22451598Y-6107527D01*
X22347652Y-6107527D01*
X22347652Y-6211473D01*
X22451598Y-6211473D01*
D10*
X2152619Y-11763176D02*
X2152619Y-11563176D01*
X2200238Y-11563176D01*
X2228810Y-11572700D01*
X2247857Y-11591748D01*
X2257381Y-11610795D01*
X2266905Y-11648890D01*
X2266905Y-11677462D01*
X2257381Y-11715557D01*
X2247857Y-11734605D01*
X2228810Y-11753652D01*
X2200238Y-11763176D01*
X2152619Y-11763176D01*
X2352619Y-11763176D02*
X2352619Y-11629843D01*
X2352619Y-11667938D02*
X2362143Y-11648890D01*
X2371667Y-11639367D01*
X2390714Y-11629843D01*
X2409762Y-11629843D01*
X2476429Y-11763176D02*
X2476429Y-11629843D01*
X2476429Y-11563176D02*
X2466905Y-11572700D01*
X2476429Y-11582224D01*
X2485952Y-11572700D01*
X2476429Y-11563176D01*
X2476429Y-11582224D01*
X2600238Y-11763176D02*
X2581190Y-11753652D01*
X2571667Y-11734605D01*
X2571667Y-11563176D01*
X2705000Y-11763176D02*
X2685952Y-11753652D01*
X2676429Y-11734605D01*
X2676429Y-11563176D01*
X2933571Y-11763176D02*
X2933571Y-11563176D01*
X3000238Y-11706033D01*
X3066905Y-11563176D01*
X3066905Y-11763176D01*
X3247857Y-11763176D02*
X3247857Y-11658414D01*
X3238333Y-11639367D01*
X3219286Y-11629843D01*
X3181190Y-11629843D01*
X3162143Y-11639367D01*
X3247857Y-11753652D02*
X3228809Y-11763176D01*
X3181190Y-11763176D01*
X3162143Y-11753652D01*
X3152619Y-11734605D01*
X3152619Y-11715557D01*
X3162143Y-11696509D01*
X3181190Y-11686986D01*
X3228809Y-11686986D01*
X3247857Y-11677462D01*
X3343095Y-11629843D02*
X3343095Y-11829843D01*
X3343095Y-11639367D02*
X3362143Y-11629843D01*
X3400238Y-11629843D01*
X3419286Y-11639367D01*
X3428809Y-11648890D01*
X3438333Y-11667938D01*
X3438333Y-11725081D01*
X3428809Y-11744128D01*
X3419286Y-11753652D01*
X3400238Y-11763176D01*
X3362143Y-11763176D01*
X3343095Y-11753652D01*
X3524048Y-11744128D02*
X3533571Y-11753652D01*
X3524048Y-11763176D01*
X3514524Y-11753652D01*
X3524048Y-11744128D01*
X3524048Y-11763176D01*
X3524048Y-11639367D02*
X3533571Y-11648890D01*
X3524048Y-11658414D01*
X3514524Y-11648890D01*
X3524048Y-11639367D01*
X3524048Y-11658414D01*
D11*
X1855000Y-12072700D02*
X1895000Y-12112700D01*
X1895000Y-12072700D02*
X1855000Y-12112700D01*
D10*
X2190714Y-11983176D02*
X2209762Y-11983176D01*
X2228810Y-11992700D01*
X2238333Y-12002224D01*
X2247857Y-12021271D01*
X2257381Y-12059367D01*
X2257381Y-12106986D01*
X2247857Y-12145081D01*
X2238333Y-12164128D01*
X2228810Y-12173652D01*
X2209762Y-12183176D01*
X2190714Y-12183176D01*
X2171667Y-12173652D01*
X2162143Y-12164128D01*
X2152619Y-12145081D01*
X2143095Y-12106986D01*
X2143095Y-12059367D01*
X2152619Y-12021271D01*
X2162143Y-12002224D01*
X2171667Y-11992700D01*
X2190714Y-11983176D01*
X2343095Y-12164128D02*
X2352619Y-12173652D01*
X2343095Y-12183176D01*
X2333571Y-12173652D01*
X2343095Y-12164128D01*
X2343095Y-12183176D01*
X2524048Y-12049843D02*
X2524048Y-12183176D01*
X2476429Y-11973652D02*
X2428810Y-12116509D01*
X2552619Y-12116509D01*
X2666905Y-11983176D02*
X2685952Y-11983176D01*
X2705000Y-11992700D01*
X2714524Y-12002224D01*
X2724048Y-12021271D01*
X2733571Y-12059367D01*
X2733571Y-12106986D01*
X2724048Y-12145081D01*
X2714524Y-12164128D01*
X2705000Y-12173652D01*
X2685952Y-12183176D01*
X2666905Y-12183176D01*
X2647857Y-12173652D01*
X2638333Y-12164128D01*
X2628810Y-12145081D01*
X2619286Y-12106986D01*
X2619286Y-12059367D01*
X2628810Y-12021271D01*
X2638333Y-12002224D01*
X2647857Y-11992700D01*
X2666905Y-11983176D01*
X2857381Y-11983176D02*
X2876428Y-11983176D01*
X2895476Y-11992700D01*
X2905000Y-12002224D01*
X2914524Y-12021271D01*
X2924048Y-12059367D01*
X2924048Y-12106986D01*
X2914524Y-12145081D01*
X2905000Y-12164128D01*
X2895476Y-12173652D01*
X2876428Y-12183176D01*
X2857381Y-12183176D01*
X2838333Y-12173652D01*
X2828809Y-12164128D01*
X2819286Y-12145081D01*
X2809762Y-12106986D01*
X2809762Y-12059367D01*
X2819286Y-12021271D01*
X2828809Y-12002224D01*
X2838333Y-11992700D01*
X2857381Y-11983176D01*
X3009762Y-12183176D02*
X3009762Y-12049843D01*
X3009762Y-12068890D02*
X3019286Y-12059367D01*
X3038333Y-12049843D01*
X3066905Y-12049843D01*
X3085952Y-12059367D01*
X3095476Y-12078414D01*
X3095476Y-12183176D01*
X3095476Y-12078414D02*
X3105000Y-12059367D01*
X3124048Y-12049843D01*
X3152619Y-12049843D01*
X3171667Y-12059367D01*
X3181190Y-12078414D01*
X3181190Y-12183176D01*
X3276428Y-12183176D02*
X3276428Y-12049843D01*
X3276428Y-12068890D02*
X3285952Y-12059367D01*
X3305000Y-12049843D01*
X3333571Y-12049843D01*
X3352619Y-12059367D01*
X3362143Y-12078414D01*
X3362143Y-12183176D01*
X3362143Y-12078414D02*
X3371667Y-12059367D01*
X3390714Y-12049843D01*
X3419286Y-12049843D01*
X3438333Y-12059367D01*
X3447857Y-12078414D01*
X3447857Y-12183176D01*
X3838333Y-11973652D02*
X3666905Y-12230795D01*
X4095476Y-11983176D02*
X4114524Y-11983176D01*
X4133571Y-11992700D01*
X4143095Y-12002224D01*
X4152619Y-12021271D01*
X4162143Y-12059367D01*
X4162143Y-12106986D01*
X4152619Y-12145081D01*
X4143095Y-12164128D01*
X4133571Y-12173652D01*
X4114524Y-12183176D01*
X4095476Y-12183176D01*
X4076428Y-12173652D01*
X4066905Y-12164128D01*
X4057381Y-12145081D01*
X4047857Y-12106986D01*
X4047857Y-12059367D01*
X4057381Y-12021271D01*
X4066905Y-12002224D01*
X4076428Y-11992700D01*
X4095476Y-11983176D01*
X4247857Y-12164128D02*
X4257381Y-12173652D01*
X4247857Y-12183176D01*
X4238333Y-12173652D01*
X4247857Y-12164128D01*
X4247857Y-12183176D01*
X4381190Y-11983176D02*
X4400238Y-11983176D01*
X4419286Y-11992700D01*
X4428810Y-12002224D01*
X4438333Y-12021271D01*
X4447857Y-12059367D01*
X4447857Y-12106986D01*
X4438333Y-12145081D01*
X4428810Y-12164128D01*
X4419286Y-12173652D01*
X4400238Y-12183176D01*
X4381190Y-12183176D01*
X4362143Y-12173652D01*
X4352619Y-12164128D01*
X4343095Y-12145081D01*
X4333571Y-12106986D01*
X4333571Y-12059367D01*
X4343095Y-12021271D01*
X4352619Y-12002224D01*
X4362143Y-11992700D01*
X4381190Y-11983176D01*
X4638333Y-12183176D02*
X4524048Y-12183176D01*
X4581190Y-12183176D02*
X4581190Y-11983176D01*
X4562143Y-12011748D01*
X4543095Y-12030795D01*
X4524048Y-12040319D01*
X4819286Y-11983176D02*
X4724048Y-11983176D01*
X4714524Y-12078414D01*
X4724048Y-12068890D01*
X4743095Y-12059367D01*
X4790714Y-12059367D01*
X4809762Y-12068890D01*
X4819286Y-12078414D01*
X4828810Y-12097462D01*
X4828810Y-12145081D01*
X4819286Y-12164128D01*
X4809762Y-12173652D01*
X4790714Y-12183176D01*
X4743095Y-12183176D01*
X4724048Y-12173652D01*
X4714524Y-12164128D01*
X4895476Y-11983176D02*
X5028810Y-11983176D01*
X4943095Y-12183176D01*
X5095476Y-11983176D02*
X5095476Y-12021271D01*
X5171667Y-11983176D02*
X5171667Y-12021271D01*
X5466905Y-12259367D02*
X5457381Y-12249843D01*
X5438333Y-12221271D01*
X5428810Y-12202224D01*
X5419286Y-12173652D01*
X5409762Y-12126033D01*
X5409762Y-12087938D01*
X5419286Y-12040319D01*
X5428810Y-12011748D01*
X5438333Y-11992700D01*
X5457381Y-11964128D01*
X5466905Y-11954605D01*
X5628809Y-11983176D02*
X5590714Y-11983176D01*
X5571667Y-11992700D01*
X5562143Y-12002224D01*
X5543095Y-12030795D01*
X5533571Y-12068890D01*
X5533571Y-12145081D01*
X5543095Y-12164128D01*
X5552619Y-12173652D01*
X5571667Y-12183176D01*
X5609762Y-12183176D01*
X5628809Y-12173652D01*
X5638333Y-12164128D01*
X5647857Y-12145081D01*
X5647857Y-12097462D01*
X5638333Y-12078414D01*
X5628809Y-12068890D01*
X5609762Y-12059367D01*
X5571667Y-12059367D01*
X5552619Y-12068890D01*
X5543095Y-12078414D01*
X5533571Y-12097462D01*
X5724048Y-12002224D02*
X5733571Y-11992700D01*
X5752619Y-11983176D01*
X5800238Y-11983176D01*
X5819286Y-11992700D01*
X5828809Y-12002224D01*
X5838333Y-12021271D01*
X5838333Y-12040319D01*
X5828809Y-12068890D01*
X5714524Y-12183176D01*
X5838333Y-12183176D01*
X6076428Y-12183176D02*
X6076428Y-11983176D01*
X6162143Y-12183176D02*
X6162143Y-12078414D01*
X6152619Y-12059367D01*
X6133571Y-12049843D01*
X6105000Y-12049843D01*
X6085952Y-12059367D01*
X6076428Y-12068890D01*
X6285952Y-12183176D02*
X6266905Y-12173652D01*
X6257381Y-12164128D01*
X6247857Y-12145081D01*
X6247857Y-12087938D01*
X6257381Y-12068890D01*
X6266905Y-12059367D01*
X6285952Y-12049843D01*
X6314524Y-12049843D01*
X6333571Y-12059367D01*
X6343095Y-12068890D01*
X6352619Y-12087938D01*
X6352619Y-12145081D01*
X6343095Y-12164128D01*
X6333571Y-12173652D01*
X6314524Y-12183176D01*
X6285952Y-12183176D01*
X6466905Y-12183176D02*
X6447857Y-12173652D01*
X6438333Y-12154605D01*
X6438333Y-11983176D01*
X6619286Y-12173652D02*
X6600238Y-12183176D01*
X6562143Y-12183176D01*
X6543095Y-12173652D01*
X6533571Y-12154605D01*
X6533571Y-12078414D01*
X6543095Y-12059367D01*
X6562143Y-12049843D01*
X6600238Y-12049843D01*
X6619286Y-12059367D01*
X6628809Y-12078414D01*
X6628809Y-12097462D01*
X6533571Y-12116509D01*
X6705000Y-12173652D02*
X6724048Y-12183176D01*
X6762143Y-12183176D01*
X6781190Y-12173652D01*
X6790714Y-12154605D01*
X6790714Y-12145081D01*
X6781190Y-12126033D01*
X6762143Y-12116509D01*
X6733571Y-12116509D01*
X6714524Y-12106986D01*
X6705000Y-12087938D01*
X6705000Y-12078414D01*
X6714524Y-12059367D01*
X6733571Y-12049843D01*
X6762143Y-12049843D01*
X6781190Y-12059367D01*
X6857381Y-12259367D02*
X6866905Y-12249843D01*
X6885952Y-12221271D01*
X6895476Y-12202224D01*
X6905000Y-12173652D01*
X6914524Y-12126033D01*
X6914524Y-12087938D01*
X6905000Y-12040319D01*
X6895476Y-12011748D01*
X6885952Y-11992700D01*
X6866905Y-11964128D01*
X6857381Y-11954605D01*
D12*
X1895000Y-12356700D02*
G75*
G03*
X1895000Y-12356700I-30000J0D01*
G01*
D10*
X2190714Y-12247176D02*
X2209762Y-12247176D01*
X2228810Y-12256700D01*
X2238333Y-12266224D01*
X2247857Y-12285271D01*
X2257381Y-12323367D01*
X2257381Y-12370986D01*
X2247857Y-12409081D01*
X2238333Y-12428128D01*
X2228810Y-12437652D01*
X2209762Y-12447176D01*
X2190714Y-12447176D01*
X2171667Y-12437652D01*
X2162143Y-12428128D01*
X2152619Y-12409081D01*
X2143095Y-12370986D01*
X2143095Y-12323367D01*
X2152619Y-12285271D01*
X2162143Y-12266224D01*
X2171667Y-12256700D01*
X2190714Y-12247176D01*
X2343095Y-12428128D02*
X2352619Y-12437652D01*
X2343095Y-12447176D01*
X2333571Y-12437652D01*
X2343095Y-12428128D01*
X2343095Y-12447176D01*
X2524048Y-12247176D02*
X2485952Y-12247176D01*
X2466905Y-12256700D01*
X2457381Y-12266224D01*
X2438333Y-12294795D01*
X2428810Y-12332890D01*
X2428810Y-12409081D01*
X2438333Y-12428128D01*
X2447857Y-12437652D01*
X2466905Y-12447176D01*
X2505000Y-12447176D01*
X2524048Y-12437652D01*
X2533571Y-12428128D01*
X2543095Y-12409081D01*
X2543095Y-12361462D01*
X2533571Y-12342414D01*
X2524048Y-12332890D01*
X2505000Y-12323367D01*
X2466905Y-12323367D01*
X2447857Y-12332890D01*
X2438333Y-12342414D01*
X2428810Y-12361462D01*
X2666905Y-12247176D02*
X2685952Y-12247176D01*
X2705000Y-12256700D01*
X2714524Y-12266224D01*
X2724048Y-12285271D01*
X2733571Y-12323367D01*
X2733571Y-12370986D01*
X2724048Y-12409081D01*
X2714524Y-12428128D01*
X2705000Y-12437652D01*
X2685952Y-12447176D01*
X2666905Y-12447176D01*
X2647857Y-12437652D01*
X2638333Y-12428128D01*
X2628810Y-12409081D01*
X2619286Y-12370986D01*
X2619286Y-12323367D01*
X2628810Y-12285271D01*
X2638333Y-12266224D01*
X2647857Y-12256700D01*
X2666905Y-12247176D01*
X2857381Y-12247176D02*
X2876428Y-12247176D01*
X2895476Y-12256700D01*
X2905000Y-12266224D01*
X2914524Y-12285271D01*
X2924048Y-12323367D01*
X2924048Y-12370986D01*
X2914524Y-12409081D01*
X2905000Y-12428128D01*
X2895476Y-12437652D01*
X2876428Y-12447176D01*
X2857381Y-12447176D01*
X2838333Y-12437652D01*
X2828809Y-12428128D01*
X2819286Y-12409081D01*
X2809762Y-12370986D01*
X2809762Y-12323367D01*
X2819286Y-12285271D01*
X2828809Y-12266224D01*
X2838333Y-12256700D01*
X2857381Y-12247176D01*
X3009762Y-12447176D02*
X3009762Y-12313843D01*
X3009762Y-12332890D02*
X3019286Y-12323367D01*
X3038333Y-12313843D01*
X3066905Y-12313843D01*
X3085952Y-12323367D01*
X3095476Y-12342414D01*
X3095476Y-12447176D01*
X3095476Y-12342414D02*
X3105000Y-12323367D01*
X3124048Y-12313843D01*
X3152619Y-12313843D01*
X3171667Y-12323367D01*
X3181190Y-12342414D01*
X3181190Y-12447176D01*
X3276428Y-12447176D02*
X3276428Y-12313843D01*
X3276428Y-12332890D02*
X3285952Y-12323367D01*
X3305000Y-12313843D01*
X3333571Y-12313843D01*
X3352619Y-12323367D01*
X3362143Y-12342414D01*
X3362143Y-12447176D01*
X3362143Y-12342414D02*
X3371667Y-12323367D01*
X3390714Y-12313843D01*
X3419286Y-12313843D01*
X3438333Y-12323367D01*
X3447857Y-12342414D01*
X3447857Y-12447176D01*
X3838333Y-12237652D02*
X3666905Y-12494795D01*
X4095476Y-12247176D02*
X4114524Y-12247176D01*
X4133571Y-12256700D01*
X4143095Y-12266224D01*
X4152619Y-12285271D01*
X4162143Y-12323367D01*
X4162143Y-12370986D01*
X4152619Y-12409081D01*
X4143095Y-12428128D01*
X4133571Y-12437652D01*
X4114524Y-12447176D01*
X4095476Y-12447176D01*
X4076428Y-12437652D01*
X4066905Y-12428128D01*
X4057381Y-12409081D01*
X4047857Y-12370986D01*
X4047857Y-12323367D01*
X4057381Y-12285271D01*
X4066905Y-12266224D01*
X4076428Y-12256700D01*
X4095476Y-12247176D01*
X4247857Y-12428128D02*
X4257381Y-12437652D01*
X4247857Y-12447176D01*
X4238333Y-12437652D01*
X4247857Y-12428128D01*
X4247857Y-12447176D01*
X4381190Y-12247176D02*
X4400238Y-12247176D01*
X4419286Y-12256700D01*
X4428810Y-12266224D01*
X4438333Y-12285271D01*
X4447857Y-12323367D01*
X4447857Y-12370986D01*
X4438333Y-12409081D01*
X4428810Y-12428128D01*
X4419286Y-12437652D01*
X4400238Y-12447176D01*
X4381190Y-12447176D01*
X4362143Y-12437652D01*
X4352619Y-12428128D01*
X4343095Y-12409081D01*
X4333571Y-12370986D01*
X4333571Y-12323367D01*
X4343095Y-12285271D01*
X4352619Y-12266224D01*
X4362143Y-12256700D01*
X4381190Y-12247176D01*
X4524048Y-12266224D02*
X4533571Y-12256700D01*
X4552619Y-12247176D01*
X4600238Y-12247176D01*
X4619286Y-12256700D01*
X4628810Y-12266224D01*
X4638333Y-12285271D01*
X4638333Y-12304319D01*
X4628810Y-12332890D01*
X4514524Y-12447176D01*
X4638333Y-12447176D01*
X4705000Y-12247176D02*
X4828810Y-12247176D01*
X4762143Y-12323367D01*
X4790714Y-12323367D01*
X4809762Y-12332890D01*
X4819286Y-12342414D01*
X4828810Y-12361462D01*
X4828810Y-12409081D01*
X4819286Y-12428128D01*
X4809762Y-12437652D01*
X4790714Y-12447176D01*
X4733571Y-12447176D01*
X4714524Y-12437652D01*
X4705000Y-12428128D01*
X5000238Y-12247176D02*
X4962143Y-12247176D01*
X4943095Y-12256700D01*
X4933571Y-12266224D01*
X4914524Y-12294795D01*
X4905000Y-12332890D01*
X4905000Y-12409081D01*
X4914524Y-12428128D01*
X4924048Y-12437652D01*
X4943095Y-12447176D01*
X4981190Y-12447176D01*
X5000238Y-12437652D01*
X5009762Y-12428128D01*
X5019286Y-12409081D01*
X5019286Y-12361462D01*
X5009762Y-12342414D01*
X5000238Y-12332890D01*
X4981190Y-12323367D01*
X4943095Y-12323367D01*
X4924048Y-12332890D01*
X4914524Y-12342414D01*
X4905000Y-12361462D01*
X5095476Y-12247176D02*
X5095476Y-12285271D01*
X5171667Y-12247176D02*
X5171667Y-12285271D01*
X5466905Y-12523367D02*
X5457381Y-12513843D01*
X5438333Y-12485271D01*
X5428810Y-12466224D01*
X5419286Y-12437652D01*
X5409762Y-12390033D01*
X5409762Y-12351938D01*
X5419286Y-12304319D01*
X5428810Y-12275748D01*
X5438333Y-12256700D01*
X5457381Y-12228128D01*
X5466905Y-12218605D01*
X5581190Y-12247176D02*
X5600238Y-12247176D01*
X5619286Y-12256700D01*
X5628809Y-12266224D01*
X5638333Y-12285271D01*
X5647857Y-12323367D01*
X5647857Y-12370986D01*
X5638333Y-12409081D01*
X5628809Y-12428128D01*
X5619286Y-12437652D01*
X5600238Y-12447176D01*
X5581190Y-12447176D01*
X5562143Y-12437652D01*
X5552619Y-12428128D01*
X5543095Y-12409081D01*
X5533571Y-12370986D01*
X5533571Y-12323367D01*
X5543095Y-12285271D01*
X5552619Y-12266224D01*
X5562143Y-12256700D01*
X5581190Y-12247176D01*
X5885952Y-12447176D02*
X5885952Y-12247176D01*
X5971667Y-12447176D02*
X5971667Y-12342414D01*
X5962143Y-12323367D01*
X5943095Y-12313843D01*
X5914524Y-12313843D01*
X5895476Y-12323367D01*
X5885952Y-12332890D01*
X6095476Y-12447176D02*
X6076428Y-12437652D01*
X6066905Y-12428128D01*
X6057381Y-12409081D01*
X6057381Y-12351938D01*
X6066905Y-12332890D01*
X6076428Y-12323367D01*
X6095476Y-12313843D01*
X6124048Y-12313843D01*
X6143095Y-12323367D01*
X6152619Y-12332890D01*
X6162143Y-12351938D01*
X6162143Y-12409081D01*
X6152619Y-12428128D01*
X6143095Y-12437652D01*
X6124048Y-12447176D01*
X6095476Y-12447176D01*
X6276428Y-12447176D02*
X6257381Y-12437652D01*
X6247857Y-12418605D01*
X6247857Y-12247176D01*
X6428809Y-12437652D02*
X6409762Y-12447176D01*
X6371667Y-12447176D01*
X6352619Y-12437652D01*
X6343095Y-12418605D01*
X6343095Y-12342414D01*
X6352619Y-12323367D01*
X6371667Y-12313843D01*
X6409762Y-12313843D01*
X6428809Y-12323367D01*
X6438333Y-12342414D01*
X6438333Y-12361462D01*
X6343095Y-12380509D01*
X6514524Y-12437652D02*
X6533571Y-12447176D01*
X6571667Y-12447176D01*
X6590714Y-12437652D01*
X6600238Y-12418605D01*
X6600238Y-12409081D01*
X6590714Y-12390033D01*
X6571667Y-12380509D01*
X6543095Y-12380509D01*
X6524048Y-12370986D01*
X6514524Y-12351938D01*
X6514524Y-12342414D01*
X6524048Y-12323367D01*
X6543095Y-12313843D01*
X6571667Y-12313843D01*
X6590714Y-12323367D01*
X6838333Y-12370986D02*
X6990714Y-12370986D01*
X6914524Y-12447176D02*
X6914524Y-12294795D01*
X7324048Y-12313843D02*
X7324048Y-12447176D01*
X7276428Y-12237652D02*
X7228809Y-12380509D01*
X7352619Y-12380509D01*
X7571667Y-12437652D02*
X7590714Y-12447176D01*
X7628809Y-12447176D01*
X7647857Y-12437652D01*
X7657381Y-12418605D01*
X7657381Y-12409081D01*
X7647857Y-12390033D01*
X7628809Y-12380509D01*
X7600238Y-12380509D01*
X7581190Y-12370986D01*
X7571667Y-12351938D01*
X7571667Y-12342414D01*
X7581190Y-12323367D01*
X7600238Y-12313843D01*
X7628809Y-12313843D01*
X7647857Y-12323367D01*
X7771667Y-12447176D02*
X7752619Y-12437652D01*
X7743095Y-12418605D01*
X7743095Y-12247176D01*
X7876428Y-12447176D02*
X7857381Y-12437652D01*
X7847857Y-12428128D01*
X7838333Y-12409081D01*
X7838333Y-12351938D01*
X7847857Y-12332890D01*
X7857381Y-12323367D01*
X7876428Y-12313843D01*
X7905000Y-12313843D01*
X7924048Y-12323367D01*
X7933571Y-12332890D01*
X7943095Y-12351938D01*
X7943095Y-12409081D01*
X7933571Y-12428128D01*
X7924048Y-12437652D01*
X7905000Y-12447176D01*
X7876428Y-12447176D01*
X8000238Y-12313843D02*
X8076428Y-12313843D01*
X8028809Y-12247176D02*
X8028809Y-12418605D01*
X8038333Y-12437652D01*
X8057381Y-12447176D01*
X8076428Y-12447176D01*
X8133571Y-12437652D02*
X8152619Y-12447176D01*
X8190714Y-12447176D01*
X8209762Y-12437652D01*
X8219286Y-12418605D01*
X8219286Y-12409081D01*
X8209762Y-12390033D01*
X8190714Y-12380509D01*
X8162143Y-12380509D01*
X8143095Y-12370986D01*
X8133571Y-12351938D01*
X8133571Y-12342414D01*
X8143095Y-12323367D01*
X8162143Y-12313843D01*
X8190714Y-12313843D01*
X8209762Y-12323367D01*
X8285952Y-12523367D02*
X8295476Y-12513843D01*
X8314524Y-12485271D01*
X8324048Y-12466224D01*
X8333571Y-12437652D01*
X8343095Y-12390033D01*
X8343095Y-12351938D01*
X8333571Y-12304319D01*
X8324048Y-12275748D01*
X8314524Y-12256700D01*
X8295476Y-12228128D01*
X8285952Y-12218605D01*
D13*
X1825000Y-12550700D02*
X1825000Y-12690700D01*
X1755000Y-12620700D02*
X1895000Y-12620700D01*
D10*
X2257381Y-12711176D02*
X2143095Y-12711176D01*
X2200238Y-12711176D02*
X2200238Y-12511176D01*
X2181190Y-12539748D01*
X2162143Y-12558795D01*
X2143095Y-12568319D01*
X2343095Y-12692128D02*
X2352619Y-12701652D01*
X2343095Y-12711176D01*
X2333571Y-12701652D01*
X2343095Y-12692128D01*
X2343095Y-12711176D01*
X2524048Y-12577843D02*
X2524048Y-12711176D01*
X2476429Y-12501652D02*
X2428810Y-12644509D01*
X2552619Y-12644509D01*
X2666905Y-12511176D02*
X2685952Y-12511176D01*
X2705000Y-12520700D01*
X2714524Y-12530224D01*
X2724048Y-12549271D01*
X2733571Y-12587367D01*
X2733571Y-12634986D01*
X2724048Y-12673081D01*
X2714524Y-12692128D01*
X2705000Y-12701652D01*
X2685952Y-12711176D01*
X2666905Y-12711176D01*
X2647857Y-12701652D01*
X2638333Y-12692128D01*
X2628810Y-12673081D01*
X2619286Y-12634986D01*
X2619286Y-12587367D01*
X2628810Y-12549271D01*
X2638333Y-12530224D01*
X2647857Y-12520700D01*
X2666905Y-12511176D01*
X2857381Y-12511176D02*
X2876428Y-12511176D01*
X2895476Y-12520700D01*
X2905000Y-12530224D01*
X2914524Y-12549271D01*
X2924048Y-12587367D01*
X2924048Y-12634986D01*
X2914524Y-12673081D01*
X2905000Y-12692128D01*
X2895476Y-12701652D01*
X2876428Y-12711176D01*
X2857381Y-12711176D01*
X2838333Y-12701652D01*
X2828809Y-12692128D01*
X2819286Y-12673081D01*
X2809762Y-12634986D01*
X2809762Y-12587367D01*
X2819286Y-12549271D01*
X2828809Y-12530224D01*
X2838333Y-12520700D01*
X2857381Y-12511176D01*
X3009762Y-12711176D02*
X3009762Y-12577843D01*
X3009762Y-12596890D02*
X3019286Y-12587367D01*
X3038333Y-12577843D01*
X3066905Y-12577843D01*
X3085952Y-12587367D01*
X3095476Y-12606414D01*
X3095476Y-12711176D01*
X3095476Y-12606414D02*
X3105000Y-12587367D01*
X3124048Y-12577843D01*
X3152619Y-12577843D01*
X3171667Y-12587367D01*
X3181190Y-12606414D01*
X3181190Y-12711176D01*
X3276428Y-12711176D02*
X3276428Y-12577843D01*
X3276428Y-12596890D02*
X3285952Y-12587367D01*
X3305000Y-12577843D01*
X3333571Y-12577843D01*
X3352619Y-12587367D01*
X3362143Y-12606414D01*
X3362143Y-12711176D01*
X3362143Y-12606414D02*
X3371667Y-12587367D01*
X3390714Y-12577843D01*
X3419286Y-12577843D01*
X3438333Y-12587367D01*
X3447857Y-12606414D01*
X3447857Y-12711176D01*
X3838333Y-12501652D02*
X3666905Y-12758795D01*
X4095476Y-12511176D02*
X4114524Y-12511176D01*
X4133571Y-12520700D01*
X4143095Y-12530224D01*
X4152619Y-12549271D01*
X4162143Y-12587367D01*
X4162143Y-12634986D01*
X4152619Y-12673081D01*
X4143095Y-12692128D01*
X4133571Y-12701652D01*
X4114524Y-12711176D01*
X4095476Y-12711176D01*
X4076428Y-12701652D01*
X4066905Y-12692128D01*
X4057381Y-12673081D01*
X4047857Y-12634986D01*
X4047857Y-12587367D01*
X4057381Y-12549271D01*
X4066905Y-12530224D01*
X4076428Y-12520700D01*
X4095476Y-12511176D01*
X4247857Y-12692128D02*
X4257381Y-12701652D01*
X4247857Y-12711176D01*
X4238333Y-12701652D01*
X4247857Y-12692128D01*
X4247857Y-12711176D01*
X4381190Y-12511176D02*
X4400238Y-12511176D01*
X4419286Y-12520700D01*
X4428810Y-12530224D01*
X4438333Y-12549271D01*
X4447857Y-12587367D01*
X4447857Y-12634986D01*
X4438333Y-12673081D01*
X4428810Y-12692128D01*
X4419286Y-12701652D01*
X4400238Y-12711176D01*
X4381190Y-12711176D01*
X4362143Y-12701652D01*
X4352619Y-12692128D01*
X4343095Y-12673081D01*
X4333571Y-12634986D01*
X4333571Y-12587367D01*
X4343095Y-12549271D01*
X4352619Y-12530224D01*
X4362143Y-12520700D01*
X4381190Y-12511176D01*
X4628810Y-12511176D02*
X4533571Y-12511176D01*
X4524048Y-12606414D01*
X4533571Y-12596890D01*
X4552619Y-12587367D01*
X4600238Y-12587367D01*
X4619286Y-12596890D01*
X4628810Y-12606414D01*
X4638333Y-12625462D01*
X4638333Y-12673081D01*
X4628810Y-12692128D01*
X4619286Y-12701652D01*
X4600238Y-12711176D01*
X4552619Y-12711176D01*
X4533571Y-12701652D01*
X4524048Y-12692128D01*
X4819286Y-12511176D02*
X4724048Y-12511176D01*
X4714524Y-12606414D01*
X4724048Y-12596890D01*
X4743095Y-12587367D01*
X4790714Y-12587367D01*
X4809762Y-12596890D01*
X4819286Y-12606414D01*
X4828810Y-12625462D01*
X4828810Y-12673081D01*
X4819286Y-12692128D01*
X4809762Y-12701652D01*
X4790714Y-12711176D01*
X4743095Y-12711176D01*
X4724048Y-12701652D01*
X4714524Y-12692128D01*
X5019286Y-12711176D02*
X4905000Y-12711176D01*
X4962143Y-12711176D02*
X4962143Y-12511176D01*
X4943095Y-12539748D01*
X4924048Y-12558795D01*
X4905000Y-12568319D01*
X5095476Y-12511176D02*
X5095476Y-12549271D01*
X5171667Y-12511176D02*
X5171667Y-12549271D01*
X5466905Y-12787367D02*
X5457381Y-12777843D01*
X5438333Y-12749271D01*
X5428810Y-12730224D01*
X5419286Y-12701652D01*
X5409762Y-12654033D01*
X5409762Y-12615938D01*
X5419286Y-12568319D01*
X5428810Y-12539748D01*
X5438333Y-12520700D01*
X5457381Y-12492128D01*
X5466905Y-12482605D01*
X5647857Y-12711176D02*
X5533571Y-12711176D01*
X5590714Y-12711176D02*
X5590714Y-12511176D01*
X5571667Y-12539748D01*
X5552619Y-12558795D01*
X5533571Y-12568319D01*
X5714524Y-12511176D02*
X5838333Y-12511176D01*
X5771667Y-12587367D01*
X5800238Y-12587367D01*
X5819286Y-12596890D01*
X5828809Y-12606414D01*
X5838333Y-12625462D01*
X5838333Y-12673081D01*
X5828809Y-12692128D01*
X5819286Y-12701652D01*
X5800238Y-12711176D01*
X5743095Y-12711176D01*
X5724048Y-12701652D01*
X5714524Y-12692128D01*
X6009762Y-12511176D02*
X5971667Y-12511176D01*
X5952619Y-12520700D01*
X5943095Y-12530224D01*
X5924048Y-12558795D01*
X5914524Y-12596890D01*
X5914524Y-12673081D01*
X5924048Y-12692128D01*
X5933571Y-12701652D01*
X5952619Y-12711176D01*
X5990714Y-12711176D01*
X6009762Y-12701652D01*
X6019286Y-12692128D01*
X6028809Y-12673081D01*
X6028809Y-12625462D01*
X6019286Y-12606414D01*
X6009762Y-12596890D01*
X5990714Y-12587367D01*
X5952619Y-12587367D01*
X5933571Y-12596890D01*
X5924048Y-12606414D01*
X5914524Y-12625462D01*
X6266905Y-12711176D02*
X6266905Y-12511176D01*
X6352619Y-12711176D02*
X6352619Y-12606414D01*
X6343095Y-12587367D01*
X6324048Y-12577843D01*
X6295476Y-12577843D01*
X6276428Y-12587367D01*
X6266905Y-12596890D01*
X6476428Y-12711176D02*
X6457381Y-12701652D01*
X6447857Y-12692128D01*
X6438333Y-12673081D01*
X6438333Y-12615938D01*
X6447857Y-12596890D01*
X6457381Y-12587367D01*
X6476428Y-12577843D01*
X6505000Y-12577843D01*
X6524048Y-12587367D01*
X6533571Y-12596890D01*
X6543095Y-12615938D01*
X6543095Y-12673081D01*
X6533571Y-12692128D01*
X6524048Y-12701652D01*
X6505000Y-12711176D01*
X6476428Y-12711176D01*
X6657381Y-12711176D02*
X6638333Y-12701652D01*
X6628809Y-12682605D01*
X6628809Y-12511176D01*
X6809762Y-12701652D02*
X6790714Y-12711176D01*
X6752619Y-12711176D01*
X6733571Y-12701652D01*
X6724048Y-12682605D01*
X6724048Y-12606414D01*
X6733571Y-12587367D01*
X6752619Y-12577843D01*
X6790714Y-12577843D01*
X6809762Y-12587367D01*
X6819286Y-12606414D01*
X6819286Y-12625462D01*
X6724048Y-12644509D01*
X6895476Y-12701652D02*
X6914524Y-12711176D01*
X6952619Y-12711176D01*
X6971667Y-12701652D01*
X6981190Y-12682605D01*
X6981190Y-12673081D01*
X6971667Y-12654033D01*
X6952619Y-12644509D01*
X6924048Y-12644509D01*
X6905000Y-12634986D01*
X6895476Y-12615938D01*
X6895476Y-12606414D01*
X6905000Y-12587367D01*
X6924048Y-12577843D01*
X6952619Y-12577843D01*
X6971667Y-12587367D01*
X7047857Y-12787367D02*
X7057381Y-12777843D01*
X7076428Y-12749271D01*
X7085952Y-12730224D01*
X7095476Y-12701652D01*
X7105000Y-12654033D01*
X7105000Y-12615938D01*
X7095476Y-12568319D01*
X7085952Y-12539748D01*
X7076428Y-12520700D01*
X7057381Y-12492128D01*
X7047857Y-12482605D01*
D14*
X1873473Y-12936673D02*
X1873473Y-12832727D01*
X1769527Y-12832727D01*
X1769527Y-12936673D01*
X1873473Y-12936673D01*
D10*
X2257381Y-12975176D02*
X2143095Y-12975176D01*
X2200238Y-12975176D02*
X2200238Y-12775176D01*
X2181190Y-12803748D01*
X2162143Y-12822795D01*
X2143095Y-12832319D01*
X2343095Y-12956128D02*
X2352619Y-12965652D01*
X2343095Y-12975176D01*
X2333571Y-12965652D01*
X2343095Y-12956128D01*
X2343095Y-12975176D01*
X2524048Y-12841843D02*
X2524048Y-12975176D01*
X2476429Y-12765652D02*
X2428810Y-12908509D01*
X2552619Y-12908509D01*
X2609762Y-12775176D02*
X2743095Y-12775176D01*
X2657381Y-12975176D01*
X2857381Y-12775176D02*
X2876428Y-12775176D01*
X2895476Y-12784700D01*
X2905000Y-12794224D01*
X2914524Y-12813271D01*
X2924048Y-12851367D01*
X2924048Y-12898986D01*
X2914524Y-12937081D01*
X2905000Y-12956128D01*
X2895476Y-12965652D01*
X2876428Y-12975176D01*
X2857381Y-12975176D01*
X2838333Y-12965652D01*
X2828809Y-12956128D01*
X2819286Y-12937081D01*
X2809762Y-12898986D01*
X2809762Y-12851367D01*
X2819286Y-12813271D01*
X2828809Y-12794224D01*
X2838333Y-12784700D01*
X2857381Y-12775176D01*
X3009762Y-12975176D02*
X3009762Y-12841843D01*
X3009762Y-12860890D02*
X3019286Y-12851367D01*
X3038333Y-12841843D01*
X3066905Y-12841843D01*
X3085952Y-12851367D01*
X3095476Y-12870414D01*
X3095476Y-12975176D01*
X3095476Y-12870414D02*
X3105000Y-12851367D01*
X3124048Y-12841843D01*
X3152619Y-12841843D01*
X3171667Y-12851367D01*
X3181190Y-12870414D01*
X3181190Y-12975176D01*
X3276428Y-12975176D02*
X3276428Y-12841843D01*
X3276428Y-12860890D02*
X3285952Y-12851367D01*
X3305000Y-12841843D01*
X3333571Y-12841843D01*
X3352619Y-12851367D01*
X3362143Y-12870414D01*
X3362143Y-12975176D01*
X3362143Y-12870414D02*
X3371667Y-12851367D01*
X3390714Y-12841843D01*
X3419286Y-12841843D01*
X3438333Y-12851367D01*
X3447857Y-12870414D01*
X3447857Y-12975176D01*
X3838333Y-12765652D02*
X3666905Y-13022795D01*
X4095476Y-12775176D02*
X4114524Y-12775176D01*
X4133571Y-12784700D01*
X4143095Y-12794224D01*
X4152619Y-12813271D01*
X4162143Y-12851367D01*
X4162143Y-12898986D01*
X4152619Y-12937081D01*
X4143095Y-12956128D01*
X4133571Y-12965652D01*
X4114524Y-12975176D01*
X4095476Y-12975176D01*
X4076428Y-12965652D01*
X4066905Y-12956128D01*
X4057381Y-12937081D01*
X4047857Y-12898986D01*
X4047857Y-12851367D01*
X4057381Y-12813271D01*
X4066905Y-12794224D01*
X4076428Y-12784700D01*
X4095476Y-12775176D01*
X4247857Y-12956128D02*
X4257381Y-12965652D01*
X4247857Y-12975176D01*
X4238333Y-12965652D01*
X4247857Y-12956128D01*
X4247857Y-12975176D01*
X4381190Y-12775176D02*
X4400238Y-12775176D01*
X4419286Y-12784700D01*
X4428810Y-12794224D01*
X4438333Y-12813271D01*
X4447857Y-12851367D01*
X4447857Y-12898986D01*
X4438333Y-12937081D01*
X4428810Y-12956128D01*
X4419286Y-12965652D01*
X4400238Y-12975176D01*
X4381190Y-12975176D01*
X4362143Y-12965652D01*
X4352619Y-12956128D01*
X4343095Y-12937081D01*
X4333571Y-12898986D01*
X4333571Y-12851367D01*
X4343095Y-12813271D01*
X4352619Y-12794224D01*
X4362143Y-12784700D01*
X4381190Y-12775176D01*
X4628810Y-12775176D02*
X4533571Y-12775176D01*
X4524048Y-12870414D01*
X4533571Y-12860890D01*
X4552619Y-12851367D01*
X4600238Y-12851367D01*
X4619286Y-12860890D01*
X4628810Y-12870414D01*
X4638333Y-12889462D01*
X4638333Y-12937081D01*
X4628810Y-12956128D01*
X4619286Y-12965652D01*
X4600238Y-12975176D01*
X4552619Y-12975176D01*
X4533571Y-12965652D01*
X4524048Y-12956128D01*
X4705000Y-12775176D02*
X4838333Y-12775176D01*
X4752619Y-12975176D01*
X4924048Y-12975176D02*
X4962143Y-12975176D01*
X4981190Y-12965652D01*
X4990714Y-12956128D01*
X5009762Y-12927557D01*
X5019286Y-12889462D01*
X5019286Y-12813271D01*
X5009762Y-12794224D01*
X5000238Y-12784700D01*
X4981190Y-12775176D01*
X4943095Y-12775176D01*
X4924048Y-12784700D01*
X4914524Y-12794224D01*
X4905000Y-12813271D01*
X4905000Y-12860890D01*
X4914524Y-12879938D01*
X4924048Y-12889462D01*
X4943095Y-12898986D01*
X4981190Y-12898986D01*
X5000238Y-12889462D01*
X5009762Y-12879938D01*
X5019286Y-12860890D01*
X5095476Y-12775176D02*
X5095476Y-12813271D01*
X5171667Y-12775176D02*
X5171667Y-12813271D01*
X5466905Y-13051367D02*
X5457381Y-13041843D01*
X5438333Y-13013271D01*
X5428810Y-12994224D01*
X5419286Y-12965652D01*
X5409762Y-12918033D01*
X5409762Y-12879938D01*
X5419286Y-12832319D01*
X5428810Y-12803748D01*
X5438333Y-12784700D01*
X5457381Y-12756128D01*
X5466905Y-12746605D01*
X5628809Y-12775176D02*
X5590714Y-12775176D01*
X5571667Y-12784700D01*
X5562143Y-12794224D01*
X5543095Y-12822795D01*
X5533571Y-12860890D01*
X5533571Y-12937081D01*
X5543095Y-12956128D01*
X5552619Y-12965652D01*
X5571667Y-12975176D01*
X5609762Y-12975176D01*
X5628809Y-12965652D01*
X5638333Y-12956128D01*
X5647857Y-12937081D01*
X5647857Y-12889462D01*
X5638333Y-12870414D01*
X5628809Y-12860890D01*
X5609762Y-12851367D01*
X5571667Y-12851367D01*
X5552619Y-12860890D01*
X5543095Y-12870414D01*
X5533571Y-12889462D01*
X5762143Y-12860890D02*
X5743095Y-12851367D01*
X5733571Y-12841843D01*
X5724048Y-12822795D01*
X5724048Y-12813271D01*
X5733571Y-12794224D01*
X5743095Y-12784700D01*
X5762143Y-12775176D01*
X5800238Y-12775176D01*
X5819286Y-12784700D01*
X5828809Y-12794224D01*
X5838333Y-12813271D01*
X5838333Y-12822795D01*
X5828809Y-12841843D01*
X5819286Y-12851367D01*
X5800238Y-12860890D01*
X5762143Y-12860890D01*
X5743095Y-12870414D01*
X5733571Y-12879938D01*
X5724048Y-12898986D01*
X5724048Y-12937081D01*
X5733571Y-12956128D01*
X5743095Y-12965652D01*
X5762143Y-12975176D01*
X5800238Y-12975176D01*
X5819286Y-12965652D01*
X5828809Y-12956128D01*
X5838333Y-12937081D01*
X5838333Y-12898986D01*
X5828809Y-12879938D01*
X5819286Y-12870414D01*
X5800238Y-12860890D01*
X6076428Y-12975176D02*
X6076428Y-12775176D01*
X6162143Y-12975176D02*
X6162143Y-12870414D01*
X6152619Y-12851367D01*
X6133571Y-12841843D01*
X6105000Y-12841843D01*
X6085952Y-12851367D01*
X6076428Y-12860890D01*
X6285952Y-12975176D02*
X6266905Y-12965652D01*
X6257381Y-12956128D01*
X6247857Y-12937081D01*
X6247857Y-12879938D01*
X6257381Y-12860890D01*
X6266905Y-12851367D01*
X6285952Y-12841843D01*
X6314524Y-12841843D01*
X6333571Y-12851367D01*
X6343095Y-12860890D01*
X6352619Y-12879938D01*
X6352619Y-12937081D01*
X6343095Y-12956128D01*
X6333571Y-12965652D01*
X6314524Y-12975176D01*
X6285952Y-12975176D01*
X6466905Y-12975176D02*
X6447857Y-12965652D01*
X6438333Y-12946605D01*
X6438333Y-12775176D01*
X6619286Y-12965652D02*
X6600238Y-12975176D01*
X6562143Y-12975176D01*
X6543095Y-12965652D01*
X6533571Y-12946605D01*
X6533571Y-12870414D01*
X6543095Y-12851367D01*
X6562143Y-12841843D01*
X6600238Y-12841843D01*
X6619286Y-12851367D01*
X6628809Y-12870414D01*
X6628809Y-12889462D01*
X6533571Y-12908509D01*
X6705000Y-12965652D02*
X6724048Y-12975176D01*
X6762143Y-12975176D01*
X6781190Y-12965652D01*
X6790714Y-12946605D01*
X6790714Y-12937081D01*
X6781190Y-12918033D01*
X6762143Y-12908509D01*
X6733571Y-12908509D01*
X6714524Y-12898986D01*
X6705000Y-12879938D01*
X6705000Y-12870414D01*
X6714524Y-12851367D01*
X6733571Y-12841843D01*
X6762143Y-12841843D01*
X6781190Y-12851367D01*
X6857381Y-13051367D02*
X6866905Y-13041843D01*
X6885952Y-13013271D01*
X6895476Y-12994224D01*
X6905000Y-12965652D01*
X6914524Y-12918033D01*
X6914524Y-12879938D01*
X6905000Y-12832319D01*
X6895476Y-12803748D01*
X6885952Y-12784700D01*
X6866905Y-12756128D01*
X6857381Y-12746605D01*
M02*
