M48
; DRILL file {KiCad 6.0.8-1.fc36} date Sat 15 Oct 2022 08:34:22 AM CEST
; FORMAT={-:-/ absolute / inch / decimal}
; #@! TF.CreationDate,2022-10-15T08:34:22+02:00
; #@! TF.GenerationSoftware,Kicad,Pcbnew,6.0.8-1.fc36
; #@! TF.FileFunction,Plated,1,2,PTH
FMAT,2
INCH
; #@! TA.AperFunction,Plated,PTH,ViaDrill
T1C0.0157
; #@! TA.AperFunction,Plated,PTH,ComponentDrill
T2C0.0236
; #@! TA.AperFunction,Plated,PTH,ComponentDrill
T3C0.0551
; #@! TA.AperFunction,Plated,PTH,ComponentDrill
T4C0.0579
%
G90
G05
T1
X2.6331Y-2.9835
X2.7161Y-2.9858
X2.7323Y-3.037
X2.9744Y-3.037
X2.9913Y-2.9882
X3.0079Y-4.2421
X3.4252Y-3.9911
X4.5474Y-3.4827
X4.5866Y-3.4852
X4.626Y-3.4852
X4.6437Y-2.9449
X4.6486Y-3.1063
X4.66Y-3.87
X4.6872Y-3.8228
X4.7102Y-3.5301
X4.7254Y-3.1772
X4.7599Y-3.1978
X4.7825Y-3.9469
X4.7933Y-2.9705
X4.8013Y-3.2256
X4.8406Y-2.9803
X4.8465Y-3.2343
X4.86Y-3.3
X4.8661Y-3.0384
X4.8996Y-3.0728
X4.9104Y-2.315
X4.9124Y-1.565
X4.9193Y-3.2795
X4.9252Y-3.4213
X4.9374Y-1.3134
X4.9661Y-1.5252
X4.9728Y-1.4137
X4.9994Y-1.8028
X5.0016Y-1.5657
X5.0079Y-3.0354
X5.0268Y-1.8535
X5.0764Y-1.8287
X5.09Y-3.74
X5.1634Y-3.4298
X5.1644Y-3.0728
X5.165Y-1.565
X5.2136Y-3.3661
X5.23Y-3.75
X5.24Y-3.61
X5.29Y-3.46
X5.3022Y-3.3337
X5.3102Y-3.5402
X5.3169Y-4.1289
X5.3484Y-3.5197
X5.3907Y-3.8228
X5.3972Y-3.4343
X5.44Y-3.8622
X5.4874Y-3.4851
X5.5166Y-3.4559
X5.561Y-3.7894
X5.5876Y-3.0728
X5.6181Y-3.8228
X5.665Y-3.8776
X5.82Y-3.91
X5.96Y-3.17
X7.5736Y-3.0287
X7.6Y-4.0122
T3
X1.2763Y-1.8498
X1.2763Y-2.075
X1.2763Y-2.5998
X1.2763Y-2.825
X1.5362Y-1.8498
X1.5362Y-2.075
X1.5362Y-2.5998
X1.5362Y-2.825
X1.5576Y-1.0998
X1.5576Y-1.325
X1.8174Y-1.0998
X1.8174Y-1.325
X2.1201Y-2.5998
X2.1201Y-2.825
X2.3076Y-1.8498
X2.3076Y-2.075
X2.3799Y-2.5998
X2.3799Y-2.825
X2.4013Y-4.0998
X2.4013Y-4.325
X2.4951Y-1.0998
X2.4951Y-1.325
X2.5674Y-1.8498
X2.5674Y-2.075
X2.6612Y-4.0998
X2.6612Y-4.325
X2.7549Y-1.0998
X2.7549Y-1.325
X2.8701Y-2.5998
X2.8701Y-2.825
X2.8701Y-3.3498
X2.8701Y-3.575
X3.0576Y-1.8498
X3.0576Y-2.075
X3.1299Y-2.5998
X3.1299Y-2.825
X3.1299Y-3.3498
X3.1299Y-3.575
X3.2451Y-1.0998
X3.2451Y-1.325
X3.3174Y-1.8498
X3.3174Y-2.075
X3.5049Y-1.0998
X3.5049Y-1.325
X3.5263Y-4.0998
X3.5263Y-4.325
X3.6201Y-2.5998
X3.6201Y-2.825
X3.7862Y-4.0998
X3.7862Y-4.325
X3.8076Y-1.8498
X3.8076Y-2.075
X3.8799Y-2.5998
X3.8799Y-2.825
X3.9951Y-3.3498
X3.9951Y-3.575
X4.0674Y-1.8498
X4.0674Y-2.075
X4.2549Y-3.3498
X4.2549Y-3.575
X4.4638Y-2.5998
X4.4638Y-2.825
X4.5576Y-1.8498
X4.5576Y-2.075
X4.7237Y-2.5998
X4.7237Y-2.825
X4.8174Y-1.8498
X4.8174Y-2.075
X5.3076Y-1.8498
X5.3076Y-2.075
X5.4013Y-2.5998
X5.4013Y-2.825
X5.5674Y-1.8498
X5.5674Y-2.075
X5.6612Y-2.5998
X5.6612Y-2.825
X5.8701Y-3.3498
X5.8701Y-3.575
X6.0576Y-1.8498
X6.0576Y-2.075
X6.1299Y-3.3498
X6.1299Y-3.575
X6.2451Y-2.5998
X6.2451Y-2.825
X6.3174Y-1.8498
X6.3174Y-2.075
X6.3388Y-4.0998
X6.3388Y-4.325
X6.5049Y-2.5998
X6.5049Y-2.825
X6.5987Y-4.0998
X6.5987Y-4.325
X6.6201Y-1.0998
X6.6201Y-1.325
X6.8076Y-1.8498
X6.8076Y-2.075
X6.8799Y-1.0998
X6.8799Y-1.325
X6.9951Y-2.5998
X6.9951Y-2.825
X6.9951Y-3.3498
X6.9951Y-3.575
X7.0674Y-1.8498
X7.0674Y-2.075
X7.2549Y-2.5998
X7.2549Y-2.825
X7.2549Y-3.3498
X7.2549Y-3.575
X7.3701Y-1.0998
X7.3701Y-1.325
X7.4638Y-4.0998
X7.4638Y-4.325
X7.5576Y-1.8498
X7.5576Y-2.075
X7.6299Y-1.0998
X7.6299Y-1.325
X7.7237Y-4.0998
X7.7237Y-4.325
X7.7451Y-2.5998
X7.7451Y-2.825
X7.8174Y-1.8498
X7.8174Y-2.075
X8.0049Y-2.5998
X8.0049Y-2.825
X8.3076Y-1.0998
X8.3076Y-1.325
X8.5674Y-1.0998
X8.5674Y-1.325
X8.5888Y-1.8498
X8.5888Y-2.075
X8.5888Y-2.5998
X8.5888Y-2.825
X8.8487Y-1.8498
X8.8487Y-2.075
X8.8487Y-2.5998
X8.8487Y-2.825
T4
X1.2562Y-1.775
X1.2562Y-2.525
X1.5062Y-1.675
X1.5062Y-2.425
X1.5375Y-1.025
X1.7875Y-0.925
X2.1Y-2.525
X2.2875Y-1.775
X2.35Y-2.425
X2.3813Y-4.025
X2.475Y-1.025
X2.5375Y-1.675
X2.6313Y-3.925
X2.725Y-0.925
X2.85Y-2.525
X2.85Y-3.275
X3.0375Y-1.775
X3.1Y-2.425
X3.1Y-3.175
X3.225Y-1.025
X3.2875Y-1.675
X3.475Y-0.925
X3.5063Y-4.025
X3.6Y-2.525
X3.7563Y-3.925
X3.7875Y-1.775
X3.85Y-2.425
X3.975Y-3.275
X4.0375Y-1.675
X4.225Y-3.175
X4.4437Y-2.525
X4.5375Y-1.775
X4.6937Y-2.425
X4.7875Y-1.675
X5.2875Y-1.775
X5.3812Y-2.525
X5.5375Y-1.675
X5.6312Y-2.425
X5.85Y-3.275
X6.0375Y-1.775
X6.1Y-3.175
X6.225Y-2.525
X6.2875Y-1.675
X6.3187Y-4.025
X6.475Y-2.425
X6.5687Y-3.925
X6.6Y-1.025
X6.7875Y-1.775
X6.85Y-0.925
X6.975Y-2.525
X6.975Y-3.275
X7.0375Y-1.675
X7.225Y-2.425
X7.225Y-3.175
X7.35Y-1.025
X7.4437Y-4.025
X7.5375Y-1.775
X7.6Y-0.925
X7.6937Y-3.925
X7.725Y-2.525
X7.7875Y-1.675
X7.975Y-2.425
X8.2875Y-1.025
X8.5375Y-0.925
X8.5687Y-1.775
X8.5687Y-2.525
X8.8187Y-1.675
X8.8187Y-2.425
T2
G00X4.8933Y-1.0361
M15
G01X4.8933Y-1.0597
M16
G05
G00X4.8933Y-1.1908
M15
G01X4.8933Y-1.2342
M16
G05
G00X5.2335Y-1.0361
M15
G01X5.2335Y-1.0597
M16
G05
G00X5.2335Y-1.1908
M15
G01X5.2335Y-1.2342
M16
G05
T0
M30
