M48
; DRILL file {KiCad 6.0.8-1.fc36} date Sat 15 Oct 2022 08:34:22 AM CEST
; FORMAT={-:-/ absolute / inch / decimal}
; #@! TF.CreationDate,2022-10-15T08:34:22+02:00
; #@! TF.GenerationSoftware,Kicad,Pcbnew,6.0.8-1.fc36
; #@! TF.FileFunction,NonPlated,1,2,NPTH
FMAT,2
INCH
; #@! TA.AperFunction,NonPlated,NPTH,ComponentDrill
T1C0.0256
; #@! TA.AperFunction,NonPlated,NPTH,ComponentDrill
T2C0.0689
; #@! TA.AperFunction,NonPlated,NPTH,ComponentDrill
T3C0.1570
%
G90
G05
T1
X4.9496Y-1.1916
X5.1772Y-1.1916
T2
X1.2063Y-1.875
X1.2063Y-2.625
X1.4875Y-1.125
X1.6062Y-1.875
X1.6062Y-2.625
X1.8875Y-1.125
X2.05Y-2.625
X2.2375Y-1.875
X2.3313Y-4.125
X2.425Y-1.125
X2.45Y-2.625
X2.6375Y-1.875
X2.7313Y-4.125
X2.8Y-2.625
X2.8Y-3.375
X2.825Y-1.125
X2.9875Y-1.875
X3.175Y-1.125
X3.2Y-2.625
X3.2Y-3.375
X3.3875Y-1.875
X3.4563Y-4.125
X3.55Y-2.625
X3.575Y-1.125
X3.7375Y-1.875
X3.8563Y-4.125
X3.925Y-3.375
X3.95Y-2.625
X4.1375Y-1.875
X4.325Y-3.375
X4.3937Y-2.625
X4.4875Y-1.875
X4.7938Y-2.625
X4.8875Y-1.875
X5.2375Y-1.875
X5.3312Y-2.625
X5.6375Y-1.875
X5.7313Y-2.625
X5.8Y-3.375
X5.9875Y-1.875
X6.175Y-2.625
X6.2Y-3.375
X6.2687Y-4.125
X6.3875Y-1.875
X6.55Y-1.125
X6.575Y-2.625
X6.6687Y-4.125
X6.7375Y-1.875
X6.925Y-2.625
X6.925Y-3.375
X6.95Y-1.125
X7.1375Y-1.875
X7.3Y-1.125
X7.325Y-2.625
X7.325Y-3.375
X7.3937Y-4.125
X7.4875Y-1.875
X7.675Y-2.625
X7.7Y-1.125
X7.7937Y-4.125
X7.8875Y-1.875
X8.075Y-2.625
X8.2375Y-1.125
X8.5187Y-1.875
X8.5187Y-2.625
X8.6375Y-1.125
X8.9187Y-1.875
X8.9187Y-2.625
T3
X1.4062Y-1.875
X1.4062Y-2.625
X1.6875Y-1.125
X2.25Y-2.625
X2.4375Y-1.875
X2.5313Y-4.125
X2.625Y-1.125
X3.0Y-2.625
X3.0Y-3.375
X3.1875Y-1.875
X3.375Y-1.125
X3.6563Y-4.125
X3.75Y-2.625
X3.9375Y-1.875
X4.125Y-3.375
X4.5938Y-2.625
X4.6875Y-1.875
X5.4375Y-1.875
X5.5312Y-2.625
X6.0Y-3.375
X6.1875Y-1.875
X6.375Y-2.625
X6.4687Y-4.125
X6.75Y-1.125
X6.9375Y-1.875
X7.125Y-2.625
X7.125Y-3.375
X7.5Y-1.125
X7.5937Y-4.125
X7.6875Y-1.875
X7.875Y-2.625
X8.4375Y-1.125
X8.7188Y-1.875
X8.7188Y-2.625
T0
M30
