%TF.GenerationSoftware,KiCad,Pcbnew,6.0.8-1.fc36*%
%TF.CreationDate,2022-10-15T08:34:22+02:00*%
%TF.ProjectId,klacker_small,6b6c6163-6b65-4725-9f73-6d616c6c2e6b,rev?*%
%TF.SameCoordinates,Original*%
%TF.FileFunction,Drillmap*%
%TF.FilePolarity,Positive*%
%FSLAX45Y45*%
G04 Gerber Fmt 4.5, Leading zero omitted, Abs format (unit mm)*
G04 Created by KiCad (PCBNEW 6.0.8-1.fc36) date 2022-10-15 08:34:22*
%MOMM*%
%LPD*%
G01*
G04 APERTURE LIST*
%ADD10C,0.200000*%
%ADD11C,0.065000*%
%ADD12C,0.175000*%
%ADD13C,0.398780*%
G04 APERTURE END LIST*
D10*
X19534057Y-9378335D02*
X19542091Y-9397414D01*
X19552650Y-9416702D01*
X19563998Y-9433749D01*
X19573635Y-9446327D01*
X2540615Y-7624893D02*
X2521536Y-7616859D01*
X2502248Y-7606300D01*
X2485201Y-7594952D01*
X2472623Y-7585315D01*
X20474240Y-9707438D02*
X20478154Y-9727205D01*
X20478750Y-9737700D01*
X1996373Y-5680315D02*
X1980268Y-5666260D01*
X1965218Y-5651121D01*
X1951407Y-5635115D01*
X1939021Y-5618461D01*
X1928242Y-5601374D01*
X1925039Y-5595621D01*
X23642762Y-5723190D02*
X23622995Y-5727104D01*
X23612500Y-5727700D01*
X6186740Y-9367962D02*
X6190654Y-9348195D01*
X6191250Y-9337700D01*
X2657500Y-3822700D02*
X2678284Y-3820481D01*
X2698135Y-3814893D01*
X9520490Y-2087438D02*
X9524404Y-2107205D01*
X9525000Y-2117700D01*
X14923115Y-11434893D02*
X14904035Y-11426859D01*
X14884748Y-11416300D01*
X14867701Y-11404952D01*
X14855123Y-11395315D01*
X1905000Y-4022700D02*
X1907219Y-4001916D01*
X1912807Y-3982065D01*
X5243260Y-11272962D02*
X5239346Y-11253195D01*
X5238750Y-11242700D01*
X14716365Y-11086573D02*
X14702310Y-11070468D01*
X14687171Y-11055418D01*
X14671165Y-11041607D01*
X14654511Y-11029221D01*
X14637424Y-11018442D01*
X14631671Y-11015239D01*
X5438750Y-11442700D02*
X10753750Y-11442700D01*
X16192500Y-2117700D02*
X16192500Y-2670200D01*
X5238750Y-9737700D02*
X5238750Y-11242700D01*
X14783789Y-11310621D02*
X14774980Y-11292194D01*
X14768260Y-11272962D01*
X23356289Y-5859779D02*
X23347480Y-5878205D01*
X23340760Y-5897438D01*
X6099877Y-9490315D02*
X6115982Y-9476260D01*
X6131032Y-9461121D01*
X6144843Y-9445116D01*
X6157229Y-9428461D01*
X6168008Y-9411374D01*
X6171211Y-9405621D01*
X6021512Y-7637210D02*
X6001745Y-7633296D01*
X5991250Y-7632700D01*
X20478750Y-11242700D02*
X20478750Y-9737700D01*
X11045123Y-11042585D02*
X11029018Y-11056640D01*
X11013968Y-11071779D01*
X11000157Y-11087784D01*
X10987771Y-11104439D01*
X10976992Y-11121526D01*
X10973789Y-11127279D01*
X23495615Y-5735507D02*
X23476535Y-5743540D01*
X23457248Y-5754099D01*
X23440201Y-5765448D01*
X23427623Y-5775085D01*
X23680421Y-5707661D02*
X23661994Y-5716470D01*
X23642762Y-5723190D01*
X22660000Y-1917700D02*
X16392500Y-1917700D01*
X19726250Y-7632700D02*
X19705466Y-7634919D01*
X19685615Y-7640507D01*
X20278750Y-9537700D02*
X19726250Y-9537700D01*
X16172461Y-2738121D02*
X16181270Y-2719695D01*
X16187990Y-2700462D01*
X6171211Y-9405621D02*
X6180020Y-9387195D01*
X6186740Y-9367962D01*
X1905000Y-4022700D02*
X1905000Y-5527700D01*
X2373443Y-5887065D02*
X2365409Y-5867985D01*
X2354850Y-5848698D01*
X2343502Y-5831651D01*
X2333865Y-5819073D01*
X3027238Y-1922210D02*
X3047005Y-1918296D01*
X3057500Y-1917700D01*
X14594012Y-10999710D02*
X14574245Y-10995796D01*
X14563750Y-10995200D01*
X19526250Y-9337700D02*
X19526250Y-7832700D01*
X2766127Y-3775315D02*
X2782232Y-3761260D01*
X2797282Y-3746121D01*
X2811093Y-3730115D01*
X2823479Y-3713461D01*
X2834258Y-3696374D01*
X2837461Y-3690621D01*
X1912807Y-3982065D02*
X1920840Y-3962985D01*
X1931399Y-3943698D01*
X1942748Y-3926651D01*
X1952385Y-3914073D01*
X23336250Y-7432700D02*
X23334031Y-7453484D01*
X23328443Y-7473335D01*
X23029738Y-3818190D02*
X23049505Y-3822104D01*
X23060000Y-3822700D01*
X23427623Y-5775085D02*
X23411518Y-5789139D01*
X23396468Y-5804279D01*
X23382657Y-5820284D01*
X23370271Y-5836939D01*
X23359492Y-5854026D01*
X23356289Y-5859779D01*
X10945943Y-11283335D02*
X10937909Y-11302414D01*
X10927350Y-11321701D01*
X10916002Y-11338749D01*
X10906365Y-11351327D01*
X19726250Y-7632700D02*
X23136250Y-7632700D01*
X9365635Y-1925507D02*
X9384714Y-1933540D01*
X9404002Y-1944099D01*
X9421049Y-1955448D01*
X9433627Y-1965085D01*
X12358750Y-2570200D02*
X12358750Y-2670200D01*
X5991250Y-9537700D02*
X6012034Y-9535481D01*
X6031885Y-9529893D01*
X23807990Y-3992438D02*
X23811904Y-4012205D01*
X23812500Y-4022700D01*
X16192500Y-2117700D02*
X16194719Y-2096916D01*
X16200307Y-2077065D01*
X2037079Y-3842739D02*
X2055505Y-3833930D01*
X2074738Y-3827210D01*
X14963750Y-11442700D02*
X14942966Y-11440481D01*
X14923115Y-11434893D01*
X13358750Y-2670200D02*
X13358750Y-2570200D01*
X22855490Y-2087438D02*
X22859404Y-2107205D01*
X22860000Y-2117700D01*
X22992079Y-3802661D02*
X23010505Y-3811470D01*
X23029738Y-3818190D01*
X23328443Y-7473335D02*
X23320409Y-7492414D01*
X23309850Y-7511701D01*
X23298502Y-7528749D01*
X23288865Y-7541327D01*
X16362238Y-1922210D02*
X16382005Y-1918296D01*
X16392500Y-1917700D01*
X5238750Y-9737700D02*
X5240969Y-9716916D01*
X5246557Y-9697065D01*
X2211512Y-5732210D02*
X2191745Y-5728296D01*
X2181250Y-5727700D01*
X22867807Y-3663335D02*
X22875840Y-3682414D01*
X22886399Y-3701701D01*
X22897748Y-3718749D01*
X22907385Y-3731327D01*
X23204171Y-7612661D02*
X23185744Y-7621470D01*
X23166512Y-7628190D01*
X11153750Y-10995200D02*
X14563750Y-10995200D01*
X22907385Y-3731327D02*
X22921439Y-3747432D01*
X22936579Y-3762482D01*
X22952584Y-3776293D01*
X22969239Y-3788679D01*
X22986326Y-3799458D01*
X22992079Y-3802661D01*
X9525000Y-2670200D02*
X9525000Y-2117700D01*
X10821671Y-11422661D02*
X10803245Y-11431470D01*
X10784012Y-11438190D01*
X2904885Y-2009073D02*
X2918939Y-1992968D01*
X2934079Y-1977918D01*
X2950084Y-1964107D01*
X2966739Y-1951721D01*
X2983826Y-1940942D01*
X2989579Y-1937739D01*
X23536250Y-5727700D02*
X23515466Y-5729919D01*
X23495615Y-5735507D01*
X5246557Y-9697065D02*
X5254591Y-9677986D01*
X5265150Y-9658698D01*
X5276498Y-9641651D01*
X5286135Y-9629073D01*
X2989579Y-1937739D02*
X3008005Y-1928930D01*
X3027238Y-1922210D01*
X20346671Y-11422661D02*
X20328245Y-11431470D01*
X20309012Y-11438190D01*
X20309012Y-11438190D02*
X20289245Y-11442104D01*
X20278750Y-11442700D01*
X23765115Y-5636327D02*
X23751060Y-5652432D01*
X23735921Y-5667482D01*
X23719915Y-5681293D01*
X23703261Y-5693679D01*
X23686174Y-5704458D01*
X23680421Y-5707661D01*
X19617623Y-7680085D02*
X19601518Y-7694139D01*
X19586468Y-7709279D01*
X19572657Y-7725284D01*
X19560271Y-7741939D01*
X19549492Y-7759026D01*
X19546289Y-7764779D01*
X23792461Y-3954779D02*
X23801270Y-3973205D01*
X23807990Y-3992438D01*
X2064365Y-5719893D02*
X2045285Y-5711859D01*
X2025998Y-5701300D01*
X2008951Y-5689952D01*
X1996373Y-5680315D01*
X5286135Y-9629073D02*
X5300190Y-9612968D01*
X5315329Y-9597918D01*
X5331334Y-9584107D01*
X5347989Y-9571721D01*
X5365076Y-9560942D01*
X5370829Y-9557739D01*
X2385760Y-7462962D02*
X2381846Y-7443195D01*
X2381250Y-7432700D01*
X9325000Y-1917700D02*
X3057500Y-1917700D01*
X16200307Y-2077065D02*
X16208340Y-2057985D01*
X16218899Y-2038698D01*
X16230248Y-2021651D01*
X16239885Y-2009073D01*
X14768260Y-11272962D02*
X14764346Y-11253195D01*
X14763750Y-11242700D01*
X20470943Y-11283335D02*
X20462909Y-11302414D01*
X20452350Y-11321701D01*
X20441002Y-11338749D01*
X20431365Y-11351327D01*
X14855123Y-11395315D02*
X14839018Y-11381260D01*
X14823968Y-11366121D01*
X14810157Y-11350115D01*
X14797771Y-11333461D01*
X14786992Y-11316374D01*
X14783789Y-11310621D01*
X16033135Y-2862393D02*
X16052214Y-2854359D01*
X16071501Y-2843800D01*
X16088549Y-2832452D01*
X16101127Y-2822815D01*
X12158750Y-2870200D02*
X12179534Y-2867981D01*
X12199385Y-2862393D01*
X10784012Y-11438190D02*
X10764245Y-11442104D01*
X10753750Y-11442700D01*
X20458711Y-9669779D02*
X20467520Y-9688205D01*
X20474240Y-9707438D01*
X10906365Y-11351327D02*
X10892310Y-11367432D01*
X10877171Y-11382482D01*
X10861166Y-11396293D01*
X10844511Y-11408679D01*
X10827424Y-11419458D01*
X10821671Y-11422661D01*
X14755943Y-11154565D02*
X14747909Y-11135486D01*
X14737350Y-11116198D01*
X14726002Y-11099151D01*
X14716365Y-11086573D01*
X23721127Y-3870085D02*
X23737232Y-3884139D01*
X23752282Y-3899279D01*
X23766093Y-3915284D01*
X23778479Y-3931939D01*
X23789258Y-3949026D01*
X23792461Y-3954779D01*
X19573635Y-9446327D02*
X19587690Y-9462432D01*
X19602829Y-9477482D01*
X19618834Y-9491293D01*
X19635489Y-9503679D01*
X19652576Y-9514458D01*
X19658329Y-9517661D01*
X9433627Y-1965085D02*
X9449732Y-1979139D01*
X9464782Y-1994279D01*
X9478593Y-2010284D01*
X9490979Y-2026939D01*
X9501758Y-2044026D01*
X9504961Y-2049779D01*
X23653135Y-3830507D02*
X23672214Y-3838540D01*
X23691501Y-3849099D01*
X23708549Y-3860448D01*
X23721127Y-3870085D01*
X5398115Y-11434893D02*
X5379036Y-11426859D01*
X5359748Y-11416300D01*
X5342701Y-11404952D01*
X5330123Y-11395315D01*
X2472623Y-7585315D02*
X2456518Y-7571260D01*
X2441468Y-7556121D01*
X2427657Y-7540115D01*
X2415271Y-7523461D01*
X2404492Y-7506374D01*
X2401289Y-7500621D01*
X9532807Y-2710835D02*
X9540841Y-2729914D01*
X9551400Y-2749202D01*
X9562748Y-2766249D01*
X9572385Y-2778827D01*
X23536250Y-5727700D02*
X23612500Y-5727700D01*
X6191250Y-7832700D02*
X6189031Y-7811916D01*
X6183443Y-7792065D01*
X5330123Y-11395315D02*
X5314018Y-11381260D01*
X5298968Y-11366121D01*
X5285157Y-11350115D01*
X5272771Y-11333461D01*
X5261992Y-11316374D01*
X5258789Y-11310621D01*
X10953750Y-11242700D02*
X10951531Y-11263484D01*
X10945943Y-11283335D01*
X23612500Y-3822700D02*
X23060000Y-3822700D01*
X2857500Y-2117700D02*
X2857500Y-3622700D01*
X23340760Y-5897438D02*
X23336846Y-5917205D01*
X23336250Y-5927700D01*
X15992500Y-2870200D02*
X16013284Y-2867981D01*
X16033135Y-2862393D01*
X16324579Y-1937739D02*
X16343005Y-1928930D01*
X16362238Y-1922210D01*
X6183443Y-7792065D02*
X6175409Y-7772985D01*
X6164850Y-7753698D01*
X6153502Y-7736651D01*
X6143865Y-7724073D01*
X10953750Y-11242700D02*
X10953750Y-11195200D01*
X6191250Y-7832700D02*
X6191250Y-9337700D01*
X10973789Y-11127279D02*
X10964980Y-11145705D01*
X10958260Y-11164938D01*
X1952385Y-3914073D02*
X1966439Y-3897968D01*
X1981579Y-3882918D01*
X1997584Y-3869107D01*
X2014239Y-3856721D01*
X2031326Y-3845942D01*
X2037079Y-3842739D01*
X13406135Y-2778827D02*
X13420189Y-2794932D01*
X13435329Y-2809982D01*
X13451334Y-2823793D01*
X13467989Y-2836179D01*
X13485076Y-2846958D01*
X13490829Y-2850161D01*
X2381250Y-5927700D02*
X2381250Y-7432700D01*
X23804693Y-5568335D02*
X23796659Y-5587414D01*
X23786100Y-5606701D01*
X23774752Y-5623749D01*
X23765115Y-5636327D01*
X20278750Y-9537700D02*
X20299534Y-9539919D01*
X20319385Y-9545507D01*
X11113115Y-11003007D02*
X11094036Y-11011041D01*
X11074748Y-11021600D01*
X11057701Y-11032948D01*
X11045123Y-11042585D01*
X23336250Y-7432700D02*
X23336250Y-5927700D01*
X2333865Y-5819073D02*
X2319810Y-5802968D01*
X2304671Y-5787918D01*
X2288666Y-5774107D01*
X2272011Y-5761721D01*
X2254924Y-5750942D01*
X2249171Y-5747739D01*
X5370829Y-9557739D02*
X5389255Y-9548930D01*
X5408488Y-9542210D01*
X19530760Y-7802438D02*
X19526846Y-7822205D01*
X19526250Y-7832700D01*
X19526250Y-9337700D02*
X19528469Y-9358484D01*
X19534057Y-9378335D01*
X19658329Y-9517661D02*
X19676755Y-9526470D01*
X19695988Y-9533190D01*
X5408488Y-9542210D02*
X5428255Y-9538296D01*
X5438750Y-9537700D01*
X2657500Y-3822700D02*
X2105000Y-3822700D01*
X1925039Y-5595621D02*
X1916230Y-5577195D01*
X1909510Y-5557962D01*
X11153750Y-10995200D02*
X11132966Y-10997419D01*
X11113115Y-11003007D01*
X5438750Y-11442700D02*
X5417966Y-11440481D01*
X5398115Y-11434893D01*
X2381250Y-5927700D02*
X2379031Y-5906916D01*
X2373443Y-5887065D01*
X23166512Y-7628190D02*
X23146745Y-7632104D01*
X23136250Y-7632700D01*
X6143865Y-7724073D02*
X6129810Y-7707968D01*
X6114671Y-7692918D01*
X6098665Y-7679107D01*
X6082011Y-7666721D01*
X6064924Y-7655942D01*
X6059171Y-7652739D01*
X13358750Y-2570200D02*
X12358750Y-2570200D01*
X2105000Y-5727700D02*
X2084216Y-5725481D01*
X2064365Y-5719893D01*
X22768627Y-1965085D02*
X22784732Y-1979139D01*
X22799782Y-1994279D01*
X22813593Y-2010284D01*
X22825979Y-2026939D01*
X22836758Y-2044026D01*
X22839961Y-2049779D01*
X19685615Y-7640507D02*
X19666536Y-7648540D01*
X19647248Y-7659099D01*
X19630201Y-7670448D01*
X19617623Y-7680085D01*
X2074738Y-3827210D02*
X2094505Y-3823296D01*
X2105000Y-3822700D01*
X19695988Y-9533190D02*
X19715755Y-9537104D01*
X19726250Y-9537700D01*
X20319385Y-9545507D02*
X20338464Y-9553541D01*
X20357752Y-9564100D01*
X20374799Y-9575448D01*
X20387377Y-9585085D01*
X13528488Y-2865690D02*
X13548255Y-2869604D01*
X13558750Y-2870200D01*
X9657079Y-2850161D02*
X9675505Y-2858970D01*
X9694738Y-2865690D01*
X2698135Y-3814893D02*
X2717214Y-3806859D01*
X2736502Y-3796300D01*
X2753549Y-3784952D01*
X2766127Y-3775315D01*
X12199385Y-2862393D02*
X12218464Y-2854359D01*
X12237751Y-2843800D01*
X12254799Y-2832452D01*
X12267377Y-2822815D01*
X9694738Y-2865690D02*
X9714505Y-2869604D01*
X9725000Y-2870200D01*
X23812500Y-5527700D02*
X23810281Y-5548484D01*
X23804693Y-5568335D01*
X22700635Y-1925507D02*
X22719714Y-1933540D01*
X22739001Y-1944099D01*
X22756049Y-1955448D01*
X22768627Y-1965085D01*
X13490829Y-2850161D02*
X13509255Y-2858970D01*
X13528488Y-2865690D01*
X2857500Y-2117700D02*
X2859719Y-2096916D01*
X2865307Y-2077065D01*
X23288865Y-7541327D02*
X23274810Y-7557432D01*
X23259671Y-7572482D01*
X23243665Y-7586293D01*
X23227011Y-7598679D01*
X23209924Y-7609458D01*
X23204171Y-7612661D01*
X2865307Y-2077065D02*
X2873340Y-2057985D01*
X2883899Y-2038698D01*
X2895248Y-2021651D01*
X2904885Y-2009073D01*
X1909510Y-5557962D02*
X1905596Y-5538195D01*
X1905000Y-5527700D01*
X15992500Y-2870200D02*
X13558750Y-2870200D01*
X9525000Y-2670200D02*
X9527219Y-2690984D01*
X9532807Y-2710835D01*
X2249171Y-5747739D02*
X2230745Y-5738930D01*
X2211512Y-5732210D01*
X2852990Y-3652962D02*
X2856904Y-3633195D01*
X2857500Y-3622700D01*
X22860000Y-3622700D02*
X22860000Y-2117700D01*
X14763750Y-11195200D02*
X14761531Y-11174416D01*
X14755943Y-11154565D01*
X23812500Y-5527700D02*
X23812500Y-4022700D01*
X14631671Y-11015239D02*
X14613244Y-11006430D01*
X14594012Y-10999710D01*
X14963750Y-11442700D02*
X20278750Y-11442700D01*
X5258789Y-11310621D02*
X5249980Y-11292194D01*
X5243260Y-11272962D01*
X2837461Y-3690621D02*
X2846270Y-3672194D01*
X2852990Y-3652962D01*
X16101127Y-2822815D02*
X16117232Y-2808760D01*
X16132282Y-2793621D01*
X16146093Y-2777616D01*
X16158479Y-2760961D01*
X16169258Y-2743874D01*
X16172461Y-2738121D01*
X6031885Y-9529893D02*
X6050964Y-9521859D01*
X6070251Y-9511300D01*
X6087299Y-9499952D01*
X6099877Y-9490315D01*
X2105000Y-5727700D02*
X2181250Y-5727700D01*
X13366557Y-2710835D02*
X13374590Y-2729914D01*
X13385149Y-2749202D01*
X13396498Y-2766249D01*
X13406135Y-2778827D01*
X20387377Y-9585085D02*
X20403482Y-9599140D01*
X20418532Y-9614279D01*
X20432343Y-9630284D01*
X20444729Y-9646939D01*
X20455508Y-9664026D01*
X20458711Y-9669779D01*
X2581250Y-7632700D02*
X2560466Y-7630481D01*
X2540615Y-7624893D01*
X12158750Y-2870200D02*
X9725000Y-2870200D01*
X9325000Y-1917700D02*
X9345784Y-1919919D01*
X9365635Y-1925507D01*
X10958260Y-11164938D02*
X10954346Y-11184705D01*
X10953750Y-11195200D01*
X5991250Y-9537700D02*
X5438750Y-9537700D01*
X9504961Y-2049779D02*
X9513770Y-2068205D01*
X9520490Y-2087438D01*
X14763750Y-11195200D02*
X14763750Y-11242700D01*
X16239885Y-2009073D02*
X16253939Y-1992968D01*
X16269079Y-1977918D01*
X16285084Y-1964107D01*
X16301739Y-1951721D01*
X16318826Y-1940942D01*
X16324579Y-1937739D01*
X12338711Y-2738121D02*
X12347520Y-2719695D01*
X12354240Y-2700462D01*
X9572385Y-2778827D02*
X9586440Y-2794932D01*
X9601579Y-2809982D01*
X9617584Y-2823793D01*
X9634239Y-2836179D01*
X9651326Y-2846958D01*
X9657079Y-2850161D01*
X19546289Y-7764779D02*
X19537480Y-7783205D01*
X19530760Y-7802438D01*
X13358750Y-2670200D02*
X13360969Y-2690984D01*
X13366557Y-2710835D01*
X2401289Y-7500621D02*
X2392480Y-7482194D01*
X2385760Y-7462962D01*
X22860000Y-3622700D02*
X22862219Y-3643484D01*
X22867807Y-3663335D01*
X20478750Y-11242700D02*
X20476531Y-11263484D01*
X20470943Y-11283335D01*
X16187990Y-2700462D02*
X16191904Y-2680695D01*
X16192500Y-2670200D01*
X20431365Y-11351327D02*
X20417310Y-11367432D01*
X20402171Y-11382482D01*
X20386166Y-11396293D01*
X20369511Y-11408679D01*
X20352424Y-11419458D01*
X20346671Y-11422661D01*
X22839961Y-2049779D02*
X22848770Y-2068205D01*
X22855490Y-2087438D01*
X12267377Y-2822815D02*
X12283482Y-2808760D01*
X12298532Y-2793621D01*
X12312343Y-2777616D01*
X12324729Y-2760961D01*
X12335508Y-2743874D01*
X12338711Y-2738121D01*
X22660000Y-1917700D02*
X22680784Y-1919919D01*
X22700635Y-1925507D01*
X2581250Y-7632700D02*
X5991250Y-7632700D01*
X12354240Y-2700462D02*
X12358154Y-2680695D01*
X12358750Y-2670200D01*
X23612500Y-3822700D02*
X23633284Y-3824919D01*
X23653135Y-3830507D01*
X6059171Y-7652739D02*
X6040744Y-7643930D01*
X6021512Y-7637210D01*
D11*
X12539500Y-2994250D02*
X12604500Y-3059250D01*
X12604500Y-2994250D02*
X12539500Y-3059250D01*
X13117500Y-2994250D02*
X13182500Y-3059250D01*
X13182500Y-2994250D02*
X13117500Y-3059250D01*
D12*
X3151375Y-4762500D02*
G75*
G03*
X3151375Y-4762500I-87500J0D01*
G01*
X3151375Y-6667500D02*
G75*
G03*
X3151375Y-6667500I-87500J0D01*
G01*
X3865750Y-2857500D02*
G75*
G03*
X3865750Y-2857500I-87500J0D01*
G01*
X4167375Y-4762500D02*
G75*
G03*
X4167375Y-4762500I-87500J0D01*
G01*
X4167375Y-6667500D02*
G75*
G03*
X4167375Y-6667500I-87500J0D01*
G01*
X4881750Y-2857500D02*
G75*
G03*
X4881750Y-2857500I-87500J0D01*
G01*
X5294500Y-6667500D02*
G75*
G03*
X5294500Y-6667500I-87500J0D01*
G01*
X5770750Y-4762500D02*
G75*
G03*
X5770750Y-4762500I-87500J0D01*
G01*
X6008900Y-10477500D02*
G75*
G03*
X6008900Y-10477500I-87500J0D01*
G01*
X6247000Y-2857500D02*
G75*
G03*
X6247000Y-2857500I-87500J0D01*
G01*
X6310500Y-6667500D02*
G75*
G03*
X6310500Y-6667500I-87500J0D01*
G01*
X6786750Y-4762500D02*
G75*
G03*
X6786750Y-4762500I-87500J0D01*
G01*
X7024900Y-10477500D02*
G75*
G03*
X7024900Y-10477500I-87500J0D01*
G01*
X7199500Y-6667500D02*
G75*
G03*
X7199500Y-6667500I-87500J0D01*
G01*
X7199500Y-8572500D02*
G75*
G03*
X7199500Y-8572500I-87500J0D01*
G01*
X7263000Y-2857500D02*
G75*
G03*
X7263000Y-2857500I-87500J0D01*
G01*
X7675750Y-4762500D02*
G75*
G03*
X7675750Y-4762500I-87500J0D01*
G01*
X8152000Y-2857500D02*
G75*
G03*
X8152000Y-2857500I-87500J0D01*
G01*
X8215500Y-6667500D02*
G75*
G03*
X8215500Y-6667500I-87500J0D01*
G01*
X8215500Y-8572500D02*
G75*
G03*
X8215500Y-8572500I-87500J0D01*
G01*
X8691750Y-4762500D02*
G75*
G03*
X8691750Y-4762500I-87500J0D01*
G01*
X8866400Y-10477500D02*
G75*
G03*
X8866400Y-10477500I-87500J0D01*
G01*
X9104500Y-6667500D02*
G75*
G03*
X9104500Y-6667500I-87500J0D01*
G01*
X9168000Y-2857500D02*
G75*
G03*
X9168000Y-2857500I-87500J0D01*
G01*
X9580750Y-4762500D02*
G75*
G03*
X9580750Y-4762500I-87500J0D01*
G01*
X9882400Y-10477500D02*
G75*
G03*
X9882400Y-10477500I-87500J0D01*
G01*
X10057000Y-8572500D02*
G75*
G03*
X10057000Y-8572500I-87500J0D01*
G01*
X10120500Y-6667500D02*
G75*
G03*
X10120500Y-6667500I-87500J0D01*
G01*
X10596750Y-4762500D02*
G75*
G03*
X10596750Y-4762500I-87500J0D01*
G01*
X11073000Y-8572500D02*
G75*
G03*
X11073000Y-8572500I-87500J0D01*
G01*
X11247625Y-6667500D02*
G75*
G03*
X11247625Y-6667500I-87500J0D01*
G01*
X11485750Y-4762500D02*
G75*
G03*
X11485750Y-4762500I-87500J0D01*
G01*
X12263625Y-6667500D02*
G75*
G03*
X12263625Y-6667500I-87500J0D01*
G01*
X12501750Y-4762500D02*
G75*
G03*
X12501750Y-4762500I-87500J0D01*
G01*
X13390750Y-4762500D02*
G75*
G03*
X13390750Y-4762500I-87500J0D01*
G01*
X13628875Y-6667500D02*
G75*
G03*
X13628875Y-6667500I-87500J0D01*
G01*
X14406750Y-4762500D02*
G75*
G03*
X14406750Y-4762500I-87500J0D01*
G01*
X14644875Y-6667500D02*
G75*
G03*
X14644875Y-6667500I-87500J0D01*
G01*
X14819500Y-8572500D02*
G75*
G03*
X14819500Y-8572500I-87500J0D01*
G01*
X15295750Y-4762500D02*
G75*
G03*
X15295750Y-4762500I-87500J0D01*
G01*
X15772000Y-6667500D02*
G75*
G03*
X15772000Y-6667500I-87500J0D01*
G01*
X15835500Y-8572500D02*
G75*
G03*
X15835500Y-8572500I-87500J0D01*
G01*
X16010100Y-10477500D02*
G75*
G03*
X16010100Y-10477500I-87500J0D01*
G01*
X16311750Y-4762500D02*
G75*
G03*
X16311750Y-4762500I-87500J0D01*
G01*
X16724500Y-2857500D02*
G75*
G03*
X16724500Y-2857500I-87500J0D01*
G01*
X16788000Y-6667500D02*
G75*
G03*
X16788000Y-6667500I-87500J0D01*
G01*
X17026100Y-10477500D02*
G75*
G03*
X17026100Y-10477500I-87500J0D01*
G01*
X17200750Y-4762500D02*
G75*
G03*
X17200750Y-4762500I-87500J0D01*
G01*
X17677000Y-6667500D02*
G75*
G03*
X17677000Y-6667500I-87500J0D01*
G01*
X17677000Y-8572500D02*
G75*
G03*
X17677000Y-8572500I-87500J0D01*
G01*
X17740500Y-2857500D02*
G75*
G03*
X17740500Y-2857500I-87500J0D01*
G01*
X18216750Y-4762500D02*
G75*
G03*
X18216750Y-4762500I-87500J0D01*
G01*
X18629500Y-2857500D02*
G75*
G03*
X18629500Y-2857500I-87500J0D01*
G01*
X18693000Y-6667500D02*
G75*
G03*
X18693000Y-6667500I-87500J0D01*
G01*
X18693000Y-8572500D02*
G75*
G03*
X18693000Y-8572500I-87500J0D01*
G01*
X18867600Y-10477500D02*
G75*
G03*
X18867600Y-10477500I-87500J0D01*
G01*
X19105750Y-4762500D02*
G75*
G03*
X19105750Y-4762500I-87500J0D01*
G01*
X19582000Y-6667500D02*
G75*
G03*
X19582000Y-6667500I-87500J0D01*
G01*
X19645500Y-2857500D02*
G75*
G03*
X19645500Y-2857500I-87500J0D01*
G01*
X19883600Y-10477500D02*
G75*
G03*
X19883600Y-10477500I-87500J0D01*
G01*
X20121750Y-4762500D02*
G75*
G03*
X20121750Y-4762500I-87500J0D01*
G01*
X20598000Y-6667500D02*
G75*
G03*
X20598000Y-6667500I-87500J0D01*
G01*
X21010750Y-2857500D02*
G75*
G03*
X21010750Y-2857500I-87500J0D01*
G01*
X21725125Y-4762500D02*
G75*
G03*
X21725125Y-4762500I-87500J0D01*
G01*
X21725125Y-6667500D02*
G75*
G03*
X21725125Y-6667500I-87500J0D01*
G01*
X22026750Y-2857500D02*
G75*
G03*
X22026750Y-2857500I-87500J0D01*
G01*
X22741125Y-4762500D02*
G75*
G03*
X22741125Y-4762500I-87500J0D01*
G01*
X22741125Y-6667500D02*
G75*
G03*
X22741125Y-6667500I-87500J0D01*
G01*
D13*
X3571875Y-4563110D02*
X3571875Y-4961890D01*
X3372485Y-4762500D02*
X3771265Y-4762500D01*
X3571875Y-6468110D02*
X3571875Y-6866890D01*
X3372485Y-6667500D02*
X3771265Y-6667500D01*
X4286250Y-2658110D02*
X4286250Y-3056890D01*
X4086860Y-2857500D02*
X4485640Y-2857500D01*
X5715000Y-6468110D02*
X5715000Y-6866890D01*
X5515610Y-6667500D02*
X5914390Y-6667500D01*
X6191250Y-4563110D02*
X6191250Y-4961890D01*
X5991860Y-4762500D02*
X6390640Y-4762500D01*
X6429400Y-10278110D02*
X6429400Y-10676890D01*
X6230010Y-10477500D02*
X6628790Y-10477500D01*
X6667500Y-2658110D02*
X6667500Y-3056890D01*
X6468110Y-2857500D02*
X6866890Y-2857500D01*
X7620000Y-6468110D02*
X7620000Y-6866890D01*
X7420610Y-6667500D02*
X7819390Y-6667500D01*
X7620000Y-8373110D02*
X7620000Y-8771890D01*
X7420610Y-8572500D02*
X7819390Y-8572500D01*
X8096250Y-4563110D02*
X8096250Y-4961890D01*
X7896860Y-4762500D02*
X8295640Y-4762500D01*
X8572500Y-2658110D02*
X8572500Y-3056890D01*
X8373110Y-2857500D02*
X8771890Y-2857500D01*
X9286900Y-10278110D02*
X9286900Y-10676890D01*
X9087510Y-10477500D02*
X9486290Y-10477500D01*
X9525000Y-6468110D02*
X9525000Y-6866890D01*
X9325610Y-6667500D02*
X9724390Y-6667500D01*
X10001250Y-4563110D02*
X10001250Y-4961890D01*
X9801860Y-4762500D02*
X10200640Y-4762500D01*
X10477500Y-8373110D02*
X10477500Y-8771890D01*
X10278110Y-8572500D02*
X10676890Y-8572500D01*
X11668125Y-6468110D02*
X11668125Y-6866890D01*
X11468735Y-6667500D02*
X11867515Y-6667500D01*
X11906250Y-4563110D02*
X11906250Y-4961890D01*
X11706860Y-4762500D02*
X12105640Y-4762500D01*
X13811250Y-4563110D02*
X13811250Y-4961890D01*
X13611860Y-4762500D02*
X14010640Y-4762500D01*
X14049375Y-6468110D02*
X14049375Y-6866890D01*
X13849985Y-6667500D02*
X14248765Y-6667500D01*
X15240000Y-8373110D02*
X15240000Y-8771890D01*
X15040610Y-8572500D02*
X15439390Y-8572500D01*
X15716250Y-4563110D02*
X15716250Y-4961890D01*
X15516860Y-4762500D02*
X15915640Y-4762500D01*
X16192500Y-6468110D02*
X16192500Y-6866890D01*
X15993110Y-6667500D02*
X16391890Y-6667500D01*
X16430600Y-10278110D02*
X16430600Y-10676890D01*
X16231210Y-10477500D02*
X16629990Y-10477500D01*
X17145000Y-2658110D02*
X17145000Y-3056890D01*
X16945610Y-2857500D02*
X17344390Y-2857500D01*
X17621250Y-4563110D02*
X17621250Y-4961890D01*
X17421860Y-4762500D02*
X17820640Y-4762500D01*
X18097500Y-6468110D02*
X18097500Y-6866890D01*
X17898110Y-6667500D02*
X18296890Y-6667500D01*
X18097500Y-8373110D02*
X18097500Y-8771890D01*
X17898110Y-8572500D02*
X18296890Y-8572500D01*
X19050000Y-2658110D02*
X19050000Y-3056890D01*
X18850610Y-2857500D02*
X19249390Y-2857500D01*
X19288100Y-10278110D02*
X19288100Y-10676890D01*
X19088710Y-10477500D02*
X19487490Y-10477500D01*
X19526250Y-4563110D02*
X19526250Y-4961890D01*
X19326860Y-4762500D02*
X19725640Y-4762500D01*
X20002500Y-6468110D02*
X20002500Y-6866890D01*
X19803110Y-6667500D02*
X20201890Y-6667500D01*
X21431250Y-2658110D02*
X21431250Y-3056890D01*
X21231860Y-2857500D02*
X21630640Y-2857500D01*
X22145625Y-4563110D02*
X22145625Y-4961890D01*
X21946235Y-4762500D02*
X22345015Y-4762500D01*
X22145625Y-6468110D02*
X22145625Y-6866890D01*
X21946235Y-6667500D02*
X22345015Y-6667500D01*
D10*
X2152619Y-11763176D02*
X2152619Y-11563176D01*
X2200238Y-11563176D01*
X2228810Y-11572700D01*
X2247857Y-11591748D01*
X2257381Y-11610795D01*
X2266905Y-11648890D01*
X2266905Y-11677462D01*
X2257381Y-11715557D01*
X2247857Y-11734605D01*
X2228810Y-11753652D01*
X2200238Y-11763176D01*
X2152619Y-11763176D01*
X2352619Y-11763176D02*
X2352619Y-11629843D01*
X2352619Y-11667938D02*
X2362143Y-11648890D01*
X2371667Y-11639367D01*
X2390714Y-11629843D01*
X2409762Y-11629843D01*
X2476429Y-11763176D02*
X2476429Y-11629843D01*
X2476429Y-11563176D02*
X2466905Y-11572700D01*
X2476429Y-11582224D01*
X2485952Y-11572700D01*
X2476429Y-11563176D01*
X2476429Y-11582224D01*
X2600238Y-11763176D02*
X2581190Y-11753652D01*
X2571667Y-11734605D01*
X2571667Y-11563176D01*
X2705000Y-11763176D02*
X2685952Y-11753652D01*
X2676429Y-11734605D01*
X2676429Y-11563176D01*
X2933571Y-11763176D02*
X2933571Y-11563176D01*
X3000238Y-11706033D01*
X3066905Y-11563176D01*
X3066905Y-11763176D01*
X3247857Y-11763176D02*
X3247857Y-11658414D01*
X3238333Y-11639367D01*
X3219286Y-11629843D01*
X3181190Y-11629843D01*
X3162143Y-11639367D01*
X3247857Y-11753652D02*
X3228809Y-11763176D01*
X3181190Y-11763176D01*
X3162143Y-11753652D01*
X3152619Y-11734605D01*
X3152619Y-11715557D01*
X3162143Y-11696509D01*
X3181190Y-11686986D01*
X3228809Y-11686986D01*
X3247857Y-11677462D01*
X3343095Y-11629843D02*
X3343095Y-11829843D01*
X3343095Y-11639367D02*
X3362143Y-11629843D01*
X3400238Y-11629843D01*
X3419286Y-11639367D01*
X3428809Y-11648890D01*
X3438333Y-11667938D01*
X3438333Y-11725081D01*
X3428809Y-11744128D01*
X3419286Y-11753652D01*
X3400238Y-11763176D01*
X3362143Y-11763176D01*
X3343095Y-11753652D01*
X3524048Y-11744128D02*
X3533571Y-11753652D01*
X3524048Y-11763176D01*
X3514524Y-11753652D01*
X3524048Y-11744128D01*
X3524048Y-11763176D01*
X3524048Y-11639367D02*
X3533571Y-11648890D01*
X3524048Y-11658414D01*
X3514524Y-11648890D01*
X3524048Y-11639367D01*
X3524048Y-11658414D01*
D11*
X1830000Y-12060200D02*
X1895000Y-12125200D01*
X1895000Y-12060200D02*
X1830000Y-12125200D01*
D10*
X2190714Y-11983176D02*
X2209762Y-11983176D01*
X2228810Y-11992700D01*
X2238333Y-12002224D01*
X2247857Y-12021271D01*
X2257381Y-12059367D01*
X2257381Y-12106986D01*
X2247857Y-12145081D01*
X2238333Y-12164128D01*
X2228810Y-12173652D01*
X2209762Y-12183176D01*
X2190714Y-12183176D01*
X2171667Y-12173652D01*
X2162143Y-12164128D01*
X2152619Y-12145081D01*
X2143095Y-12106986D01*
X2143095Y-12059367D01*
X2152619Y-12021271D01*
X2162143Y-12002224D01*
X2171667Y-11992700D01*
X2190714Y-11983176D01*
X2343095Y-12164128D02*
X2352619Y-12173652D01*
X2343095Y-12183176D01*
X2333571Y-12173652D01*
X2343095Y-12164128D01*
X2343095Y-12183176D01*
X2524048Y-11983176D02*
X2485952Y-11983176D01*
X2466905Y-11992700D01*
X2457381Y-12002224D01*
X2438333Y-12030795D01*
X2428810Y-12068890D01*
X2428810Y-12145081D01*
X2438333Y-12164128D01*
X2447857Y-12173652D01*
X2466905Y-12183176D01*
X2505000Y-12183176D01*
X2524048Y-12173652D01*
X2533571Y-12164128D01*
X2543095Y-12145081D01*
X2543095Y-12097462D01*
X2533571Y-12078414D01*
X2524048Y-12068890D01*
X2505000Y-12059367D01*
X2466905Y-12059367D01*
X2447857Y-12068890D01*
X2438333Y-12078414D01*
X2428810Y-12097462D01*
X2724048Y-11983176D02*
X2628810Y-11983176D01*
X2619286Y-12078414D01*
X2628810Y-12068890D01*
X2647857Y-12059367D01*
X2695476Y-12059367D01*
X2714524Y-12068890D01*
X2724048Y-12078414D01*
X2733571Y-12097462D01*
X2733571Y-12145081D01*
X2724048Y-12164128D01*
X2714524Y-12173652D01*
X2695476Y-12183176D01*
X2647857Y-12183176D01*
X2628810Y-12173652D01*
X2619286Y-12164128D01*
X2857381Y-11983176D02*
X2876428Y-11983176D01*
X2895476Y-11992700D01*
X2905000Y-12002224D01*
X2914524Y-12021271D01*
X2924048Y-12059367D01*
X2924048Y-12106986D01*
X2914524Y-12145081D01*
X2905000Y-12164128D01*
X2895476Y-12173652D01*
X2876428Y-12183176D01*
X2857381Y-12183176D01*
X2838333Y-12173652D01*
X2828809Y-12164128D01*
X2819286Y-12145081D01*
X2809762Y-12106986D01*
X2809762Y-12059367D01*
X2819286Y-12021271D01*
X2828809Y-12002224D01*
X2838333Y-11992700D01*
X2857381Y-11983176D01*
X3009762Y-12183176D02*
X3009762Y-12049843D01*
X3009762Y-12068890D02*
X3019286Y-12059367D01*
X3038333Y-12049843D01*
X3066905Y-12049843D01*
X3085952Y-12059367D01*
X3095476Y-12078414D01*
X3095476Y-12183176D01*
X3095476Y-12078414D02*
X3105000Y-12059367D01*
X3124048Y-12049843D01*
X3152619Y-12049843D01*
X3171667Y-12059367D01*
X3181190Y-12078414D01*
X3181190Y-12183176D01*
X3276428Y-12183176D02*
X3276428Y-12049843D01*
X3276428Y-12068890D02*
X3285952Y-12059367D01*
X3305000Y-12049843D01*
X3333571Y-12049843D01*
X3352619Y-12059367D01*
X3362143Y-12078414D01*
X3362143Y-12183176D01*
X3362143Y-12078414D02*
X3371667Y-12059367D01*
X3390714Y-12049843D01*
X3419286Y-12049843D01*
X3438333Y-12059367D01*
X3447857Y-12078414D01*
X3447857Y-12183176D01*
X3838333Y-11973652D02*
X3666905Y-12230795D01*
X4095476Y-11983176D02*
X4114524Y-11983176D01*
X4133571Y-11992700D01*
X4143095Y-12002224D01*
X4152619Y-12021271D01*
X4162143Y-12059367D01*
X4162143Y-12106986D01*
X4152619Y-12145081D01*
X4143095Y-12164128D01*
X4133571Y-12173652D01*
X4114524Y-12183176D01*
X4095476Y-12183176D01*
X4076428Y-12173652D01*
X4066905Y-12164128D01*
X4057381Y-12145081D01*
X4047857Y-12106986D01*
X4047857Y-12059367D01*
X4057381Y-12021271D01*
X4066905Y-12002224D01*
X4076428Y-11992700D01*
X4095476Y-11983176D01*
X4247857Y-12164128D02*
X4257381Y-12173652D01*
X4247857Y-12183176D01*
X4238333Y-12173652D01*
X4247857Y-12164128D01*
X4247857Y-12183176D01*
X4381190Y-11983176D02*
X4400238Y-11983176D01*
X4419286Y-11992700D01*
X4428810Y-12002224D01*
X4438333Y-12021271D01*
X4447857Y-12059367D01*
X4447857Y-12106986D01*
X4438333Y-12145081D01*
X4428810Y-12164128D01*
X4419286Y-12173652D01*
X4400238Y-12183176D01*
X4381190Y-12183176D01*
X4362143Y-12173652D01*
X4352619Y-12164128D01*
X4343095Y-12145081D01*
X4333571Y-12106986D01*
X4333571Y-12059367D01*
X4343095Y-12021271D01*
X4352619Y-12002224D01*
X4362143Y-11992700D01*
X4381190Y-11983176D01*
X4524048Y-12002224D02*
X4533571Y-11992700D01*
X4552619Y-11983176D01*
X4600238Y-11983176D01*
X4619286Y-11992700D01*
X4628810Y-12002224D01*
X4638333Y-12021271D01*
X4638333Y-12040319D01*
X4628810Y-12068890D01*
X4514524Y-12183176D01*
X4638333Y-12183176D01*
X4819286Y-11983176D02*
X4724048Y-11983176D01*
X4714524Y-12078414D01*
X4724048Y-12068890D01*
X4743095Y-12059367D01*
X4790714Y-12059367D01*
X4809762Y-12068890D01*
X4819286Y-12078414D01*
X4828810Y-12097462D01*
X4828810Y-12145081D01*
X4819286Y-12164128D01*
X4809762Y-12173652D01*
X4790714Y-12183176D01*
X4743095Y-12183176D01*
X4724048Y-12173652D01*
X4714524Y-12164128D01*
X5000238Y-11983176D02*
X4962143Y-11983176D01*
X4943095Y-11992700D01*
X4933571Y-12002224D01*
X4914524Y-12030795D01*
X4905000Y-12068890D01*
X4905000Y-12145081D01*
X4914524Y-12164128D01*
X4924048Y-12173652D01*
X4943095Y-12183176D01*
X4981190Y-12183176D01*
X5000238Y-12173652D01*
X5009762Y-12164128D01*
X5019286Y-12145081D01*
X5019286Y-12097462D01*
X5009762Y-12078414D01*
X5000238Y-12068890D01*
X4981190Y-12059367D01*
X4943095Y-12059367D01*
X4924048Y-12068890D01*
X4914524Y-12078414D01*
X4905000Y-12097462D01*
X5095476Y-11983176D02*
X5095476Y-12021271D01*
X5171667Y-11983176D02*
X5171667Y-12021271D01*
X5466905Y-12259367D02*
X5457381Y-12249843D01*
X5438333Y-12221271D01*
X5428810Y-12202224D01*
X5419286Y-12173652D01*
X5409762Y-12126033D01*
X5409762Y-12087938D01*
X5419286Y-12040319D01*
X5428810Y-12011748D01*
X5438333Y-11992700D01*
X5457381Y-11964128D01*
X5466905Y-11954605D01*
X5533571Y-12002224D02*
X5543095Y-11992700D01*
X5562143Y-11983176D01*
X5609762Y-11983176D01*
X5628809Y-11992700D01*
X5638333Y-12002224D01*
X5647857Y-12021271D01*
X5647857Y-12040319D01*
X5638333Y-12068890D01*
X5524048Y-12183176D01*
X5647857Y-12183176D01*
X5885952Y-12183176D02*
X5885952Y-11983176D01*
X5971667Y-12183176D02*
X5971667Y-12078414D01*
X5962143Y-12059367D01*
X5943095Y-12049843D01*
X5914524Y-12049843D01*
X5895476Y-12059367D01*
X5885952Y-12068890D01*
X6095476Y-12183176D02*
X6076428Y-12173652D01*
X6066905Y-12164128D01*
X6057381Y-12145081D01*
X6057381Y-12087938D01*
X6066905Y-12068890D01*
X6076428Y-12059367D01*
X6095476Y-12049843D01*
X6124048Y-12049843D01*
X6143095Y-12059367D01*
X6152619Y-12068890D01*
X6162143Y-12087938D01*
X6162143Y-12145081D01*
X6152619Y-12164128D01*
X6143095Y-12173652D01*
X6124048Y-12183176D01*
X6095476Y-12183176D01*
X6276428Y-12183176D02*
X6257381Y-12173652D01*
X6247857Y-12154605D01*
X6247857Y-11983176D01*
X6428809Y-12173652D02*
X6409762Y-12183176D01*
X6371667Y-12183176D01*
X6352619Y-12173652D01*
X6343095Y-12154605D01*
X6343095Y-12078414D01*
X6352619Y-12059367D01*
X6371667Y-12049843D01*
X6409762Y-12049843D01*
X6428809Y-12059367D01*
X6438333Y-12078414D01*
X6438333Y-12097462D01*
X6343095Y-12116509D01*
X6514524Y-12173652D02*
X6533571Y-12183176D01*
X6571667Y-12183176D01*
X6590714Y-12173652D01*
X6600238Y-12154605D01*
X6600238Y-12145081D01*
X6590714Y-12126033D01*
X6571667Y-12116509D01*
X6543095Y-12116509D01*
X6524048Y-12106986D01*
X6514524Y-12087938D01*
X6514524Y-12078414D01*
X6524048Y-12059367D01*
X6543095Y-12049843D01*
X6571667Y-12049843D01*
X6590714Y-12059367D01*
X6666905Y-12259367D02*
X6676428Y-12249843D01*
X6695476Y-12221271D01*
X6705000Y-12202224D01*
X6714524Y-12173652D01*
X6724048Y-12126033D01*
X6724048Y-12087938D01*
X6714524Y-12040319D01*
X6705000Y-12011748D01*
X6695476Y-11992700D01*
X6676428Y-11964128D01*
X6666905Y-11954605D01*
X7028809Y-12259367D02*
X7019286Y-12249843D01*
X7000238Y-12221271D01*
X6990714Y-12202224D01*
X6981190Y-12173652D01*
X6971667Y-12126033D01*
X6971667Y-12087938D01*
X6981190Y-12040319D01*
X6990714Y-12011748D01*
X7000238Y-11992700D01*
X7019286Y-11964128D01*
X7028809Y-11954605D01*
X7105000Y-12049843D02*
X7105000Y-12183176D01*
X7105000Y-12068890D02*
X7114524Y-12059367D01*
X7133571Y-12049843D01*
X7162143Y-12049843D01*
X7181190Y-12059367D01*
X7190714Y-12078414D01*
X7190714Y-12183176D01*
X7314524Y-12183176D02*
X7295476Y-12173652D01*
X7285952Y-12164128D01*
X7276428Y-12145081D01*
X7276428Y-12087938D01*
X7285952Y-12068890D01*
X7295476Y-12059367D01*
X7314524Y-12049843D01*
X7343095Y-12049843D01*
X7362143Y-12059367D01*
X7371667Y-12068890D01*
X7381190Y-12087938D01*
X7381190Y-12145081D01*
X7371667Y-12164128D01*
X7362143Y-12173652D01*
X7343095Y-12183176D01*
X7314524Y-12183176D01*
X7438333Y-12049843D02*
X7514524Y-12049843D01*
X7466905Y-11983176D02*
X7466905Y-12154605D01*
X7476428Y-12173652D01*
X7495476Y-12183176D01*
X7514524Y-12183176D01*
X7733571Y-12049843D02*
X7733571Y-12249843D01*
X7733571Y-12059367D02*
X7752619Y-12049843D01*
X7790714Y-12049843D01*
X7809762Y-12059367D01*
X7819286Y-12068890D01*
X7828809Y-12087938D01*
X7828809Y-12145081D01*
X7819286Y-12164128D01*
X7809762Y-12173652D01*
X7790714Y-12183176D01*
X7752619Y-12183176D01*
X7733571Y-12173652D01*
X7943095Y-12183176D02*
X7924048Y-12173652D01*
X7914524Y-12154605D01*
X7914524Y-11983176D01*
X8105000Y-12183176D02*
X8105000Y-12078414D01*
X8095476Y-12059367D01*
X8076428Y-12049843D01*
X8038333Y-12049843D01*
X8019286Y-12059367D01*
X8105000Y-12173652D02*
X8085952Y-12183176D01*
X8038333Y-12183176D01*
X8019286Y-12173652D01*
X8009762Y-12154605D01*
X8009762Y-12135557D01*
X8019286Y-12116509D01*
X8038333Y-12106986D01*
X8085952Y-12106986D01*
X8105000Y-12097462D01*
X8171667Y-12049843D02*
X8247857Y-12049843D01*
X8200238Y-11983176D02*
X8200238Y-12154605D01*
X8209762Y-12173652D01*
X8228809Y-12183176D01*
X8247857Y-12183176D01*
X8390714Y-12173652D02*
X8371667Y-12183176D01*
X8333571Y-12183176D01*
X8314524Y-12173652D01*
X8305000Y-12154605D01*
X8305000Y-12078414D01*
X8314524Y-12059367D01*
X8333571Y-12049843D01*
X8371667Y-12049843D01*
X8390714Y-12059367D01*
X8400238Y-12078414D01*
X8400238Y-12097462D01*
X8305000Y-12116509D01*
X8571667Y-12183176D02*
X8571667Y-11983176D01*
X8571667Y-12173652D02*
X8552619Y-12183176D01*
X8514524Y-12183176D01*
X8495476Y-12173652D01*
X8485952Y-12164128D01*
X8476429Y-12145081D01*
X8476429Y-12087938D01*
X8485952Y-12068890D01*
X8495476Y-12059367D01*
X8514524Y-12049843D01*
X8552619Y-12049843D01*
X8571667Y-12059367D01*
X8647857Y-12259367D02*
X8657381Y-12249843D01*
X8676429Y-12221271D01*
X8685952Y-12202224D01*
X8695476Y-12173652D01*
X8705000Y-12126033D01*
X8705000Y-12087938D01*
X8695476Y-12040319D01*
X8685952Y-12011748D01*
X8676429Y-11992700D01*
X8657381Y-11964128D01*
X8647857Y-11954605D01*
D12*
X1895000Y-12356700D02*
G75*
G03*
X1895000Y-12356700I-87500J0D01*
G01*
D10*
X2257381Y-12447176D02*
X2143095Y-12447176D01*
X2200238Y-12447176D02*
X2200238Y-12247176D01*
X2181190Y-12275748D01*
X2162143Y-12294795D01*
X2143095Y-12304319D01*
X2343095Y-12428128D02*
X2352619Y-12437652D01*
X2343095Y-12447176D01*
X2333571Y-12437652D01*
X2343095Y-12428128D01*
X2343095Y-12447176D01*
X2419286Y-12247176D02*
X2552619Y-12247176D01*
X2466905Y-12447176D01*
X2724048Y-12247176D02*
X2628810Y-12247176D01*
X2619286Y-12342414D01*
X2628810Y-12332890D01*
X2647857Y-12323367D01*
X2695476Y-12323367D01*
X2714524Y-12332890D01*
X2724048Y-12342414D01*
X2733571Y-12361462D01*
X2733571Y-12409081D01*
X2724048Y-12428128D01*
X2714524Y-12437652D01*
X2695476Y-12447176D01*
X2647857Y-12447176D01*
X2628810Y-12437652D01*
X2619286Y-12428128D01*
X2857381Y-12247176D02*
X2876428Y-12247176D01*
X2895476Y-12256700D01*
X2905000Y-12266224D01*
X2914524Y-12285271D01*
X2924048Y-12323367D01*
X2924048Y-12370986D01*
X2914524Y-12409081D01*
X2905000Y-12428128D01*
X2895476Y-12437652D01*
X2876428Y-12447176D01*
X2857381Y-12447176D01*
X2838333Y-12437652D01*
X2828809Y-12428128D01*
X2819286Y-12409081D01*
X2809762Y-12370986D01*
X2809762Y-12323367D01*
X2819286Y-12285271D01*
X2828809Y-12266224D01*
X2838333Y-12256700D01*
X2857381Y-12247176D01*
X3009762Y-12447176D02*
X3009762Y-12313843D01*
X3009762Y-12332890D02*
X3019286Y-12323367D01*
X3038333Y-12313843D01*
X3066905Y-12313843D01*
X3085952Y-12323367D01*
X3095476Y-12342414D01*
X3095476Y-12447176D01*
X3095476Y-12342414D02*
X3105000Y-12323367D01*
X3124048Y-12313843D01*
X3152619Y-12313843D01*
X3171667Y-12323367D01*
X3181190Y-12342414D01*
X3181190Y-12447176D01*
X3276428Y-12447176D02*
X3276428Y-12313843D01*
X3276428Y-12332890D02*
X3285952Y-12323367D01*
X3305000Y-12313843D01*
X3333571Y-12313843D01*
X3352619Y-12323367D01*
X3362143Y-12342414D01*
X3362143Y-12447176D01*
X3362143Y-12342414D02*
X3371667Y-12323367D01*
X3390714Y-12313843D01*
X3419286Y-12313843D01*
X3438333Y-12323367D01*
X3447857Y-12342414D01*
X3447857Y-12447176D01*
X3838333Y-12237652D02*
X3666905Y-12494795D01*
X4095476Y-12247176D02*
X4114524Y-12247176D01*
X4133571Y-12256700D01*
X4143095Y-12266224D01*
X4152619Y-12285271D01*
X4162143Y-12323367D01*
X4162143Y-12370986D01*
X4152619Y-12409081D01*
X4143095Y-12428128D01*
X4133571Y-12437652D01*
X4114524Y-12447176D01*
X4095476Y-12447176D01*
X4076428Y-12437652D01*
X4066905Y-12428128D01*
X4057381Y-12409081D01*
X4047857Y-12370986D01*
X4047857Y-12323367D01*
X4057381Y-12285271D01*
X4066905Y-12266224D01*
X4076428Y-12256700D01*
X4095476Y-12247176D01*
X4247857Y-12428128D02*
X4257381Y-12437652D01*
X4247857Y-12447176D01*
X4238333Y-12437652D01*
X4247857Y-12428128D01*
X4247857Y-12447176D01*
X4381190Y-12247176D02*
X4400238Y-12247176D01*
X4419286Y-12256700D01*
X4428810Y-12266224D01*
X4438333Y-12285271D01*
X4447857Y-12323367D01*
X4447857Y-12370986D01*
X4438333Y-12409081D01*
X4428810Y-12428128D01*
X4419286Y-12437652D01*
X4400238Y-12447176D01*
X4381190Y-12447176D01*
X4362143Y-12437652D01*
X4352619Y-12428128D01*
X4343095Y-12409081D01*
X4333571Y-12370986D01*
X4333571Y-12323367D01*
X4343095Y-12285271D01*
X4352619Y-12266224D01*
X4362143Y-12256700D01*
X4381190Y-12247176D01*
X4619286Y-12247176D02*
X4581190Y-12247176D01*
X4562143Y-12256700D01*
X4552619Y-12266224D01*
X4533571Y-12294795D01*
X4524048Y-12332890D01*
X4524048Y-12409081D01*
X4533571Y-12428128D01*
X4543095Y-12437652D01*
X4562143Y-12447176D01*
X4600238Y-12447176D01*
X4619286Y-12437652D01*
X4628810Y-12428128D01*
X4638333Y-12409081D01*
X4638333Y-12361462D01*
X4628810Y-12342414D01*
X4619286Y-12332890D01*
X4600238Y-12323367D01*
X4562143Y-12323367D01*
X4543095Y-12332890D01*
X4533571Y-12342414D01*
X4524048Y-12361462D01*
X4752619Y-12332890D02*
X4733571Y-12323367D01*
X4724048Y-12313843D01*
X4714524Y-12294795D01*
X4714524Y-12285271D01*
X4724048Y-12266224D01*
X4733571Y-12256700D01*
X4752619Y-12247176D01*
X4790714Y-12247176D01*
X4809762Y-12256700D01*
X4819286Y-12266224D01*
X4828810Y-12285271D01*
X4828810Y-12294795D01*
X4819286Y-12313843D01*
X4809762Y-12323367D01*
X4790714Y-12332890D01*
X4752619Y-12332890D01*
X4733571Y-12342414D01*
X4724048Y-12351938D01*
X4714524Y-12370986D01*
X4714524Y-12409081D01*
X4724048Y-12428128D01*
X4733571Y-12437652D01*
X4752619Y-12447176D01*
X4790714Y-12447176D01*
X4809762Y-12437652D01*
X4819286Y-12428128D01*
X4828810Y-12409081D01*
X4828810Y-12370986D01*
X4819286Y-12351938D01*
X4809762Y-12342414D01*
X4790714Y-12332890D01*
X4924048Y-12447176D02*
X4962143Y-12447176D01*
X4981190Y-12437652D01*
X4990714Y-12428128D01*
X5009762Y-12399557D01*
X5019286Y-12361462D01*
X5019286Y-12285271D01*
X5009762Y-12266224D01*
X5000238Y-12256700D01*
X4981190Y-12247176D01*
X4943095Y-12247176D01*
X4924048Y-12256700D01*
X4914524Y-12266224D01*
X4905000Y-12285271D01*
X4905000Y-12332890D01*
X4914524Y-12351938D01*
X4924048Y-12361462D01*
X4943095Y-12370986D01*
X4981190Y-12370986D01*
X5000238Y-12361462D01*
X5009762Y-12351938D01*
X5019286Y-12332890D01*
X5095476Y-12247176D02*
X5095476Y-12285271D01*
X5171667Y-12247176D02*
X5171667Y-12285271D01*
X5466905Y-12523367D02*
X5457381Y-12513843D01*
X5438333Y-12485271D01*
X5428810Y-12466224D01*
X5419286Y-12437652D01*
X5409762Y-12390033D01*
X5409762Y-12351938D01*
X5419286Y-12304319D01*
X5428810Y-12275748D01*
X5438333Y-12256700D01*
X5457381Y-12228128D01*
X5466905Y-12218605D01*
X5628809Y-12247176D02*
X5590714Y-12247176D01*
X5571667Y-12256700D01*
X5562143Y-12266224D01*
X5543095Y-12294795D01*
X5533571Y-12332890D01*
X5533571Y-12409081D01*
X5543095Y-12428128D01*
X5552619Y-12437652D01*
X5571667Y-12447176D01*
X5609762Y-12447176D01*
X5628809Y-12437652D01*
X5638333Y-12428128D01*
X5647857Y-12409081D01*
X5647857Y-12361462D01*
X5638333Y-12342414D01*
X5628809Y-12332890D01*
X5609762Y-12323367D01*
X5571667Y-12323367D01*
X5552619Y-12332890D01*
X5543095Y-12342414D01*
X5533571Y-12361462D01*
X5762143Y-12332890D02*
X5743095Y-12323367D01*
X5733571Y-12313843D01*
X5724048Y-12294795D01*
X5724048Y-12285271D01*
X5733571Y-12266224D01*
X5743095Y-12256700D01*
X5762143Y-12247176D01*
X5800238Y-12247176D01*
X5819286Y-12256700D01*
X5828809Y-12266224D01*
X5838333Y-12285271D01*
X5838333Y-12294795D01*
X5828809Y-12313843D01*
X5819286Y-12323367D01*
X5800238Y-12332890D01*
X5762143Y-12332890D01*
X5743095Y-12342414D01*
X5733571Y-12351938D01*
X5724048Y-12370986D01*
X5724048Y-12409081D01*
X5733571Y-12428128D01*
X5743095Y-12437652D01*
X5762143Y-12447176D01*
X5800238Y-12447176D01*
X5819286Y-12437652D01*
X5828809Y-12428128D01*
X5838333Y-12409081D01*
X5838333Y-12370986D01*
X5828809Y-12351938D01*
X5819286Y-12342414D01*
X5800238Y-12332890D01*
X6076428Y-12447176D02*
X6076428Y-12247176D01*
X6162143Y-12447176D02*
X6162143Y-12342414D01*
X6152619Y-12323367D01*
X6133571Y-12313843D01*
X6105000Y-12313843D01*
X6085952Y-12323367D01*
X6076428Y-12332890D01*
X6285952Y-12447176D02*
X6266905Y-12437652D01*
X6257381Y-12428128D01*
X6247857Y-12409081D01*
X6247857Y-12351938D01*
X6257381Y-12332890D01*
X6266905Y-12323367D01*
X6285952Y-12313843D01*
X6314524Y-12313843D01*
X6333571Y-12323367D01*
X6343095Y-12332890D01*
X6352619Y-12351938D01*
X6352619Y-12409081D01*
X6343095Y-12428128D01*
X6333571Y-12437652D01*
X6314524Y-12447176D01*
X6285952Y-12447176D01*
X6466905Y-12447176D02*
X6447857Y-12437652D01*
X6438333Y-12418605D01*
X6438333Y-12247176D01*
X6619286Y-12437652D02*
X6600238Y-12447176D01*
X6562143Y-12447176D01*
X6543095Y-12437652D01*
X6533571Y-12418605D01*
X6533571Y-12342414D01*
X6543095Y-12323367D01*
X6562143Y-12313843D01*
X6600238Y-12313843D01*
X6619286Y-12323367D01*
X6628809Y-12342414D01*
X6628809Y-12361462D01*
X6533571Y-12380509D01*
X6705000Y-12437652D02*
X6724048Y-12447176D01*
X6762143Y-12447176D01*
X6781190Y-12437652D01*
X6790714Y-12418605D01*
X6790714Y-12409081D01*
X6781190Y-12390033D01*
X6762143Y-12380509D01*
X6733571Y-12380509D01*
X6714524Y-12370986D01*
X6705000Y-12351938D01*
X6705000Y-12342414D01*
X6714524Y-12323367D01*
X6733571Y-12313843D01*
X6762143Y-12313843D01*
X6781190Y-12323367D01*
X6857381Y-12523367D02*
X6866905Y-12513843D01*
X6885952Y-12485271D01*
X6895476Y-12466224D01*
X6905000Y-12437652D01*
X6914524Y-12390033D01*
X6914524Y-12351938D01*
X6905000Y-12304319D01*
X6895476Y-12275748D01*
X6885952Y-12256700D01*
X6866905Y-12228128D01*
X6857381Y-12218605D01*
X7219286Y-12523367D02*
X7209762Y-12513843D01*
X7190714Y-12485271D01*
X7181190Y-12466224D01*
X7171667Y-12437652D01*
X7162143Y-12390033D01*
X7162143Y-12351938D01*
X7171667Y-12304319D01*
X7181190Y-12275748D01*
X7190714Y-12256700D01*
X7209762Y-12228128D01*
X7219286Y-12218605D01*
X7295476Y-12313843D02*
X7295476Y-12447176D01*
X7295476Y-12332890D02*
X7305000Y-12323367D01*
X7324048Y-12313843D01*
X7352619Y-12313843D01*
X7371667Y-12323367D01*
X7381190Y-12342414D01*
X7381190Y-12447176D01*
X7505000Y-12447176D02*
X7485952Y-12437652D01*
X7476428Y-12428128D01*
X7466905Y-12409081D01*
X7466905Y-12351938D01*
X7476428Y-12332890D01*
X7485952Y-12323367D01*
X7505000Y-12313843D01*
X7533571Y-12313843D01*
X7552619Y-12323367D01*
X7562143Y-12332890D01*
X7571667Y-12351938D01*
X7571667Y-12409081D01*
X7562143Y-12428128D01*
X7552619Y-12437652D01*
X7533571Y-12447176D01*
X7505000Y-12447176D01*
X7628809Y-12313843D02*
X7705000Y-12313843D01*
X7657381Y-12247176D02*
X7657381Y-12418605D01*
X7666905Y-12437652D01*
X7685952Y-12447176D01*
X7705000Y-12447176D01*
X7924048Y-12313843D02*
X7924048Y-12513843D01*
X7924048Y-12323367D02*
X7943095Y-12313843D01*
X7981190Y-12313843D01*
X8000238Y-12323367D01*
X8009762Y-12332890D01*
X8019286Y-12351938D01*
X8019286Y-12409081D01*
X8009762Y-12428128D01*
X8000238Y-12437652D01*
X7981190Y-12447176D01*
X7943095Y-12447176D01*
X7924048Y-12437652D01*
X8133571Y-12447176D02*
X8114524Y-12437652D01*
X8105000Y-12418605D01*
X8105000Y-12247176D01*
X8295476Y-12447176D02*
X8295476Y-12342414D01*
X8285952Y-12323367D01*
X8266905Y-12313843D01*
X8228809Y-12313843D01*
X8209762Y-12323367D01*
X8295476Y-12437652D02*
X8276428Y-12447176D01*
X8228809Y-12447176D01*
X8209762Y-12437652D01*
X8200238Y-12418605D01*
X8200238Y-12399557D01*
X8209762Y-12380509D01*
X8228809Y-12370986D01*
X8276428Y-12370986D01*
X8295476Y-12361462D01*
X8362143Y-12313843D02*
X8438333Y-12313843D01*
X8390714Y-12247176D02*
X8390714Y-12418605D01*
X8400238Y-12437652D01*
X8419286Y-12447176D01*
X8438333Y-12447176D01*
X8581190Y-12437652D02*
X8562143Y-12447176D01*
X8524048Y-12447176D01*
X8505000Y-12437652D01*
X8495476Y-12418605D01*
X8495476Y-12342414D01*
X8505000Y-12323367D01*
X8524048Y-12313843D01*
X8562143Y-12313843D01*
X8581190Y-12323367D01*
X8590714Y-12342414D01*
X8590714Y-12361462D01*
X8495476Y-12380509D01*
X8762143Y-12447176D02*
X8762143Y-12247176D01*
X8762143Y-12437652D02*
X8743095Y-12447176D01*
X8705000Y-12447176D01*
X8685952Y-12437652D01*
X8676429Y-12428128D01*
X8666905Y-12409081D01*
X8666905Y-12351938D01*
X8676429Y-12332890D01*
X8685952Y-12323367D01*
X8705000Y-12313843D01*
X8743095Y-12313843D01*
X8762143Y-12323367D01*
X8838333Y-12523367D02*
X8847857Y-12513843D01*
X8866905Y-12485271D01*
X8876429Y-12466224D01*
X8885952Y-12437652D01*
X8895476Y-12390033D01*
X8895476Y-12351938D01*
X8885952Y-12304319D01*
X8876429Y-12275748D01*
X8866905Y-12256700D01*
X8847857Y-12228128D01*
X8838333Y-12218605D01*
X1795000Y-12551700D02*
X1795000Y-12751700D01*
X1695000Y-12651700D02*
X1895000Y-12651700D01*
X2133571Y-12542176D02*
X2257381Y-12542176D01*
X2190714Y-12618367D01*
X2219286Y-12618367D01*
X2238333Y-12627890D01*
X2247857Y-12637414D01*
X2257381Y-12656462D01*
X2257381Y-12704081D01*
X2247857Y-12723128D01*
X2238333Y-12732652D01*
X2219286Y-12742176D01*
X2162143Y-12742176D01*
X2143095Y-12732652D01*
X2133571Y-12723128D01*
X2343095Y-12723128D02*
X2352619Y-12732652D01*
X2343095Y-12742176D01*
X2333571Y-12732652D01*
X2343095Y-12723128D01*
X2343095Y-12742176D01*
X2447857Y-12742176D02*
X2485952Y-12742176D01*
X2505000Y-12732652D01*
X2514524Y-12723128D01*
X2533571Y-12694557D01*
X2543095Y-12656462D01*
X2543095Y-12580271D01*
X2533571Y-12561224D01*
X2524048Y-12551700D01*
X2505000Y-12542176D01*
X2466905Y-12542176D01*
X2447857Y-12551700D01*
X2438333Y-12561224D01*
X2428810Y-12580271D01*
X2428810Y-12627890D01*
X2438333Y-12646938D01*
X2447857Y-12656462D01*
X2466905Y-12665986D01*
X2505000Y-12665986D01*
X2524048Y-12656462D01*
X2533571Y-12646938D01*
X2543095Y-12627890D01*
X2657381Y-12627890D02*
X2638333Y-12618367D01*
X2628810Y-12608843D01*
X2619286Y-12589795D01*
X2619286Y-12580271D01*
X2628810Y-12561224D01*
X2638333Y-12551700D01*
X2657381Y-12542176D01*
X2695476Y-12542176D01*
X2714524Y-12551700D01*
X2724048Y-12561224D01*
X2733571Y-12580271D01*
X2733571Y-12589795D01*
X2724048Y-12608843D01*
X2714524Y-12618367D01*
X2695476Y-12627890D01*
X2657381Y-12627890D01*
X2638333Y-12637414D01*
X2628810Y-12646938D01*
X2619286Y-12665986D01*
X2619286Y-12704081D01*
X2628810Y-12723128D01*
X2638333Y-12732652D01*
X2657381Y-12742176D01*
X2695476Y-12742176D01*
X2714524Y-12732652D01*
X2724048Y-12723128D01*
X2733571Y-12704081D01*
X2733571Y-12665986D01*
X2724048Y-12646938D01*
X2714524Y-12637414D01*
X2695476Y-12627890D01*
X2847857Y-12627890D02*
X2828809Y-12618367D01*
X2819286Y-12608843D01*
X2809762Y-12589795D01*
X2809762Y-12580271D01*
X2819286Y-12561224D01*
X2828809Y-12551700D01*
X2847857Y-12542176D01*
X2885952Y-12542176D01*
X2905000Y-12551700D01*
X2914524Y-12561224D01*
X2924048Y-12580271D01*
X2924048Y-12589795D01*
X2914524Y-12608843D01*
X2905000Y-12618367D01*
X2885952Y-12627890D01*
X2847857Y-12627890D01*
X2828809Y-12637414D01*
X2819286Y-12646938D01*
X2809762Y-12665986D01*
X2809762Y-12704081D01*
X2819286Y-12723128D01*
X2828809Y-12732652D01*
X2847857Y-12742176D01*
X2885952Y-12742176D01*
X2905000Y-12732652D01*
X2914524Y-12723128D01*
X2924048Y-12704081D01*
X2924048Y-12665986D01*
X2914524Y-12646938D01*
X2905000Y-12637414D01*
X2885952Y-12627890D01*
X3009762Y-12742176D02*
X3009762Y-12608843D01*
X3009762Y-12627890D02*
X3019286Y-12618367D01*
X3038333Y-12608843D01*
X3066905Y-12608843D01*
X3085952Y-12618367D01*
X3095476Y-12637414D01*
X3095476Y-12742176D01*
X3095476Y-12637414D02*
X3105000Y-12618367D01*
X3124048Y-12608843D01*
X3152619Y-12608843D01*
X3171667Y-12618367D01*
X3181190Y-12637414D01*
X3181190Y-12742176D01*
X3276428Y-12742176D02*
X3276428Y-12608843D01*
X3276428Y-12627890D02*
X3285952Y-12618367D01*
X3305000Y-12608843D01*
X3333571Y-12608843D01*
X3352619Y-12618367D01*
X3362143Y-12637414D01*
X3362143Y-12742176D01*
X3362143Y-12637414D02*
X3371667Y-12618367D01*
X3390714Y-12608843D01*
X3419286Y-12608843D01*
X3438333Y-12618367D01*
X3447857Y-12637414D01*
X3447857Y-12742176D01*
X3838333Y-12532652D02*
X3666905Y-12789795D01*
X4095476Y-12542176D02*
X4114524Y-12542176D01*
X4133571Y-12551700D01*
X4143095Y-12561224D01*
X4152619Y-12580271D01*
X4162143Y-12618367D01*
X4162143Y-12665986D01*
X4152619Y-12704081D01*
X4143095Y-12723128D01*
X4133571Y-12732652D01*
X4114524Y-12742176D01*
X4095476Y-12742176D01*
X4076428Y-12732652D01*
X4066905Y-12723128D01*
X4057381Y-12704081D01*
X4047857Y-12665986D01*
X4047857Y-12618367D01*
X4057381Y-12580271D01*
X4066905Y-12561224D01*
X4076428Y-12551700D01*
X4095476Y-12542176D01*
X4247857Y-12723128D02*
X4257381Y-12732652D01*
X4247857Y-12742176D01*
X4238333Y-12732652D01*
X4247857Y-12723128D01*
X4247857Y-12742176D01*
X4447857Y-12742176D02*
X4333571Y-12742176D01*
X4390714Y-12742176D02*
X4390714Y-12542176D01*
X4371667Y-12570748D01*
X4352619Y-12589795D01*
X4333571Y-12599319D01*
X4628810Y-12542176D02*
X4533571Y-12542176D01*
X4524048Y-12637414D01*
X4533571Y-12627890D01*
X4552619Y-12618367D01*
X4600238Y-12618367D01*
X4619286Y-12627890D01*
X4628810Y-12637414D01*
X4638333Y-12656462D01*
X4638333Y-12704081D01*
X4628810Y-12723128D01*
X4619286Y-12732652D01*
X4600238Y-12742176D01*
X4552619Y-12742176D01*
X4533571Y-12732652D01*
X4524048Y-12723128D01*
X4705000Y-12542176D02*
X4838333Y-12542176D01*
X4752619Y-12742176D01*
X4952619Y-12542176D02*
X4971667Y-12542176D01*
X4990714Y-12551700D01*
X5000238Y-12561224D01*
X5009762Y-12580271D01*
X5019286Y-12618367D01*
X5019286Y-12665986D01*
X5009762Y-12704081D01*
X5000238Y-12723128D01*
X4990714Y-12732652D01*
X4971667Y-12742176D01*
X4952619Y-12742176D01*
X4933571Y-12732652D01*
X4924048Y-12723128D01*
X4914524Y-12704081D01*
X4905000Y-12665986D01*
X4905000Y-12618367D01*
X4914524Y-12580271D01*
X4924048Y-12561224D01*
X4933571Y-12551700D01*
X4952619Y-12542176D01*
X5095476Y-12542176D02*
X5095476Y-12580271D01*
X5171667Y-12542176D02*
X5171667Y-12580271D01*
X5466905Y-12818367D02*
X5457381Y-12808843D01*
X5438333Y-12780271D01*
X5428810Y-12761224D01*
X5419286Y-12732652D01*
X5409762Y-12685033D01*
X5409762Y-12646938D01*
X5419286Y-12599319D01*
X5428810Y-12570748D01*
X5438333Y-12551700D01*
X5457381Y-12523128D01*
X5466905Y-12513605D01*
X5524048Y-12542176D02*
X5647857Y-12542176D01*
X5581190Y-12618367D01*
X5609762Y-12618367D01*
X5628809Y-12627890D01*
X5638333Y-12637414D01*
X5647857Y-12656462D01*
X5647857Y-12704081D01*
X5638333Y-12723128D01*
X5628809Y-12732652D01*
X5609762Y-12742176D01*
X5552619Y-12742176D01*
X5533571Y-12732652D01*
X5524048Y-12723128D01*
X5819286Y-12608843D02*
X5819286Y-12742176D01*
X5771667Y-12532652D02*
X5724048Y-12675509D01*
X5847857Y-12675509D01*
X6076428Y-12742176D02*
X6076428Y-12542176D01*
X6162143Y-12742176D02*
X6162143Y-12637414D01*
X6152619Y-12618367D01*
X6133571Y-12608843D01*
X6105000Y-12608843D01*
X6085952Y-12618367D01*
X6076428Y-12627890D01*
X6285952Y-12742176D02*
X6266905Y-12732652D01*
X6257381Y-12723128D01*
X6247857Y-12704081D01*
X6247857Y-12646938D01*
X6257381Y-12627890D01*
X6266905Y-12618367D01*
X6285952Y-12608843D01*
X6314524Y-12608843D01*
X6333571Y-12618367D01*
X6343095Y-12627890D01*
X6352619Y-12646938D01*
X6352619Y-12704081D01*
X6343095Y-12723128D01*
X6333571Y-12732652D01*
X6314524Y-12742176D01*
X6285952Y-12742176D01*
X6466905Y-12742176D02*
X6447857Y-12732652D01*
X6438333Y-12713605D01*
X6438333Y-12542176D01*
X6619286Y-12732652D02*
X6600238Y-12742176D01*
X6562143Y-12742176D01*
X6543095Y-12732652D01*
X6533571Y-12713605D01*
X6533571Y-12637414D01*
X6543095Y-12618367D01*
X6562143Y-12608843D01*
X6600238Y-12608843D01*
X6619286Y-12618367D01*
X6628809Y-12637414D01*
X6628809Y-12656462D01*
X6533571Y-12675509D01*
X6705000Y-12732652D02*
X6724048Y-12742176D01*
X6762143Y-12742176D01*
X6781190Y-12732652D01*
X6790714Y-12713605D01*
X6790714Y-12704081D01*
X6781190Y-12685033D01*
X6762143Y-12675509D01*
X6733571Y-12675509D01*
X6714524Y-12665986D01*
X6705000Y-12646938D01*
X6705000Y-12637414D01*
X6714524Y-12618367D01*
X6733571Y-12608843D01*
X6762143Y-12608843D01*
X6781190Y-12618367D01*
X6857381Y-12818367D02*
X6866905Y-12808843D01*
X6885952Y-12780271D01*
X6895476Y-12761224D01*
X6905000Y-12732652D01*
X6914524Y-12685033D01*
X6914524Y-12646938D01*
X6905000Y-12599319D01*
X6895476Y-12570748D01*
X6885952Y-12551700D01*
X6866905Y-12523128D01*
X6857381Y-12513605D01*
X7219286Y-12818367D02*
X7209762Y-12808843D01*
X7190714Y-12780271D01*
X7181190Y-12761224D01*
X7171667Y-12732652D01*
X7162143Y-12685033D01*
X7162143Y-12646938D01*
X7171667Y-12599319D01*
X7181190Y-12570748D01*
X7190714Y-12551700D01*
X7209762Y-12523128D01*
X7219286Y-12513605D01*
X7295476Y-12608843D02*
X7295476Y-12742176D01*
X7295476Y-12627890D02*
X7305000Y-12618367D01*
X7324048Y-12608843D01*
X7352619Y-12608843D01*
X7371667Y-12618367D01*
X7381190Y-12637414D01*
X7381190Y-12742176D01*
X7505000Y-12742176D02*
X7485952Y-12732652D01*
X7476428Y-12723128D01*
X7466905Y-12704081D01*
X7466905Y-12646938D01*
X7476428Y-12627890D01*
X7485952Y-12618367D01*
X7505000Y-12608843D01*
X7533571Y-12608843D01*
X7552619Y-12618367D01*
X7562143Y-12627890D01*
X7571667Y-12646938D01*
X7571667Y-12704081D01*
X7562143Y-12723128D01*
X7552619Y-12732652D01*
X7533571Y-12742176D01*
X7505000Y-12742176D01*
X7628809Y-12608843D02*
X7705000Y-12608843D01*
X7657381Y-12542176D02*
X7657381Y-12713605D01*
X7666905Y-12732652D01*
X7685952Y-12742176D01*
X7705000Y-12742176D01*
X7924048Y-12608843D02*
X7924048Y-12808843D01*
X7924048Y-12618367D02*
X7943095Y-12608843D01*
X7981190Y-12608843D01*
X8000238Y-12618367D01*
X8009762Y-12627890D01*
X8019286Y-12646938D01*
X8019286Y-12704081D01*
X8009762Y-12723128D01*
X8000238Y-12732652D01*
X7981190Y-12742176D01*
X7943095Y-12742176D01*
X7924048Y-12732652D01*
X8133571Y-12742176D02*
X8114524Y-12732652D01*
X8105000Y-12713605D01*
X8105000Y-12542176D01*
X8295476Y-12742176D02*
X8295476Y-12637414D01*
X8285952Y-12618367D01*
X8266905Y-12608843D01*
X8228809Y-12608843D01*
X8209762Y-12618367D01*
X8295476Y-12732652D02*
X8276428Y-12742176D01*
X8228809Y-12742176D01*
X8209762Y-12732652D01*
X8200238Y-12713605D01*
X8200238Y-12694557D01*
X8209762Y-12675509D01*
X8228809Y-12665986D01*
X8276428Y-12665986D01*
X8295476Y-12656462D01*
X8362143Y-12608843D02*
X8438333Y-12608843D01*
X8390714Y-12542176D02*
X8390714Y-12713605D01*
X8400238Y-12732652D01*
X8419286Y-12742176D01*
X8438333Y-12742176D01*
X8581190Y-12732652D02*
X8562143Y-12742176D01*
X8524048Y-12742176D01*
X8505000Y-12732652D01*
X8495476Y-12713605D01*
X8495476Y-12637414D01*
X8505000Y-12618367D01*
X8524048Y-12608843D01*
X8562143Y-12608843D01*
X8581190Y-12618367D01*
X8590714Y-12637414D01*
X8590714Y-12656462D01*
X8495476Y-12675509D01*
X8762143Y-12742176D02*
X8762143Y-12542176D01*
X8762143Y-12732652D02*
X8743095Y-12742176D01*
X8705000Y-12742176D01*
X8685952Y-12732652D01*
X8676429Y-12723128D01*
X8666905Y-12704081D01*
X8666905Y-12646938D01*
X8676429Y-12627890D01*
X8685952Y-12618367D01*
X8705000Y-12608843D01*
X8743095Y-12608843D01*
X8762143Y-12618367D01*
X8838333Y-12818367D02*
X8847857Y-12808843D01*
X8866905Y-12780271D01*
X8876429Y-12761224D01*
X8885952Y-12732652D01*
X8895476Y-12685033D01*
X8895476Y-12646938D01*
X8885952Y-12599319D01*
X8876429Y-12570748D01*
X8866905Y-12551700D01*
X8847857Y-12523128D01*
X8838333Y-12513605D01*
M02*
