G04 #@! TF.GenerationSoftware,KiCad,Pcbnew,(6.0.11-0)*
G04 #@! TF.CreationDate,2023-07-13T15:03:38+09:00*
G04 #@! TF.ProjectId,qfwfq,71667766-712e-46b6-9963-61645f706362,rev?*
G04 #@! TF.SameCoordinates,Original*
G04 #@! TF.FileFunction,Soldermask,Bot*
G04 #@! TF.FilePolarity,Negative*
%FSLAX46Y46*%
G04 Gerber Fmt 4.6, Leading zero omitted, Abs format (unit mm)*
G04 Created by KiCad (PCBNEW (6.0.11-0)) date 2023-07-13 15:03:38*
%MOMM*%
%LPD*%
G01*
G04 APERTURE LIST*
G04 Aperture macros list*
%AMRoundRect*
0 Rectangle with rounded corners*
0 $1 Rounding radius*
0 $2 $3 $4 $5 $6 $7 $8 $9 X,Y pos of 4 corners*
0 Add a 4 corners polygon primitive as box body*
4,1,4,$2,$3,$4,$5,$6,$7,$8,$9,$2,$3,0*
0 Add four circle primitives for the rounded corners*
1,1,$1+$1,$2,$3*
1,1,$1+$1,$4,$5*
1,1,$1+$1,$6,$7*
1,1,$1+$1,$8,$9*
0 Add four rect primitives between the rounded corners*
20,1,$1+$1,$2,$3,$4,$5,0*
20,1,$1+$1,$4,$5,$6,$7,0*
20,1,$1+$1,$6,$7,$8,$9,0*
20,1,$1+$1,$8,$9,$2,$3,0*%
%AMFreePoly0*
4,1,17,0.470280,1.085355,1.085355,0.470280,1.100000,0.434925,1.100000,-0.434925,1.085355,-0.470281,0.470280,-1.085355,0.434925,-1.100000,-0.434925,-1.100000,-0.470281,-1.085355,-1.085355,-0.470280,-1.100000,-0.434925,-1.100000,0.434925,-1.085355,0.470280,-0.470281,1.085355,-0.434925,1.100000,0.434925,1.100000,0.470280,1.085355,0.470280,1.085355,$1*%
%AMFreePoly1*
4,1,17,0.480635,1.110355,1.110356,0.480635,1.125000,0.445280,1.125000,-0.445280,1.110356,-0.480635,0.480635,-1.110355,0.445280,-1.125000,-0.445280,-1.125000,-0.480635,-1.110356,-1.110355,-0.480635,-1.125000,-0.445280,-1.125000,0.445280,-1.110355,0.480635,-0.480635,1.110356,-0.445280,1.125000,0.445280,1.125000,0.480635,1.110355,0.480635,1.110355,$1*%
%AMFreePoly2*
4,1,17,0.307538,0.785355,0.485355,0.607538,0.500000,0.572183,0.500000,-0.572183,0.485355,-0.607538,0.307538,-0.785355,0.272183,-0.800000,-0.272183,-0.800000,-0.307538,-0.785355,-0.485355,-0.607538,-0.500000,-0.572183,-0.500000,0.572183,-0.485355,0.607538,-0.307538,0.785355,-0.272183,0.800000,0.272183,0.800000,0.307538,0.785355,0.307538,0.785355,$1*%
%AMFreePoly3*
4,1,17,0.307538,1.035355,0.485355,0.857538,0.500000,0.822183,0.500000,-0.822183,0.485355,-0.857538,0.307538,-1.035355,0.272183,-1.050000,-0.272183,-1.050000,-0.307538,-1.035355,-0.485355,-0.857538,-0.500000,-0.822183,-0.500000,0.822183,-0.485355,0.857538,-0.307538,1.035355,-0.272183,1.050000,0.272183,1.050000,0.307538,1.035355,0.307538,1.035355,$1*%
G04 Aperture macros list end*
%ADD10C,1.750000*%
%ADD11C,3.987800*%
%ADD12FreePoly0,0.000000*%
%ADD13FreePoly1,0.000000*%
%ADD14C,0.650000*%
%ADD15R,0.600000X1.450000*%
%ADD16R,0.300000X1.450000*%
%ADD17FreePoly2,0.000000*%
%ADD18FreePoly3,0.000000*%
%ADD19R,1.500000X0.550000*%
%ADD20R,0.550000X1.500000*%
%ADD21RoundRect,0.200000X0.275000X-0.200000X0.275000X0.200000X-0.275000X0.200000X-0.275000X-0.200000X0*%
%ADD22RoundRect,0.200000X-0.275000X0.200000X-0.275000X-0.200000X0.275000X-0.200000X0.275000X0.200000X0*%
%ADD23RoundRect,0.200000X0.053033X-0.335876X0.335876X-0.053033X-0.053033X0.335876X-0.335876X0.053033X0*%
%ADD24R,0.700000X1.000000*%
%ADD25R,0.700000X0.600000*%
%ADD26R,1.800000X1.100000*%
%ADD27RoundRect,0.225000X-0.250000X0.225000X-0.250000X-0.225000X0.250000X-0.225000X0.250000X0.225000X0*%
%ADD28RoundRect,0.200000X0.200000X0.275000X-0.200000X0.275000X-0.200000X-0.275000X0.200000X-0.275000X0*%
%ADD29RoundRect,0.225000X0.250000X-0.225000X0.250000X0.225000X-0.250000X0.225000X-0.250000X-0.225000X0*%
%ADD30RoundRect,0.225000X-0.225000X-0.250000X0.225000X-0.250000X0.225000X0.250000X-0.225000X0.250000X0*%
%ADD31RoundRect,0.200000X-0.200000X-0.275000X0.200000X-0.275000X0.200000X0.275000X-0.200000X0.275000X0*%
%ADD32RoundRect,0.225000X-0.335876X-0.017678X-0.017678X-0.335876X0.335876X0.017678X0.017678X0.335876X0*%
%ADD33R,1.400000X1.200000*%
%ADD34RoundRect,0.250000X0.625000X-0.375000X0.625000X0.375000X-0.625000X0.375000X-0.625000X-0.375000X0*%
%ADD35R,1.200000X0.900000*%
G04 APERTURE END LIST*
D10*
X97949000Y-104775000D03*
X87789000Y-104775000D03*
D11*
X92869000Y-104775000D03*
D12*
X89569000Y-104135000D03*
X89569000Y-109855000D03*
D13*
X89059000Y-102235000D03*
X95409000Y-99695000D03*
D12*
X96169000Y-104135000D03*
X96169000Y-109855000D03*
D10*
X175895000Y-66675000D03*
D11*
X180975000Y-66675000D03*
D10*
X186055000Y-66675000D03*
D12*
X177675000Y-71755000D03*
X177675000Y-66035000D03*
D13*
X177165000Y-64135000D03*
D12*
X184275000Y-71755000D03*
D13*
X183515000Y-61595000D03*
D12*
X184275000Y-66035000D03*
D10*
X157480000Y-85725000D03*
X147320000Y-85725000D03*
D11*
X152400000Y-85725000D03*
D13*
X148590000Y-83185000D03*
D12*
X149100000Y-85085000D03*
X149100000Y-90805000D03*
X155700000Y-85085000D03*
X155700000Y-90805000D03*
D13*
X154940000Y-80645000D03*
D11*
X221456250Y-66675000D03*
D10*
X226536250Y-66675000D03*
X216376250Y-66675000D03*
D12*
X218156250Y-66035000D03*
X218156250Y-71755000D03*
D13*
X217646250Y-64135000D03*
D12*
X224756250Y-66035000D03*
D13*
X223996250Y-61595000D03*
D12*
X224756250Y-71755000D03*
D10*
X71755000Y-28575000D03*
X61595000Y-28575000D03*
D11*
X66675000Y-28575000D03*
D12*
X63375000Y-33655000D03*
D13*
X62865000Y-26035000D03*
D12*
X63375000Y-27935000D03*
D13*
X69215000Y-23495000D03*
D12*
X69975000Y-33655000D03*
X69975000Y-27935000D03*
D11*
X164306000Y-104775000D03*
D10*
X169386000Y-104775000D03*
X159226000Y-104775000D03*
D13*
X160496000Y-102235000D03*
D12*
X161006000Y-104135000D03*
X161006000Y-109855000D03*
D13*
X166846000Y-99695000D03*
D12*
X167606000Y-104135000D03*
X167606000Y-109855000D03*
D11*
X221456250Y-47625000D03*
D10*
X216376250Y-47625000D03*
X226536250Y-47625000D03*
D12*
X218156250Y-46985000D03*
X218156250Y-52705000D03*
D13*
X217646250Y-45085000D03*
D12*
X224756250Y-52705000D03*
D13*
X223996250Y-42545000D03*
D12*
X224756250Y-46985000D03*
D11*
X76200000Y-85725000D03*
D10*
X71120000Y-85725000D03*
X81280000Y-85725000D03*
D13*
X72390000Y-83185000D03*
D12*
X72900000Y-85085000D03*
X72900000Y-90805000D03*
D13*
X78740000Y-80645000D03*
D12*
X79500000Y-85085000D03*
X79500000Y-90805000D03*
D10*
X40798750Y-47625000D03*
D11*
X35718750Y-47625000D03*
D10*
X30638750Y-47625000D03*
D12*
X32418750Y-52705000D03*
X32418750Y-46985000D03*
D13*
X31908750Y-45085000D03*
D12*
X39018750Y-46985000D03*
D13*
X38258750Y-42545000D03*
D12*
X39018750Y-52705000D03*
D11*
X157162500Y-47625000D03*
D10*
X162242500Y-47625000D03*
X152082500Y-47625000D03*
D12*
X153862500Y-52705000D03*
X153862500Y-46985000D03*
D13*
X153352500Y-45085000D03*
D12*
X160462500Y-52705000D03*
X160462500Y-46985000D03*
D13*
X159702500Y-42545000D03*
D10*
X186055000Y-85725000D03*
D11*
X180975000Y-85725000D03*
D10*
X175895000Y-85725000D03*
D13*
X177165000Y-83185000D03*
D12*
X177675000Y-90805000D03*
X177675000Y-85085000D03*
X184275000Y-90805000D03*
D13*
X183515000Y-80645000D03*
D12*
X184275000Y-85085000D03*
D11*
X200025000Y-66675000D03*
D10*
X205105000Y-66675000D03*
X194945000Y-66675000D03*
D13*
X196215000Y-64135000D03*
D12*
X196725000Y-66035000D03*
X196725000Y-71755000D03*
X203325000Y-71755000D03*
D13*
X202565000Y-61595000D03*
D12*
X203325000Y-66035000D03*
D11*
X85725000Y-28575000D03*
D10*
X80645000Y-28575000D03*
X90805000Y-28575000D03*
D12*
X82425000Y-33655000D03*
X82425000Y-27935000D03*
D13*
X81915000Y-26035000D03*
X88265000Y-23495000D03*
D12*
X89025000Y-27935000D03*
X89025000Y-33655000D03*
D11*
X57150000Y-66675000D03*
D10*
X62230000Y-66675000D03*
X52070000Y-66675000D03*
D12*
X53850000Y-71755000D03*
X53850000Y-66035000D03*
D13*
X53340000Y-64135000D03*
X59690000Y-61595000D03*
D12*
X60450000Y-66035000D03*
X60450000Y-71755000D03*
D10*
X105092500Y-47625000D03*
X94932500Y-47625000D03*
D11*
X100012500Y-47625000D03*
D12*
X96712500Y-52705000D03*
X96712500Y-46985000D03*
D13*
X96202500Y-45085000D03*
D12*
X103312500Y-52705000D03*
D13*
X102552500Y-42545000D03*
D12*
X103312500Y-46985000D03*
D10*
X171132500Y-47625000D03*
X181292500Y-47625000D03*
D11*
X176212500Y-47625000D03*
D13*
X172402500Y-45085000D03*
D12*
X172912500Y-52705000D03*
X172912500Y-46985000D03*
X179512500Y-46985000D03*
X179512500Y-52705000D03*
D13*
X178752500Y-42545000D03*
D10*
X99695000Y-85725000D03*
X109855000Y-85725000D03*
D11*
X104775000Y-85725000D03*
D12*
X101475000Y-85085000D03*
D13*
X100965000Y-83185000D03*
D12*
X101475000Y-90805000D03*
D13*
X107315000Y-80645000D03*
D12*
X108075000Y-90805000D03*
X108075000Y-85085000D03*
D10*
X37782500Y-28575000D03*
D11*
X42862500Y-28575000D03*
D10*
X47942500Y-28575000D03*
D12*
X39562500Y-27935000D03*
D13*
X39052500Y-26035000D03*
D12*
X39562500Y-33655000D03*
D13*
X45402500Y-23495000D03*
D12*
X46162500Y-27935000D03*
X46162500Y-33655000D03*
D10*
X200342500Y-47625000D03*
D11*
X195262500Y-47625000D03*
D10*
X190182500Y-47625000D03*
D13*
X191452500Y-45085000D03*
D12*
X191962500Y-46985000D03*
X191962500Y-52705000D03*
D13*
X197802500Y-42545000D03*
D12*
X198562500Y-46985000D03*
X198562500Y-52705000D03*
D10*
X71120000Y-66675000D03*
X81280000Y-66675000D03*
D11*
X76200000Y-66675000D03*
D12*
X72900000Y-66035000D03*
D13*
X72390000Y-64135000D03*
D12*
X72900000Y-71755000D03*
D13*
X78740000Y-61595000D03*
D12*
X79500000Y-66035000D03*
X79500000Y-71755000D03*
D10*
X166370000Y-28575000D03*
D11*
X171450000Y-28575000D03*
D10*
X176530000Y-28575000D03*
D12*
X168150000Y-33655000D03*
X168150000Y-27935000D03*
D13*
X167640000Y-26035000D03*
X173990000Y-23495000D03*
D12*
X174750000Y-33655000D03*
X174750000Y-27935000D03*
D10*
X195580000Y-28575000D03*
D11*
X190500000Y-28575000D03*
D10*
X185420000Y-28575000D03*
D12*
X187200000Y-27935000D03*
D13*
X186690000Y-26035000D03*
D12*
X187200000Y-33655000D03*
D13*
X193040000Y-23495000D03*
D12*
X193800000Y-27935000D03*
X193800000Y-33655000D03*
D10*
X167005000Y-66675000D03*
D11*
X161925000Y-66675000D03*
D10*
X156845000Y-66675000D03*
D12*
X158625000Y-71755000D03*
X158625000Y-66035000D03*
D13*
X158115000Y-64135000D03*
D12*
X165225000Y-66035000D03*
D13*
X164465000Y-61595000D03*
D12*
X165225000Y-71755000D03*
D10*
X30638750Y-66675000D03*
X40798750Y-66675000D03*
D11*
X35718750Y-66675000D03*
D12*
X32418750Y-71755000D03*
X32418750Y-66035000D03*
D13*
X31908750Y-64135000D03*
D12*
X39018750Y-71755000D03*
D13*
X38258750Y-61595000D03*
D12*
X39018750Y-66035000D03*
D10*
X187801000Y-104775000D03*
D11*
X192881000Y-104775000D03*
D10*
X197961000Y-104775000D03*
D13*
X189071000Y-102235000D03*
D12*
X189581000Y-109855000D03*
X189581000Y-104135000D03*
D13*
X195421000Y-99695000D03*
D12*
X196181000Y-104135000D03*
X196181000Y-109855000D03*
D10*
X209232500Y-28575000D03*
X219392500Y-28575000D03*
D11*
X214312500Y-28575000D03*
D13*
X210502500Y-26035000D03*
D12*
X211012500Y-33655000D03*
X211012500Y-27935000D03*
X217612500Y-27935000D03*
X217612500Y-33655000D03*
D13*
X216852500Y-23495000D03*
D10*
X56832500Y-47625000D03*
D11*
X61912500Y-47625000D03*
D10*
X66992500Y-47625000D03*
D12*
X58612500Y-46985000D03*
D13*
X58102500Y-45085000D03*
D12*
X58612500Y-52705000D03*
X65212500Y-52705000D03*
D13*
X64452500Y-42545000D03*
D12*
X65212500Y-46985000D03*
D10*
X145573750Y-66675000D03*
X135413750Y-66675000D03*
D11*
X140493750Y-66675000D03*
D12*
X137193750Y-66035000D03*
D13*
X136683750Y-64135000D03*
D12*
X137193750Y-71755000D03*
X143793750Y-66035000D03*
D13*
X143033750Y-61595000D03*
D12*
X143793750Y-71755000D03*
D11*
X116681250Y-66675000D03*
D10*
X121761250Y-66675000D03*
X111601250Y-66675000D03*
D12*
X113381250Y-71755000D03*
X113381250Y-66035000D03*
D13*
X112871250Y-64135000D03*
D12*
X119981250Y-71755000D03*
D13*
X119221250Y-61595000D03*
D12*
X119981250Y-66035000D03*
D10*
X69374000Y-104775000D03*
D11*
X64294000Y-104775000D03*
D10*
X59214000Y-104775000D03*
D12*
X60994000Y-104135000D03*
D13*
X60484000Y-102235000D03*
D12*
X60994000Y-109855000D03*
X67594000Y-104135000D03*
X67594000Y-109855000D03*
D13*
X66834000Y-99695000D03*
D10*
X133032500Y-47625000D03*
X143192500Y-47625000D03*
D11*
X138112500Y-47625000D03*
D12*
X134812500Y-46985000D03*
D13*
X134302500Y-45085000D03*
D12*
X134812500Y-52705000D03*
X141412500Y-52705000D03*
X141412500Y-46985000D03*
D13*
X140652500Y-42545000D03*
D10*
X75882500Y-47625000D03*
X86042500Y-47625000D03*
D11*
X80962500Y-47625000D03*
D12*
X77662500Y-46985000D03*
D13*
X77152500Y-45085000D03*
D12*
X77662500Y-52705000D03*
X84262500Y-46985000D03*
X84262500Y-52705000D03*
D13*
X83502500Y-42545000D03*
D10*
X113982500Y-47625000D03*
X124142500Y-47625000D03*
D11*
X119062500Y-47625000D03*
D12*
X115762500Y-46985000D03*
D13*
X115252500Y-45085000D03*
D12*
X115762500Y-52705000D03*
X122362500Y-46985000D03*
X122362500Y-52705000D03*
D13*
X121602500Y-42545000D03*
D10*
X100330000Y-66675000D03*
X90170000Y-66675000D03*
D11*
X95250000Y-66675000D03*
D12*
X91950000Y-71755000D03*
D13*
X91440000Y-64135000D03*
D12*
X91950000Y-66035000D03*
D13*
X97790000Y-61595000D03*
D12*
X98550000Y-66035000D03*
X98550000Y-71755000D03*
D14*
X131477500Y-30267500D03*
X125697500Y-30267500D03*
D15*
X125362500Y-31712500D03*
X126137500Y-31712500D03*
D16*
X126837500Y-31712500D03*
X127337500Y-31712500D03*
X127837500Y-31712500D03*
X128337500Y-31712500D03*
X128837500Y-31712500D03*
X129337500Y-31712500D03*
X129837500Y-31712500D03*
X130337500Y-31712500D03*
D15*
X131037500Y-31712500D03*
X131812500Y-31712500D03*
D17*
X132907500Y-26617500D03*
D18*
X124267500Y-30797500D03*
X132907500Y-30797500D03*
D17*
X124267500Y-26617500D03*
D19*
X134800000Y-90900000D03*
X134800000Y-91700000D03*
X134800000Y-92500000D03*
X134800000Y-93300000D03*
X134800000Y-94100000D03*
X134800000Y-94900000D03*
X134800000Y-95700000D03*
X134800000Y-96500000D03*
X134800000Y-97300000D03*
X134800000Y-98100000D03*
X134800000Y-98900000D03*
D20*
X133100000Y-100600000D03*
X132300000Y-100600000D03*
X131500000Y-100600000D03*
X130700000Y-100600000D03*
X129900000Y-100600000D03*
X129100000Y-100600000D03*
X128300000Y-100600000D03*
X127500000Y-100600000D03*
X126700000Y-100600000D03*
X125900000Y-100600000D03*
X125100000Y-100600000D03*
D19*
X123400000Y-98900000D03*
X123400000Y-98100000D03*
X123400000Y-97300000D03*
X123400000Y-96500000D03*
X123400000Y-95700000D03*
X123400000Y-94900000D03*
X123400000Y-94100000D03*
X123400000Y-93300000D03*
X123400000Y-92500000D03*
X123400000Y-91700000D03*
X123400000Y-90900000D03*
D20*
X125100000Y-89200000D03*
X125900000Y-89200000D03*
X126700000Y-89200000D03*
X127500000Y-89200000D03*
X128300000Y-89200000D03*
X129100000Y-89200000D03*
X129900000Y-89200000D03*
X130700000Y-89200000D03*
X131500000Y-89200000D03*
X132300000Y-89200000D03*
X133100000Y-89200000D03*
D21*
X129336000Y-44509228D03*
X129336000Y-42859228D03*
D22*
X121180000Y-88945000D03*
X121180000Y-90595000D03*
D23*
X136616637Y-105483363D03*
X137783363Y-104316637D03*
D24*
X129460000Y-36084228D03*
D25*
X129460000Y-37784228D03*
X127460000Y-37784228D03*
X127460000Y-35884228D03*
D21*
X127685000Y-44509228D03*
X127685000Y-42859228D03*
D26*
X149600000Y-103775000D03*
X143400000Y-107475000D03*
X149600000Y-107475000D03*
X143400000Y-103775000D03*
D27*
X126384999Y-105722002D03*
X126384999Y-107272002D03*
D28*
X134161000Y-34841728D03*
X132511000Y-34841728D03*
D29*
X137200000Y-90275000D03*
X137200000Y-88725000D03*
D30*
X138475000Y-94900000D03*
X140025000Y-94900000D03*
D31*
X122605000Y-34841728D03*
X124255000Y-34841728D03*
D32*
X134291992Y-105881992D03*
X135388008Y-106978008D03*
D29*
X132481000Y-107272001D03*
X132481000Y-105722001D03*
D30*
X133551250Y-86540000D03*
X135101250Y-86540000D03*
X138475000Y-96400000D03*
X140025000Y-96400000D03*
D27*
X120142000Y-98031000D03*
X120142000Y-99581000D03*
D29*
X123444000Y-86881000D03*
X123444000Y-85331000D03*
D33*
X128333000Y-105647000D03*
X130533000Y-105647000D03*
X130533000Y-107347000D03*
X128333000Y-107347000D03*
D34*
X120280000Y-38540000D03*
X120280000Y-35740000D03*
D35*
X184300000Y-78050000D03*
X184300000Y-74750000D03*
X119981250Y-78050000D03*
X119981250Y-74750000D03*
X108025000Y-97100000D03*
X108025000Y-93800000D03*
X165250000Y-78050000D03*
X165250000Y-74750000D03*
X103300000Y-58800000D03*
X103300000Y-55500000D03*
X122350000Y-58800000D03*
X122350000Y-55500000D03*
X39050000Y-58800000D03*
X39050000Y-55500000D03*
X209540000Y-73780000D03*
X209540000Y-70480000D03*
X84250000Y-58800000D03*
X84250000Y-55500000D03*
X65200000Y-58800000D03*
X65200000Y-55500000D03*
X193837500Y-39750000D03*
X193837500Y-36450000D03*
X160450000Y-58800000D03*
X160450000Y-55500000D03*
X184225000Y-97100000D03*
X184225000Y-93800000D03*
X174787500Y-39750000D03*
X174787500Y-36450000D03*
X44958000Y-73786000D03*
X44958000Y-70486000D03*
X155650000Y-97100000D03*
X155650000Y-93800000D03*
X179500000Y-58800000D03*
X179500000Y-55500000D03*
X198550000Y-58800000D03*
X198550000Y-55500000D03*
X70050000Y-39750000D03*
X70050000Y-36450000D03*
X79450000Y-97100000D03*
X79450000Y-93800000D03*
X99690000Y-111980000D03*
X99690000Y-108680000D03*
X98550000Y-78050000D03*
X98550000Y-74750000D03*
X224743750Y-58800000D03*
X224743750Y-55500000D03*
X70860000Y-111980000D03*
X70860000Y-108680000D03*
X170942000Y-111886000D03*
X170942000Y-108586000D03*
X141400000Y-58800000D03*
X141400000Y-55500000D03*
X79500000Y-78050000D03*
X79500000Y-74750000D03*
X186182000Y-111886000D03*
X186182000Y-108586000D03*
X89050000Y-39750000D03*
X89050000Y-36450000D03*
X46037500Y-39750000D03*
X46037500Y-36450000D03*
X217650000Y-39750000D03*
X217650000Y-36450000D03*
X66294000Y-73786000D03*
X66294000Y-70486000D03*
X143818750Y-78050000D03*
X143818750Y-74750000D03*
X230660000Y-73780000D03*
X230660000Y-70480000D03*
M02*
