M48
; DRILL file {KiCad (6.0.11-0)} date 2023 July 13, Thursday 15:03:25
; FORMAT={-:-/ absolute / metric / decimal}
; #@! TF.CreationDate,2023-07-13T15:03:25+09:00
; #@! TF.GenerationSoftware,Kicad,Pcbnew,(6.0.11-0)
; #@! TF.FileFunction,NonPlated,1,2,NPTH
FMAT,2
METRIC
; #@! TA.AperFunction,NonPlated,NPTH,ComponentDrill
T1C0.650
; #@! TA.AperFunction,NonPlated,NPTH,ComponentDrill
T2C1.750
; #@! TA.AperFunction,NonPlated,NPTH,ComponentDrill
T3C3.988
%
G90
G05
T1
X125.697Y-30.267
X131.477Y-30.267
T2
X30.639Y-47.625
X30.639Y-66.675
X37.782Y-28.575
X40.799Y-47.625
X40.799Y-66.675
X47.942Y-28.575
X52.07Y-66.675
X56.832Y-47.625
X59.214Y-104.775
X61.595Y-28.575
X62.23Y-66.675
X66.992Y-47.625
X69.374Y-104.775
X71.12Y-66.675
X71.12Y-85.725
X71.755Y-28.575
X75.882Y-47.625
X80.645Y-28.575
X81.28Y-66.675
X81.28Y-85.725
X86.042Y-47.625
X87.789Y-104.775
X90.17Y-66.675
X90.805Y-28.575
X94.932Y-47.625
X97.949Y-104.775
X99.695Y-85.725
X100.33Y-66.675
X105.093Y-47.625
X109.855Y-85.725
X111.601Y-66.675
X113.983Y-47.625
X121.761Y-66.675
X124.142Y-47.625
X133.032Y-47.625
X135.414Y-66.675
X143.192Y-47.625
X145.574Y-66.675
X147.32Y-85.725
X152.082Y-47.625
X156.845Y-66.675
X157.48Y-85.725
X159.226Y-104.775
X162.243Y-47.625
X166.37Y-28.575
X167.005Y-66.675
X169.386Y-104.775
X171.132Y-47.625
X175.895Y-66.675
X175.895Y-85.725
X176.53Y-28.575
X181.292Y-47.625
X185.42Y-28.575
X186.055Y-66.675
X186.055Y-85.725
X187.801Y-104.775
X190.183Y-47.625
X194.945Y-66.675
X195.58Y-28.575
X197.961Y-104.775
X200.343Y-47.625
X205.105Y-66.675
X209.232Y-28.575
X216.376Y-47.625
X216.376Y-66.675
X219.392Y-28.575
X226.536Y-47.625
X226.536Y-66.675
T3
X35.719Y-47.625
X35.719Y-66.675
X42.862Y-28.575
X57.15Y-66.675
X61.912Y-47.625
X64.294Y-104.775
X66.675Y-28.575
X76.2Y-66.675
X76.2Y-85.725
X80.962Y-47.625
X85.725Y-28.575
X92.869Y-104.775
X95.25Y-66.675
X100.012Y-47.625
X104.775Y-85.725
X116.681Y-66.675
X119.062Y-47.625
X138.112Y-47.625
X140.494Y-66.675
X152.4Y-85.725
X157.162Y-47.625
X161.925Y-66.675
X164.306Y-104.775
X171.45Y-28.575
X176.213Y-47.625
X180.975Y-66.675
X180.975Y-85.725
X190.5Y-28.575
X192.881Y-104.775
X195.262Y-47.625
X200.025Y-66.675
X214.312Y-28.575
X221.456Y-47.625
X221.456Y-66.675
T0
M30
